<?xml version="1.0" encoding="UTF-8"?>
<svg width="32px" height="32px" viewBox="0 0 32 32" version="1.1" xmlns="http://www.w3.org/2000/svg" xmlns:xlink="http://www.w3.org/1999/xlink">
    <!-- Generator: Sketch 58 (84663) - https://sketch.com -->
    <title>check-icon</title>
    <desc>Created with Sketch.</desc>
    <g id="Page-1" stroke="none" stroke-width="1" fill="none" fill-rule="evenodd">
        <g id="Tutorial_Noom_step35" transform="translate(-24.000000, -998.000000)" fill="#30CD9A">
            <g id="Content" transform="translate(0.000000, 257.000000)">
                <g id="List" transform="translate(24.000000, 694.000000)">
                    <g id="Group-2" transform="translate(0.000000, 47.000000)">
                        <g id="check-icon">
                            <circle id="Oval" opacity="0.100000001" cx="16" cy="16" r="16"></circle>
                            <g id="icons24-/-CheckMark_small_mint" transform="translate(4.000000, 4.000000)">
                                <path d="M17.9717919,7.00043716 C17.7123478,7.00817234 17.4661045,7.11666797 17.28523,7.30293863 L10.0063064,14.5879882 L7.71919566,12.2983223 C7.46872072,12.0372854 7.09677997,11.9321338 6.74681791,12.0234206 C6.39685585,12.1147075 6.12355778,12.3881684 6.03232518,12.738339 C5.94109257,13.0885096 6.0461815,13.460672 6.30706284,13.7112963 L9.30024022,16.7074492 C9.69023712,17.0975169 10.3223757,17.0975169 10.7123726,16.7074492 L18.6973624,8.71591302 C18.9927192,8.42864287 19.0815262,7.98940654 18.9209914,7.60985202 C18.7604566,7.23029749 18.3835127,6.98828811 17.9717919,7.00043716 Z" id="checkmark_orange"></path>
                            </g>
                        </g>
                    </g>
                </g>
            </g>
        </g>
    </g>
</svg>