<svg width="32" height="32" viewBox="0 0 32 32" fill="none" xmlns="http://www.w3.org/2000/svg">
<mask id="mask0" mask-type="alpha" maskUnits="userSpaceOnUse" x="4" y="4" width="24" height="24">
<path fill-rule="evenodd" clip-rule="evenodd" d="M4.00098 4.00093H27.9996V27.8542H4.00098V4.00093Z" fill="white"/>
</mask>
<g mask="url(#mask0)">
<path fill-rule="evenodd" clip-rule="evenodd" d="M28 16C28 9.37257 22.6274 3.99999 16 3.99999C9.37258 3.99999 4 9.37257 4 16C4 21.9895 8.38823 26.954 14.125 27.8542V19.4687H11.0781V16H14.125V13.3562C14.125 10.3487 15.9165 8.68749 18.6576 8.68749C19.9705 8.68749 21.3438 8.92187 21.3438 8.92187V11.875H19.8306C18.3399 11.875 17.875 12.8 17.875 13.749V16H21.2031L20.6711 19.4687H17.875V27.8542C23.6118 26.954 28 21.9895 28 16Z" fill="#FFFFFE"/>
</g>
</svg>
