<svg width="32" height="32" viewBox="0 0 32 32" fill="none" xmlns="http://www.w3.org/2000/svg">
<mask id="mask0" mask-type="alpha" maskUnits="userSpaceOnUse" x="5" y="5" width="22" height="22">
<path fill-rule="evenodd" clip-rule="evenodd" d="M5.00098 5.00085H26.9997V26.8664H5.00098V5.00085Z" fill="white"/>
</mask>
<g mask="url(#mask0)">
<path fill-rule="evenodd" clip-rule="evenodd" d="M26.2657 16.243C26.2657 15.4847 26.1976 14.7555 26.0712 14.0555H15.999V18.1923H21.7546C21.5067 19.5292 20.7532 20.6618 19.6206 21.4201V24.1035H23.0768C25.099 22.2417 26.2657 19.5 26.2657 16.243Z" fill="#4285F4"/>
<path fill-rule="evenodd" clip-rule="evenodd" d="M15.9993 26.6944C18.8868 26.6944 21.3077 25.7368 23.0771 24.1034L19.6209 21.4201C18.6632 22.0618 17.4382 22.4409 15.9993 22.4409C13.2139 22.4409 10.8563 20.5597 10.0153 18.0319H6.44238V20.8028C8.20211 24.2979 11.8188 26.6944 15.9993 26.6944Z" fill="#34A853"/>
<path fill-rule="evenodd" clip-rule="evenodd" d="M10.0151 18.0319C9.80122 17.3903 9.67969 16.7048 9.67969 16C9.67969 15.2951 9.80122 14.6097 10.0151 13.968V11.1972H6.44219C5.71788 12.641 5.30469 14.2743 5.30469 16C5.30469 17.7257 5.71788 19.359 6.44219 20.8028L10.0151 18.0319Z" fill="#FBBC04"/>
<path fill-rule="evenodd" clip-rule="evenodd" d="M15.9993 9.55901C17.5695 9.55901 18.9792 10.0986 20.0875 11.1583L23.1549 8.09096C21.3028 6.36526 18.882 5.30554 15.9993 5.30554C11.8188 5.30554 8.20211 7.70207 6.44238 11.1972L10.0153 13.968C10.8563 11.4403 13.2139 9.55901 15.9993 9.55901Z" fill="#EA4335"/>
</g>
</svg>
