<svg width="1024" height="342" viewBox="0 0 1024 342" fill="none" xmlns="http://www.w3.org/2000/svg">
<mask id="mask0" mask-type="alpha" maskUnits="userSpaceOnUse" x="0" y="0" width="1024" height="342">
<rect x="1" y="1" width="1022" height="340" fill="white" stroke="#C23A3E" stroke-width="2"/>
</mask>
<g mask="url(#mask0)">
<rect opacity="0.07" width="1024" height="342" fill="url(#paint0_linear)"/>
<path d="M-0.5 225H325C513 225 513 298 700 298H1025.5" stroke="url(#paint1_linear)" stroke-width="4"/>
<path opacity="0.3" fill-rule="evenodd" clip-rule="evenodd" d="M325 225C513 225 513 297.79 700 297.79C725.5 297.79 999 297.79 1025 297.79C1051 297.79 1029 593 1029 593H-0.999999C-0.999999 593 -25.5 225 -1.00005 225C23.4999 225 268 225 325 225Z" fill="url(#paint2_linear)"/>
</g>
<path d="M431 241C434.314 241 437 238.314 437 235C437 231.686 434.314 229 431 229C427.686 229 425 231.686 425 235C425 238.314 427.686 241 431 241Z" fill="#E5B12D" stroke="white" stroke-width="2"/>
<path d="M602 299C606.971 299 611 294.971 611 290C611 285.029 606.971 281 602 281C597.029 281 593 285.029 593 290C593 294.971 597.029 299 602 299Z" fill="#30CD9A" stroke="white" stroke-width="2"/>
<path d="M602.5 245V177" stroke="#30CD9A" stroke-linecap="round" stroke-dasharray="4 4"/>
<path d="M431.5 197V177" stroke="#DDDDDE" stroke-linecap="round" stroke-dasharray="4 4"/>
<path d="M577.166 159.009L573.708 153.796H575.71L578.024 157.67L580.364 153.796H582.262L578.804 159.009V163H577.166V159.009ZM581.382 159.854C581.382 159.36 581.469 158.914 581.642 158.515C581.824 158.108 582.067 157.761 582.37 157.475C582.673 157.189 583.033 156.968 583.449 156.812C583.865 156.656 584.307 156.578 584.775 156.578C585.243 156.578 585.685 156.656 586.101 156.812C586.517 156.968 586.877 157.189 587.18 157.475C587.483 157.761 587.722 158.108 587.895 158.515C588.077 158.914 588.168 159.36 588.168 159.854C588.168 160.348 588.077 160.799 587.895 161.206C587.722 161.613 587.483 161.964 587.18 162.259C586.877 162.545 586.517 162.77 586.101 162.935C585.685 163.1 585.243 163.182 584.775 163.182C584.307 163.182 583.865 163.1 583.449 162.935C583.033 162.77 582.673 162.545 582.37 162.259C582.067 161.964 581.824 161.613 581.642 161.206C581.469 160.799 581.382 160.348 581.382 159.854ZM582.968 159.854C582.968 160.097 583.003 160.339 583.072 160.582C583.15 160.825 583.263 161.041 583.41 161.232C583.557 161.423 583.744 161.579 583.969 161.7C584.194 161.821 584.463 161.882 584.775 161.882C585.087 161.882 585.356 161.821 585.581 161.7C585.806 161.579 585.993 161.423 586.14 161.232C586.287 161.041 586.396 160.825 586.465 160.582C586.543 160.339 586.582 160.097 586.582 159.854C586.582 159.611 586.543 159.373 586.465 159.139C586.396 158.896 586.287 158.68 586.14 158.489C585.993 158.298 585.806 158.147 585.581 158.034C585.356 157.913 585.087 157.852 584.775 157.852C584.463 157.852 584.194 157.913 583.969 158.034C583.744 158.147 583.557 158.298 583.41 158.489C583.263 158.68 583.15 158.896 583.072 159.139C583.003 159.373 582.968 159.611 582.968 159.854ZM595.375 163H593.893V161.999H593.867C593.728 162.311 593.485 162.588 593.139 162.831C592.801 163.065 592.398 163.182 591.93 163.182C591.522 163.182 591.171 163.113 590.877 162.974C590.591 162.827 590.352 162.636 590.162 162.402C589.98 162.168 589.845 161.899 589.759 161.596C589.672 161.293 589.629 160.981 589.629 160.66V156.76H591.189V160.218C591.189 160.4 591.202 160.591 591.228 160.79C591.254 160.989 591.31 161.171 591.397 161.336C591.483 161.492 591.6 161.622 591.748 161.726C591.904 161.83 592.107 161.882 592.359 161.882C592.601 161.882 592.814 161.834 592.996 161.739C593.186 161.635 593.338 161.505 593.451 161.349C593.572 161.193 593.663 161.015 593.724 160.816C593.784 160.608 593.815 160.4 593.815 160.192V156.76H595.375V163ZM597.247 156.76H598.742V157.8H598.768C598.941 157.436 599.184 157.141 599.496 156.916C599.808 156.691 600.172 156.578 600.588 156.578C600.649 156.578 600.714 156.582 600.783 156.591C600.852 156.591 600.913 156.6 600.965 156.617V158.047C600.861 158.021 600.77 158.004 600.692 157.995C600.623 157.986 600.553 157.982 600.484 157.982C600.129 157.982 599.843 158.047 599.626 158.177C599.409 158.307 599.24 158.463 599.119 158.645C598.998 158.827 598.915 159.013 598.872 159.204C598.829 159.395 598.807 159.546 598.807 159.659V163H597.247V156.76ZM611.576 156.76V162.441C611.576 163.004 611.507 163.511 611.368 163.962C611.23 164.421 611.013 164.807 610.718 165.119C610.432 165.44 610.068 165.687 609.626 165.86C609.184 166.033 608.66 166.12 608.053 166.12C607.802 166.12 607.533 166.098 607.247 166.055C606.97 166.012 606.693 165.947 606.415 165.86C606.147 165.773 605.887 165.665 605.635 165.535C605.384 165.405 605.159 165.258 604.959 165.093L605.856 163.884C606.16 164.17 606.502 164.387 606.883 164.534C607.265 164.69 607.65 164.768 608.04 164.768C608.413 164.768 608.725 164.712 608.976 164.599C609.236 164.495 609.44 164.348 609.587 164.157C609.743 163.966 609.852 163.741 609.912 163.481C609.982 163.221 610.016 162.935 610.016 162.623V162.168H609.99C609.765 162.471 609.475 162.705 609.119 162.87C608.773 163.026 608.383 163.104 607.949 163.104C607.481 163.104 607.057 163.017 606.675 162.844C606.294 162.671 605.969 162.437 605.7 162.142C605.44 161.847 605.237 161.505 605.089 161.115C604.942 160.716 604.868 160.296 604.868 159.854C604.868 159.403 604.938 158.979 605.076 158.58C605.224 158.181 605.427 157.835 605.687 157.54C605.956 157.245 606.277 157.011 606.649 156.838C607.031 156.665 607.455 156.578 607.923 156.578C608.365 156.578 608.777 156.669 609.158 156.851C609.54 157.033 609.843 157.315 610.068 157.696H610.094V156.76H611.576ZM608.248 157.852C607.962 157.852 607.707 157.904 607.481 158.008C607.265 158.112 607.078 158.255 606.922 158.437C606.775 158.61 606.658 158.818 606.571 159.061C606.493 159.304 606.454 159.564 606.454 159.841C606.454 160.092 606.493 160.335 606.571 160.569C606.658 160.803 606.775 161.015 606.922 161.206C607.078 161.388 607.265 161.535 607.481 161.648C607.707 161.761 607.958 161.817 608.235 161.817C608.521 161.817 608.777 161.765 609.002 161.661C609.236 161.548 609.431 161.401 609.587 161.219C609.752 161.037 609.878 160.829 609.964 160.595C610.051 160.352 610.094 160.101 610.094 159.841C610.094 159.572 610.051 159.317 609.964 159.074C609.878 158.831 609.752 158.619 609.587 158.437C609.431 158.255 609.241 158.112 609.015 158.008C608.79 157.904 608.534 157.852 608.248 157.852ZM613.082 159.854C613.082 159.36 613.169 158.914 613.342 158.515C613.524 158.108 613.767 157.761 614.07 157.475C614.374 157.189 614.733 156.968 615.149 156.812C615.565 156.656 616.007 156.578 616.475 156.578C616.943 156.578 617.385 156.656 617.801 156.812C618.217 156.968 618.577 157.189 618.88 157.475C619.184 157.761 619.422 158.108 619.595 158.515C619.777 158.914 619.868 159.36 619.868 159.854C619.868 160.348 619.777 160.799 619.595 161.206C619.422 161.613 619.184 161.964 618.88 162.259C618.577 162.545 618.217 162.77 617.801 162.935C617.385 163.1 616.943 163.182 616.475 163.182C616.007 163.182 615.565 163.1 615.149 162.935C614.733 162.77 614.374 162.545 614.07 162.259C613.767 161.964 613.524 161.613 613.342 161.206C613.169 160.799 613.082 160.348 613.082 159.854ZM614.668 159.854C614.668 160.097 614.703 160.339 614.772 160.582C614.85 160.825 614.963 161.041 615.11 161.232C615.258 161.423 615.444 161.579 615.669 161.7C615.895 161.821 616.163 161.882 616.475 161.882C616.787 161.882 617.056 161.821 617.281 161.7C617.507 161.579 617.693 161.423 617.84 161.232C617.988 161.041 618.096 160.825 618.165 160.582C618.243 160.339 618.282 160.097 618.282 159.854C618.282 159.611 618.243 159.373 618.165 159.139C618.096 158.896 617.988 158.68 617.84 158.489C617.693 158.298 617.507 158.147 617.281 158.034C617.056 157.913 616.787 157.852 616.475 157.852C616.163 157.852 615.895 157.913 615.669 158.034C615.444 158.147 615.258 158.298 615.11 158.489C614.963 158.68 614.85 158.896 614.772 159.139C614.703 159.373 614.668 159.611 614.668 159.854ZM625.255 162.207H625.216C625.06 162.484 624.808 162.714 624.462 162.896C624.115 163.069 623.721 163.156 623.279 163.156C623.027 163.156 622.763 163.121 622.486 163.052C622.217 162.991 621.966 162.887 621.732 162.74C621.506 162.584 621.316 162.385 621.16 162.142C621.012 161.891 620.939 161.583 620.939 161.219C620.939 160.751 621.069 160.378 621.329 160.101C621.597 159.824 621.94 159.611 622.356 159.464C622.772 159.317 623.231 159.221 623.734 159.178C624.245 159.126 624.743 159.1 625.229 159.1V158.944C625.229 158.554 625.086 158.268 624.8 158.086C624.522 157.895 624.189 157.8 623.799 157.8C623.469 157.8 623.153 157.869 622.85 158.008C622.546 158.147 622.295 158.316 622.096 158.515L621.29 157.566C621.645 157.237 622.052 156.99 622.512 156.825C622.98 156.66 623.452 156.578 623.929 156.578C624.483 156.578 624.938 156.656 625.294 156.812C625.658 156.968 625.944 157.172 626.152 157.423C626.36 157.674 626.503 157.956 626.581 158.268C626.667 158.58 626.711 158.892 626.711 159.204V163H625.255V162.207ZM625.229 160.153H624.878C624.626 160.153 624.362 160.166 624.085 160.192C623.807 160.209 623.552 160.257 623.318 160.335C623.084 160.404 622.889 160.508 622.733 160.647C622.577 160.777 622.499 160.959 622.499 161.193C622.499 161.34 622.529 161.466 622.59 161.57C622.659 161.665 622.746 161.743 622.85 161.804C622.954 161.865 623.071 161.908 623.201 161.934C623.331 161.96 623.461 161.973 623.591 161.973C624.128 161.973 624.535 161.83 624.813 161.544C625.09 161.258 625.229 160.868 625.229 160.374V160.153ZM628.554 153.172H630.114V163H628.554V153.172Z" fill="#30CD9A"/>
<path d="M585.681 264.32C585.681 265.187 585.528 265.94 585.221 266.58C584.914 267.207 584.501 267.727 583.981 268.14C583.474 268.553 582.894 268.86 582.241 269.06C581.588 269.273 580.914 269.38 580.221 269.38C579.581 269.38 578.968 269.293 578.381 269.12C577.808 268.96 577.281 268.727 576.801 268.42C576.334 268.113 575.928 267.74 575.581 267.3C575.248 266.847 575.001 266.34 574.841 265.78L577.901 264.84C578.048 265.333 578.321 265.74 578.721 266.06C579.134 266.38 579.621 266.54 580.181 266.54C580.754 266.54 581.248 266.367 581.661 266.02C582.088 265.673 582.301 265.16 582.301 264.48C582.301 264.067 582.214 263.72 582.041 263.44C581.868 263.16 581.641 262.94 581.361 262.78C581.094 262.607 580.788 262.487 580.441 262.42C580.094 262.353 579.748 262.32 579.401 262.32C578.894 262.32 578.314 262.38 577.661 262.5C577.021 262.607 576.448 262.753 575.941 262.94L576.281 254.84H584.961V257.72H579.261L579.141 259.96C579.354 259.907 579.588 259.873 579.841 259.86C580.108 259.833 580.348 259.82 580.561 259.82C581.268 259.82 581.934 259.913 582.561 260.1C583.188 260.287 583.728 260.573 584.181 260.96C584.648 261.333 585.014 261.8 585.281 262.36C585.548 262.92 585.681 263.573 585.681 264.32ZM599.011 259.52C599.011 260.36 598.864 261.127 598.571 261.82C598.277 262.5 597.897 263.193 597.431 263.9L594.011 269H589.951L593.471 264.12L593.511 264.06C593.364 264.113 593.197 264.153 593.011 264.18C592.837 264.207 592.671 264.22 592.511 264.22C591.884 264.22 591.291 264.113 590.731 263.9C590.171 263.673 589.677 263.36 589.251 262.96C588.824 262.547 588.484 262.06 588.231 261.5C587.977 260.927 587.851 260.293 587.851 259.6C587.851 258.8 587.997 258.08 588.291 257.44C588.584 256.8 588.984 256.26 589.491 255.82C589.997 255.38 590.591 255.047 591.271 254.82C591.951 254.58 592.671 254.46 593.431 254.46C594.204 254.46 594.931 254.58 595.611 254.82C596.291 255.047 596.877 255.38 597.371 255.82C597.877 256.26 598.277 256.793 598.571 257.42C598.864 258.047 599.011 258.747 599.011 259.52ZM595.651 259.48C595.651 258.867 595.451 258.34 595.051 257.9C594.664 257.447 594.131 257.22 593.451 257.22C592.771 257.22 592.224 257.433 591.811 257.86C591.411 258.273 591.211 258.82 591.211 259.5C591.211 260.14 591.411 260.673 591.811 261.1C592.211 261.513 592.744 261.72 593.411 261.72C594.077 261.72 594.617 261.513 595.031 261.1C595.444 260.687 595.651 260.147 595.651 259.48ZM616.88 269H612.82L609.56 264.22H609.5V269H606.2V253.88H609.5V263.08H609.56L612.74 259.04H616.72L612.88 263.54L616.88 269ZM628.635 268.06C628.635 269.033 628.495 269.88 628.215 270.6C627.935 271.32 627.542 271.913 627.035 272.38C626.528 272.86 625.908 273.213 625.175 273.44C624.455 273.68 623.655 273.8 622.775 273.8C621.895 273.8 620.988 273.667 620.055 273.4C619.135 273.133 618.335 272.747 617.655 272.24L619.295 269.9C619.775 270.327 620.302 270.64 620.875 270.84C621.462 271.053 622.035 271.16 622.595 271.16C623.555 271.16 624.262 270.907 624.715 270.4C625.182 269.893 625.415 269.22 625.415 268.38V267.78H625.355C625.048 268.18 624.635 268.5 624.115 268.74C623.595 268.98 623.002 269.1 622.335 269.1C621.575 269.1 620.902 268.967 620.315 268.7C619.728 268.42 619.228 268.047 618.815 267.58C618.415 267.113 618.108 266.573 617.895 265.96C617.682 265.333 617.575 264.673 617.575 263.98C617.575 263.287 617.682 262.627 617.895 262C618.108 261.373 618.415 260.82 618.815 260.34C619.228 259.86 619.728 259.48 620.315 259.2C620.902 258.907 621.568 258.76 622.315 258.76C622.942 258.76 623.542 258.887 624.115 259.14C624.688 259.393 625.148 259.787 625.495 260.32H625.535V259.04H628.635V268.06ZM625.515 263.96C625.515 263.627 625.455 263.307 625.335 263C625.228 262.693 625.068 262.427 624.855 262.2C624.642 261.96 624.388 261.773 624.095 261.64C623.802 261.507 623.468 261.44 623.095 261.44C622.722 261.44 622.388 261.507 622.095 261.64C621.815 261.773 621.575 261.953 621.375 262.18C621.175 262.407 621.022 262.673 620.915 262.98C620.808 263.287 620.755 263.613 620.755 263.96C620.755 264.293 620.808 264.613 620.915 264.92C621.022 265.227 621.175 265.5 621.375 265.74C621.575 265.967 621.815 266.153 622.095 266.3C622.388 266.433 622.722 266.5 623.095 266.5C623.468 266.5 623.802 266.433 624.095 266.3C624.402 266.153 624.655 265.967 624.855 265.74C625.068 265.513 625.228 265.247 625.335 264.94C625.455 264.633 625.515 264.307 625.515 263.96Z" fill="#30CD9A"/>
<path d="M395.991 163H395.055V153.796H395.991V163ZM399.173 156.916C399.19 157.081 399.203 157.263 399.212 157.462C399.221 157.661 399.225 157.826 399.225 157.956H399.251C399.424 157.601 399.706 157.315 400.096 157.098C400.486 156.873 400.898 156.76 401.331 156.76C402.102 156.76 402.679 156.99 403.06 157.449C403.45 157.908 403.645 158.515 403.645 159.269V163H402.761V159.633C402.761 159.312 402.735 159.022 402.683 158.762C402.631 158.502 402.54 158.281 402.41 158.099C402.289 157.908 402.12 157.761 401.903 157.657C401.695 157.553 401.431 157.501 401.11 157.501C400.876 157.501 400.646 157.549 400.421 157.644C400.204 157.739 400.009 157.887 399.836 158.086C399.663 158.277 399.524 158.524 399.42 158.827C399.316 159.122 399.264 159.473 399.264 159.88V163H398.38V158.255C398.38 158.09 398.376 157.878 398.367 157.618C398.358 157.358 398.345 157.124 398.328 156.916H399.173ZM406.831 163H405.947V156.916H406.831V163ZM407.013 154.576C407.013 154.758 406.948 154.91 406.818 155.031C406.688 155.144 406.545 155.2 406.389 155.2C406.233 155.2 406.09 155.144 405.96 155.031C405.83 154.91 405.765 154.758 405.765 154.576C405.765 154.394 405.83 154.247 405.96 154.134C406.09 154.013 406.233 153.952 406.389 153.952C406.545 153.952 406.688 154.013 406.818 154.134C406.948 154.247 407.013 154.394 407.013 154.576ZM411.927 157.657H410.211V161.206C410.211 161.431 410.232 161.618 410.276 161.765C410.319 161.912 410.38 162.029 410.458 162.116C410.544 162.194 410.644 162.25 410.757 162.285C410.869 162.311 410.991 162.324 411.121 162.324C411.242 162.324 411.368 162.307 411.498 162.272C411.636 162.237 411.766 162.19 411.888 162.129L411.927 162.896C411.771 162.957 411.606 163 411.433 163.026C411.268 163.061 411.086 163.078 410.887 163.078C410.722 163.078 410.549 163.056 410.367 163.013C410.185 162.97 410.016 162.887 409.86 162.766C409.704 162.645 409.574 162.48 409.47 162.272C409.374 162.064 409.327 161.791 409.327 161.453V157.657H408.066V156.916H409.327V155.2H410.211V156.916H411.927V157.657ZM414.207 163H413.323V156.916H414.207V163ZM414.389 154.576C414.389 154.758 414.324 154.91 414.194 155.031C414.064 155.144 413.921 155.2 413.765 155.2C413.609 155.2 413.466 155.144 413.336 155.031C413.206 154.91 413.141 154.758 413.141 154.576C413.141 154.394 413.206 154.247 413.336 154.134C413.466 154.013 413.609 153.952 413.765 153.952C413.921 153.952 414.064 154.013 414.194 154.134C414.324 154.247 414.389 154.394 414.389 154.576ZM420.395 159.074C420.395 158.545 420.256 158.151 419.979 157.891C419.701 157.631 419.298 157.501 418.77 157.501C418.406 157.501 418.068 157.566 417.756 157.696C417.444 157.826 417.179 157.999 416.963 158.216L416.469 157.631C416.72 157.38 417.049 157.172 417.457 157.007C417.873 156.842 418.341 156.76 418.861 156.76C419.19 156.76 419.498 156.808 419.784 156.903C420.07 156.99 420.321 157.124 420.538 157.306C420.754 157.488 420.923 157.718 421.045 157.995C421.166 158.272 421.227 158.597 421.227 158.97V161.635C421.227 161.869 421.235 162.112 421.253 162.363C421.27 162.614 421.296 162.827 421.331 163H420.538C420.512 162.853 420.49 162.692 420.473 162.519C420.455 162.346 420.447 162.177 420.447 162.012H420.421C420.143 162.419 419.827 162.714 419.472 162.896C419.125 163.069 418.705 163.156 418.211 163.156C417.977 163.156 417.734 163.121 417.483 163.052C417.24 162.991 417.015 162.887 416.807 162.74C416.607 162.593 416.438 162.402 416.3 162.168C416.17 161.934 416.105 161.648 416.105 161.31C416.105 160.842 416.222 160.474 416.456 160.205C416.698 159.928 417.019 159.724 417.418 159.594C417.816 159.455 418.271 159.369 418.783 159.334C419.303 159.291 419.84 159.269 420.395 159.269V159.074ZM420.135 159.958C419.771 159.958 419.402 159.975 419.03 160.01C418.666 160.036 418.332 160.097 418.029 160.192C417.734 160.279 417.491 160.409 417.301 160.582C417.11 160.755 417.015 160.985 417.015 161.271C417.015 161.488 417.054 161.67 417.132 161.817C417.218 161.964 417.331 162.086 417.47 162.181C417.608 162.268 417.76 162.333 417.925 162.376C418.098 162.411 418.271 162.428 418.445 162.428C418.757 162.428 419.034 162.376 419.277 162.272C419.519 162.159 419.723 162.012 419.888 161.83C420.052 161.639 420.178 161.423 420.265 161.18C420.351 160.937 420.395 160.682 420.395 160.413V159.958H420.135ZM424.414 163H423.53V153.172H424.414V163ZM430.146 156.916L431.615 161.856H431.641L433.279 156.916H434.137L435.801 161.856H435.827L437.283 156.916H438.219L436.295 163H435.333L433.708 158.073H433.682L432.083 163H431.121L429.197 156.916H430.146ZM444.37 159.49C444.344 158.918 444.157 158.446 443.811 158.073C443.473 157.692 442.987 157.501 442.355 157.501C442.06 157.501 441.787 157.557 441.536 157.67C441.284 157.774 441.063 157.921 440.873 158.112C440.682 158.294 440.53 158.506 440.418 158.749C440.305 158.983 440.24 159.23 440.223 159.49H444.37ZM445.267 159.776C445.267 159.837 445.267 159.902 445.267 159.971C445.267 160.04 445.262 160.114 445.254 160.192H440.21C440.218 160.495 440.279 160.781 440.392 161.05C440.504 161.319 440.66 161.553 440.86 161.752C441.059 161.951 441.293 162.112 441.562 162.233C441.83 162.346 442.121 162.402 442.433 162.402C442.892 162.402 443.286 162.298 443.616 162.09C443.954 161.873 444.209 161.626 444.383 161.349L445.046 161.869C444.682 162.328 444.279 162.658 443.837 162.857C443.403 163.056 442.935 163.156 442.433 163.156C441.982 163.156 441.562 163.078 441.172 162.922C440.79 162.757 440.461 162.532 440.184 162.246C439.906 161.96 439.685 161.622 439.521 161.232C439.365 160.842 439.287 160.417 439.287 159.958C439.287 159.499 439.365 159.074 439.521 158.684C439.677 158.294 439.893 157.956 440.171 157.67C440.448 157.384 440.773 157.163 441.146 157.007C441.518 156.842 441.921 156.76 442.355 156.76C442.831 156.76 443.252 156.842 443.616 157.007C443.98 157.163 444.283 157.38 444.526 157.657C444.768 157.926 444.95 158.242 445.072 158.606C445.202 158.97 445.267 159.36 445.267 159.776ZM448.065 163H447.181V156.916H448.065V163ZM448.247 154.576C448.247 154.758 448.182 154.91 448.052 155.031C447.922 155.144 447.779 155.2 447.623 155.2C447.467 155.2 447.324 155.144 447.194 155.031C447.064 154.91 446.999 154.758 446.999 154.576C446.999 154.394 447.064 154.247 447.194 154.134C447.324 154.013 447.467 153.952 447.623 153.952C447.779 153.952 447.922 154.013 448.052 154.134C448.182 154.247 448.247 154.394 448.247 154.576ZM450.743 164.222C450.986 164.534 451.315 164.798 451.731 165.015C452.156 165.232 452.602 165.34 453.07 165.34C453.503 165.34 453.872 165.275 454.175 165.145C454.478 165.024 454.721 164.855 454.903 164.638C455.094 164.421 455.232 164.166 455.319 163.871C455.406 163.585 455.449 163.277 455.449 162.948V161.804H455.423C455.189 162.185 454.855 162.48 454.422 162.688C453.997 162.896 453.564 163 453.122 163C452.645 163 452.212 162.922 451.822 162.766C451.441 162.61 451.111 162.398 450.834 162.129C450.565 161.852 450.353 161.522 450.197 161.141C450.05 160.76 449.976 160.348 449.976 159.906C449.976 159.473 450.05 159.065 450.197 158.684C450.353 158.303 450.565 157.969 450.834 157.683C451.111 157.397 451.441 157.172 451.822 157.007C452.212 156.842 452.645 156.76 453.122 156.76C453.564 156.76 453.997 156.864 454.422 157.072C454.847 157.28 455.18 157.579 455.423 157.969H455.449V156.916H456.333V162.948C456.333 163.277 456.285 163.628 456.19 164.001C456.103 164.374 455.934 164.716 455.683 165.028C455.44 165.34 455.107 165.6 454.682 165.808C454.257 166.016 453.707 166.12 453.031 166.12C452.468 166.12 451.93 166.012 451.419 165.795C450.908 165.578 450.47 165.279 450.106 164.898L450.743 164.222ZM450.912 159.88C450.912 160.201 450.964 160.504 451.068 160.79C451.172 161.076 451.319 161.327 451.51 161.544C451.709 161.761 451.952 161.934 452.238 162.064C452.524 162.185 452.849 162.246 453.213 162.246C453.551 162.246 453.863 162.19 454.149 162.077C454.435 161.964 454.682 161.804 454.89 161.596C455.098 161.388 455.258 161.141 455.371 160.855C455.492 160.56 455.553 160.235 455.553 159.88C455.553 159.559 455.492 159.256 455.371 158.97C455.258 158.684 455.098 158.433 454.89 158.216C454.682 157.999 454.435 157.826 454.149 157.696C453.863 157.566 453.551 157.501 453.213 157.501C452.849 157.501 452.524 157.566 452.238 157.696C451.952 157.826 451.709 157.999 451.51 158.216C451.319 158.433 451.172 158.684 451.068 158.97C450.964 159.256 450.912 159.559 450.912 159.88ZM459.568 157.917C459.733 157.562 460.006 157.28 460.387 157.072C460.768 156.864 461.176 156.76 461.609 156.76C462.38 156.76 462.957 156.99 463.338 157.449C463.728 157.908 463.923 158.515 463.923 159.269V163H463.039V159.633C463.039 159.312 463.013 159.022 462.961 158.762C462.909 158.502 462.818 158.281 462.688 158.099C462.567 157.908 462.398 157.761 462.181 157.657C461.973 157.553 461.709 157.501 461.388 157.501C461.154 157.501 460.924 157.549 460.699 157.644C460.482 157.739 460.287 157.887 460.114 158.086C459.941 158.277 459.802 158.524 459.698 158.827C459.594 159.122 459.542 159.473 459.542 159.88V163H458.658V153.172H459.542V157.917H459.568ZM468.954 157.657H467.238V161.206C467.238 161.431 467.26 161.618 467.303 161.765C467.346 161.912 467.407 162.029 467.485 162.116C467.572 162.194 467.671 162.25 467.784 162.285C467.897 162.311 468.018 162.324 468.148 162.324C468.269 162.324 468.395 162.307 468.525 162.272C468.664 162.237 468.794 162.19 468.915 162.129L468.954 162.896C468.798 162.957 468.633 163 468.46 163.026C468.295 163.061 468.113 163.078 467.914 163.078C467.749 163.078 467.576 163.056 467.394 163.013C467.212 162.97 467.043 162.887 466.887 162.766C466.731 162.645 466.601 162.48 466.497 162.272C466.402 162.064 466.354 161.791 466.354 161.453V157.657H465.093V156.916H466.354V155.2H467.238V156.916H468.954V157.657Z" fill="#999999"/>
<path d="M414.967 207.796H421.22V209.226L417.541 217H415.708L419.582 209.2H414.967V207.796ZM426.763 215.089H422.512V213.711L426.425 207.796H428.297V213.75H429.584V215.089H428.297V217H426.763V215.089ZM426.763 209.629H426.737L424.124 213.75H426.763V209.629ZM434.385 207.172H435.945V213.386H435.984L438.35 210.76H440.352L437.648 213.581L440.521 217H438.454L435.984 213.802H435.945V217H434.385V207.172ZM447.762 210.76V216.441C447.762 217.004 447.693 217.511 447.554 217.962C447.415 218.421 447.199 218.807 446.904 219.119C446.618 219.44 446.254 219.687 445.812 219.86C445.37 220.033 444.846 220.12 444.239 220.12C443.988 220.12 443.719 220.098 443.433 220.055C443.156 220.012 442.878 219.947 442.601 219.86C442.332 219.773 442.072 219.665 441.821 219.535C441.57 219.405 441.344 219.258 441.145 219.093L442.042 217.884C442.345 218.17 442.688 218.387 443.069 218.534C443.45 218.69 443.836 218.768 444.226 218.768C444.599 218.768 444.911 218.712 445.162 218.599C445.422 218.495 445.626 218.348 445.773 218.157C445.929 217.966 446.037 217.741 446.098 217.481C446.167 217.221 446.202 216.935 446.202 216.623V216.168H446.176C445.951 216.471 445.66 216.705 445.305 216.87C444.958 217.026 444.568 217.104 444.135 217.104C443.667 217.104 443.242 217.017 442.861 216.844C442.48 216.671 442.155 216.437 441.886 216.142C441.626 215.847 441.422 215.505 441.275 215.115C441.128 214.716 441.054 214.296 441.054 213.854C441.054 213.403 441.123 212.979 441.262 212.58C441.409 212.181 441.613 211.835 441.873 211.54C442.142 211.245 442.462 211.011 442.835 210.838C443.216 210.665 443.641 210.578 444.109 210.578C444.551 210.578 444.963 210.669 445.344 210.851C445.725 211.033 446.029 211.315 446.254 211.696H446.28V210.76H447.762ZM444.434 211.852C444.148 211.852 443.892 211.904 443.667 212.008C443.45 212.112 443.264 212.255 443.108 212.437C442.961 212.61 442.844 212.818 442.757 213.061C442.679 213.304 442.64 213.564 442.64 213.841C442.64 214.092 442.679 214.335 442.757 214.569C442.844 214.803 442.961 215.015 443.108 215.206C443.264 215.388 443.45 215.535 443.667 215.648C443.892 215.761 444.144 215.817 444.421 215.817C444.707 215.817 444.963 215.765 445.188 215.661C445.422 215.548 445.617 215.401 445.773 215.219C445.938 215.037 446.063 214.829 446.15 214.595C446.237 214.352 446.28 214.101 446.28 213.841C446.28 213.572 446.237 213.317 446.15 213.074C446.063 212.831 445.938 212.619 445.773 212.437C445.617 212.255 445.426 212.112 445.201 212.008C444.976 211.904 444.72 211.852 444.434 211.852Z" fill="black"/>
<defs>
<linearGradient id="paint0_linear" x1="0" y1="547.851" x2="1024" y2="547.851" gradientUnits="userSpaceOnUse">
<stop stop-color="#F07A33"/>
<stop offset="0.417177" stop-color="#E0C72A"/>
<stop offset="1" stop-color="#0AC186"/>
</linearGradient>
<linearGradient id="paint1_linear" x1="310.836" y1="251.631" x2="526.395" y2="366.28" gradientUnits="userSpaceOnUse">
<stop stop-color="#F07A33"/>
<stop offset="0.529587" stop-color="#E0C72A"/>
<stop offset="1" stop-color="#30CD9A"/>
</linearGradient>
<linearGradient id="paint2_linear" x1="325" y1="814.5" x2="700" y2="814.5" gradientUnits="userSpaceOnUse">
<stop stop-color="#F07A33"/>
<stop offset="0.417177" stop-color="#E0C72A"/>
<stop offset="1" stop-color="#0AC186"/>
</linearGradient>
</defs>
</svg>
