<?xml version="1.0" encoding="utf-8"?>
<!-- Generator: Adobe Illustrator 17.1.0, SVG Export Plug-In . SVG Version: 6.00 Build 0)  -->
<!DOCTYPE svg PUBLIC "-//W3C//DTD SVG 1.1//EN" "http://www.w3.org/Graphics/SVG/1.1/DTD/svg11.dtd">
<svg version="1.1" id="Layer_1" xmlns="http://www.w3.org/2000/svg" xmlns:xlink="http://www.w3.org/1999/xlink" x="0px" y="0px"
	 viewBox="0 54 327 148" enable-background="new 0 54 327 148" xml:space="preserve">
<path fill="#F5F7FA" d="M16,54h295c8.8,0,16,7.2,16,16v116c0,8.8-7.2,16-16,16H16c-8.8,0-16-7.2-16-16V70C0,61.2,7.2,54,16,54z"/>
<defs>
	<filter id="Adobe_OpacityMaskFilter" filterUnits="userSpaceOnUse">
		<feColorMatrix  type="matrix" values="1 0 0 0 0  0 1 0 0 0  0 0 1 0 0  0 0 0 1 0"/>
	</filter>
</defs>
<mask maskUnits="userSpaceOnUse" id="mask0">
	<path fill="#FFFFFF" filter="url(#Adobe_OpacityMaskFilter)" d="M16,54h295c8.8,0,16,7.2,16,16v116c0,8.8-7.2,16-16,16H16
		c-8.8,0-16-7.2-16-16V70C0,61.2,7.2,54,16,54z"/>
</mask>
<g mask="url(#mask0)">
</g>
<path fill="#FFFFFF" stroke="#DDDEE2" stroke-width="0.5" d="M49,78.3h50c13.7,0,24.8,11.1,24.8,24.8v50c0,13.7-11.1,24.8-24.8,24.8
	H49c-13.7,0-24.8-11.1-24.8-24.8v-50C24.3,89.3,35.3,78.3,49,78.3z"/>
<path fill="#09A55D" d="M86.4,123H58.9v26.8c0,1.6,2,2.4,3.1,1.3l25.6-25C88.8,125,88,123,86.4,123z"/>
<path fill="#067B45" d="M58.9,139.8L80.4,123h-6.3L58.9,139.8z"/>
<path fill="#30CD9A" d="M92.2,103.8H62.7c-2.1,0-3.8,1.7-3.8,3.7v32.2l34.4-33.4C94.3,105.5,93.6,103.8,92.2,103.8z"/>
<path d="M145.3,91h7.8v1.9h-5.6v3.3h5.3v1.8h-5.3v5.1h-2.1V91z M154.7,94.8h2v8.2h-2V94.8z M154.4,92.1c0-0.3,0.1-0.6,0.4-0.8
	c0.3-0.2,0.6-0.4,0.9-0.4c0.4,0,0.7,0.1,0.9,0.4c0.3,0.2,0.4,0.5,0.4,0.9s-0.1,0.6-0.4,0.9c-0.2,0.2-0.6,0.3-0.9,0.3
	c-0.4,0-0.7-0.1-0.9-0.4C154.5,92.7,154.4,92.4,154.4,92.1z M158,96.5v-1.6h1.4v-2.4h2v2.4h2v1.6h-2v3.8c0,0.4,0.1,0.7,0.2,0.9
	c0.1,0.2,0.4,0.4,0.9,0.4c0.1,0,0.3,0,0.4,0c0.2,0,0.3-0.1,0.4-0.1l0.1,1.6c-0.2,0.1-0.4,0.1-0.6,0.2c-0.2,0-0.5,0.1-0.7,0.1
	c-0.5,0-1-0.1-1.3-0.2c-0.3-0.2-0.6-0.4-0.8-0.6c-0.2-0.3-0.3-0.6-0.4-0.9c-0.1-0.4-0.1-0.7-0.1-1.1v-3.8H158z M165,94.8h1.9v1.3h0
	c0.2-0.4,0.5-0.8,0.9-1.1c0.5-0.3,1-0.5,1.6-0.5c0.5,0,1,0.1,1.4,0.3c0.4,0.2,0.7,0.4,0.9,0.7c0.3,0.3,0.4,0.7,0.5,1.1
	c0.1,0.4,0.2,0.8,0.2,1.2v5.1h-2v-4.5c0-0.2,0-0.5-0.1-0.7c0-0.3-0.1-0.5-0.2-0.7c-0.1-0.2-0.3-0.4-0.5-0.5
	c-0.2-0.1-0.5-0.2-0.8-0.2c-0.3,0-0.6,0.1-0.9,0.2c-0.2,0.1-0.4,0.3-0.6,0.5c-0.1,0.2-0.3,0.4-0.3,0.7c-0.1,0.3-0.1,0.5-0.1,0.8v4.5
	h-2V94.8z M180.6,98.1c0-0.3,0-0.5-0.1-0.7c-0.1-0.2-0.2-0.4-0.3-0.6c-0.2-0.2-0.4-0.3-0.6-0.4c-0.2-0.1-0.5-0.2-0.8-0.2
	c-0.6,0-1.1,0.2-1.6,0.6c-0.4,0.4-0.7,0.8-0.7,1.4H180.6z M182.7,99c0,0.1,0,0.2,0,0.3s0,0.2,0,0.3h-6.2c0,0.3,0.1,0.6,0.2,0.8
	c0.1,0.2,0.3,0.4,0.5,0.6c0.2,0.2,0.5,0.3,0.7,0.4c0.3,0.1,0.6,0.2,0.8,0.2c0.5,0,0.9-0.1,1.3-0.3c0.4-0.2,0.6-0.5,0.9-0.8l1.4,1.1
	c-0.8,1.1-2,1.6-3.5,1.6c-0.6,0-1.2-0.1-1.8-0.3c-0.5-0.2-1-0.5-1.4-0.8c-0.4-0.4-0.7-0.8-0.9-1.3c-0.2-0.5-0.3-1.1-0.3-1.8
	c0-0.7,0.1-1.3,0.3-1.8c0.2-0.5,0.5-1,0.9-1.4c0.4-0.4,0.8-0.7,1.4-0.9c0.5-0.2,1.1-0.3,1.7-0.3c0.6,0,1.1,0.1,1.6,0.3
	c0.5,0.2,0.9,0.5,1.3,0.8c0.4,0.4,0.6,0.8,0.8,1.4C182.6,97.6,182.7,98.3,182.7,99z M189.1,97c-0.2-0.2-0.4-0.4-0.7-0.6
	c-0.3-0.2-0.7-0.3-1-0.3c-0.3,0-0.6,0.1-0.9,0.2S186,96.7,186,97s0.1,0.5,0.4,0.7c0.3,0.1,0.7,0.3,1.3,0.4c0.3,0.1,0.6,0.2,0.9,0.3
	c0.3,0.1,0.6,0.3,0.8,0.5c0.3,0.2,0.5,0.4,0.6,0.7c0.2,0.3,0.2,0.6,0.2,1c0,0.5-0.1,0.9-0.3,1.3c-0.2,0.3-0.4,0.6-0.7,0.8
	c-0.3,0.2-0.7,0.4-1.1,0.5c-0.4,0.1-0.8,0.2-1.3,0.2c-0.6,0-1.3-0.1-1.9-0.3c-0.6-0.2-1.1-0.6-1.5-1l1.3-1.3
	c0.2,0.3,0.5,0.5,0.9,0.7c0.4,0.2,0.8,0.3,1.2,0.3c0.1,0,0.3,0,0.4-0.1c0.2,0,0.3-0.1,0.4-0.2c0.1-0.1,0.2-0.2,0.3-0.3
	c0.1-0.1,0.1-0.3,0.1-0.5c0-0.3-0.2-0.6-0.5-0.7c-0.3-0.1-0.8-0.3-1.4-0.4c-0.3-0.1-0.6-0.2-0.9-0.3c-0.3-0.1-0.5-0.3-0.8-0.4
	c-0.2-0.2-0.4-0.4-0.5-0.7c-0.1-0.3-0.2-0.6-0.2-1c0-0.5,0.1-0.8,0.3-1.2c0.2-0.3,0.4-0.6,0.7-0.8c0.3-0.2,0.7-0.4,1-0.5
	c0.4-0.1,0.8-0.2,1.2-0.2c0.6,0,1.2,0.1,1.7,0.3c0.6,0.2,1,0.5,1.3,0.9L189.1,97z M196.7,97c-0.2-0.2-0.4-0.4-0.7-0.6
	c-0.3-0.2-0.7-0.3-1-0.3c-0.3,0-0.6,0.1-0.9,0.2s-0.4,0.4-0.4,0.7s0.1,0.5,0.4,0.7c0.3,0.1,0.7,0.3,1.3,0.4c0.3,0.1,0.6,0.2,0.9,0.3
	c0.3,0.1,0.6,0.3,0.9,0.5c0.3,0.2,0.5,0.4,0.6,0.7c0.2,0.3,0.2,0.6,0.2,1c0,0.5-0.1,0.9-0.3,1.3c-0.2,0.3-0.4,0.6-0.7,0.8
	c-0.3,0.2-0.7,0.4-1.1,0.5c-0.4,0.1-0.8,0.2-1.3,0.2c-0.6,0-1.3-0.1-1.9-0.3c-0.6-0.2-1.1-0.6-1.5-1l1.3-1.3
	c0.2,0.3,0.5,0.5,0.9,0.7c0.4,0.2,0.8,0.3,1.2,0.3c0.1,0,0.3,0,0.4-0.1c0.2,0,0.3-0.1,0.4-0.2c0.1-0.1,0.2-0.2,0.3-0.3
	c0.1-0.1,0.1-0.3,0.1-0.5c0-0.3-0.2-0.6-0.5-0.7c-0.3-0.1-0.8-0.3-1.4-0.4c-0.3-0.1-0.6-0.2-0.9-0.3c-0.3-0.1-0.5-0.3-0.8-0.4
	c-0.2-0.2-0.4-0.4-0.5-0.7c-0.1-0.3-0.2-0.6-0.2-1c0-0.5,0.1-0.8,0.3-1.2c0.2-0.3,0.4-0.6,0.7-0.8c0.3-0.2,0.7-0.4,1-0.5
	c0.4-0.1,0.8-0.2,1.2-0.2c0.6,0,1.2,0.1,1.7,0.3c0.6,0.2,1,0.5,1.3,0.9L196.7,97z M206.1,90.1v5.7h0.1c0.1-0.1,0.2-0.3,0.4-0.4
	c0.2-0.1,0.3-0.3,0.6-0.4c0.2-0.1,0.5-0.2,0.8-0.3c0.3-0.1,0.6-0.1,1-0.1c0.6,0,1.1,0.1,1.6,0.3c0.5,0.2,0.9,0.5,1.3,0.9
	s0.6,0.8,0.8,1.4c0.2,0.5,0.3,1.1,0.3,1.7s-0.1,1.2-0.3,1.7c-0.2,0.5-0.4,1-0.8,1.4c-0.3,0.4-0.8,0.7-1.3,0.9
	c-0.5,0.2-1,0.3-1.7,0.3c-0.6,0-1.1-0.1-1.6-0.4c-0.5-0.2-0.9-0.6-1.2-1.1h0v1.2H204V90.1H206.1z M210.8,98.9c0-0.3-0.1-0.6-0.2-0.9
	c-0.1-0.3-0.2-0.6-0.4-0.8c-0.2-0.2-0.4-0.4-0.7-0.6c-0.3-0.2-0.6-0.2-1-0.2c-0.4,0-0.7,0.1-1,0.2c-0.3,0.2-0.6,0.4-0.8,0.6
	c-0.2,0.2-0.4,0.5-0.5,0.9c-0.1,0.3-0.2,0.6-0.2,1s0.1,0.6,0.2,1c0.1,0.3,0.3,0.6,0.5,0.8c0.2,0.2,0.5,0.5,0.8,0.6
	c0.3,0.1,0.6,0.2,1,0.2c0.4,0,0.7-0.1,1-0.2c0.3-0.2,0.5-0.4,0.7-0.6c0.2-0.2,0.3-0.5,0.4-0.9C210.7,99.5,210.8,99.2,210.8,98.9z
	 M213.6,94.8h2.3l2.3,5.9h0l2-5.9h2.1l-3.9,9.9c-0.1,0.4-0.3,0.7-0.5,1c-0.2,0.3-0.4,0.5-0.6,0.7c-0.2,0.2-0.5,0.4-0.8,0.5
	c-0.3,0.1-0.7,0.2-1.2,0.2c-0.2,0-0.3,0-0.5,0c-0.2,0-0.3,0-0.5-0.1l0.2-1.8c0.1,0,0.3,0.1,0.4,0.1c0.1,0,0.3,0,0.4,0
	c0.2,0,0.4,0,0.5-0.1c0.1,0,0.3-0.1,0.4-0.2c0.1-0.1,0.2-0.2,0.3-0.4c0.1-0.2,0.2-0.3,0.3-0.6l0.4-1L213.6,94.8z M238.4,102.4
	c-0.6,0.3-1.3,0.5-2,0.7c-0.7,0.2-1.6,0.3-2.5,0.3c-1,0-1.9-0.2-2.7-0.5c-0.8-0.3-1.5-0.8-2.1-1.3c-0.6-0.6-1-1.2-1.4-2
	c-0.3-0.8-0.5-1.6-0.5-2.6c0-1,0.2-1.8,0.5-2.6c0.3-0.8,0.8-1.4,1.4-2c0.6-0.5,1.3-1,2.1-1.3s1.7-0.4,2.6-0.4c1,0,1.8,0.1,2.6,0.4
	c0.8,0.3,1.5,0.6,1.9,1.1l-1.5,1.6c-0.3-0.3-0.7-0.6-1.3-0.9c-0.5-0.2-1.1-0.4-1.8-0.4c-0.6,0-1.2,0.1-1.7,0.3
	c-0.5,0.2-0.9,0.5-1.3,0.9s-0.6,0.9-0.9,1.4c-0.2,0.5-0.3,1.1-0.3,1.7c0,0.6,0.1,1.2,0.3,1.8c0.2,0.5,0.5,1,0.9,1.4
	c0.4,0.4,0.8,0.7,1.3,0.9c0.5,0.2,1.1,0.3,1.8,0.3c0.9,0,1.7-0.1,2.4-0.4v-3.1h-2.5v-1.8h4.6V102.4z M246.7,98.1
	c0-0.3,0-0.5-0.1-0.7c-0.1-0.2-0.2-0.4-0.3-0.6c-0.2-0.2-0.4-0.3-0.6-0.4c-0.2-0.1-0.5-0.2-0.8-0.2c-0.6,0-1.1,0.2-1.6,0.6
	c-0.4,0.4-0.7,0.8-0.7,1.4H246.7z M248.7,99c0,0.1,0,0.2,0,0.3s0,0.2,0,0.3h-6.2c0,0.3,0.1,0.6,0.2,0.8c0.1,0.2,0.3,0.4,0.5,0.6
	c0.2,0.2,0.5,0.3,0.7,0.4c0.3,0.1,0.6,0.2,0.9,0.2c0.5,0,0.9-0.1,1.3-0.3c0.4-0.2,0.6-0.5,0.9-0.8l1.4,1.1c-0.8,1.1-2,1.6-3.5,1.6
	c-0.6,0-1.2-0.1-1.8-0.3c-0.5-0.2-1-0.5-1.4-0.8c-0.4-0.4-0.7-0.8-0.9-1.3c-0.2-0.5-0.3-1.1-0.3-1.8c0-0.7,0.1-1.3,0.3-1.8
	c0.2-0.5,0.5-1,0.9-1.4c0.4-0.4,0.8-0.7,1.4-0.9c0.5-0.2,1.1-0.3,1.7-0.3c0.6,0,1.1,0.1,1.6,0.3c0.5,0.2,0.9,0.5,1.3,0.8
	c0.4,0.4,0.6,0.8,0.8,1.4C248.6,97.6,248.7,98.3,248.7,99z M249.5,96.5v-1.6h1.4v-2.4h2v2.4h2v1.6h-2v3.8c0,0.4,0.1,0.7,0.2,0.9
	c0.1,0.2,0.4,0.4,0.9,0.4c0.1,0,0.3,0,0.4,0c0.2,0,0.3-0.1,0.4-0.1l0.1,1.6c-0.2,0.1-0.4,0.1-0.6,0.2c-0.2,0-0.5,0.1-0.7,0.1
	c-0.5,0-1-0.1-1.3-0.2c-0.3-0.2-0.6-0.4-0.8-0.6c-0.2-0.3-0.3-0.6-0.4-0.9c-0.1-0.4-0.1-0.7-0.1-1.1v-3.8H249.5z M256.6,91h7.8v1.9
	h-5.6v3.3h5.3v1.8h-5.3v5.1h-2.1V91z M265.9,94.8h2v8.2h-2V94.8z M265.6,92.1c0-0.3,0.1-0.6,0.4-0.8c0.2-0.2,0.6-0.4,0.9-0.4
	c0.4,0,0.7,0.1,0.9,0.4c0.3,0.2,0.4,0.5,0.4,0.9s-0.1,0.6-0.4,0.9c-0.3,0.2-0.6,0.3-0.9,0.3c-0.4,0-0.7-0.1-0.9-0.4
	C265.8,92.7,265.6,92.4,265.6,92.1z M269.3,96.5v-1.6h1.4v-2.4h2v2.4h2v1.6h-2v3.8c0,0.4,0.1,0.7,0.2,0.9c0.1,0.2,0.4,0.4,0.9,0.4
	c0.1,0,0.3,0,0.4,0c0.2,0,0.3-0.1,0.4-0.1l0.1,1.6c-0.2,0.1-0.4,0.1-0.6,0.2c-0.3,0-0.5,0.1-0.7,0.1c-0.5,0-1-0.1-1.3-0.2
	c-0.3-0.2-0.6-0.4-0.8-0.6c-0.2-0.3-0.3-0.6-0.4-0.9c-0.1-0.4-0.1-0.7-0.1-1.1v-3.8H269.3z"/>
<path fill="#999999" d="M147.4,124.7L147.4,124.7l2.3-7.9h1.1l2.3,7.9h0l2.2-7.9h1l-2.7,9.2h-1.1l-2.3-7.9h0L148,126h-1.1l-2.7-9.2
	h1L147.4,124.7z M163.4,123c0,0.5-0.1,0.9-0.2,1.3c-0.2,0.4-0.4,0.7-0.7,1c-0.3,0.3-0.6,0.5-1,0.7c-0.4,0.2-0.8,0.2-1.3,0.2
	c-0.5,0-0.9-0.1-1.3-0.2c-0.4-0.2-0.7-0.4-1-0.7c-0.3-0.3-0.5-0.6-0.7-1c-0.2-0.4-0.2-0.8-0.2-1.3s0.1-0.9,0.2-1.3
	c0.2-0.4,0.4-0.7,0.7-1c0.3-0.3,0.6-0.5,1-0.7c0.4-0.2,0.8-0.2,1.3-0.2c0.5,0,0.9,0.1,1.3,0.2c0.4,0.2,0.7,0.4,1,0.7
	c0.3,0.3,0.5,0.6,0.7,1C163.3,122.1,163.4,122.5,163.4,123z M162.4,123c0-0.3-0.1-0.7-0.2-0.9c-0.1-0.3-0.3-0.6-0.5-0.8
	c-0.2-0.2-0.4-0.4-0.7-0.5c-0.3-0.1-0.6-0.2-1-0.2s-0.7,0.1-1,0.2c-0.3,0.1-0.5,0.3-0.7,0.5c-0.2,0.2-0.4,0.5-0.5,0.8
	c-0.1,0.3-0.2,0.6-0.2,0.9s0.1,0.7,0.2,1c0.1,0.3,0.3,0.6,0.5,0.8c0.2,0.2,0.4,0.4,0.7,0.5c0.3,0.1,0.6,0.2,1,0.2s0.7-0.1,1-0.2
	c0.3-0.1,0.5-0.3,0.7-0.5c0.2-0.2,0.4-0.5,0.5-0.8C162.4,123.6,162.4,123.3,162.4,123z M165.3,121.3c0-0.2,0-0.4,0-0.6
	c0-0.3,0-0.5,0-0.7h0.8c0,0.2,0,0.3,0,0.5c0,0.2,0,0.4,0,0.5h0c0.2-0.4,0.4-0.6,0.8-0.9c0.3-0.2,0.7-0.3,1.2-0.3c0.1,0,0.2,0,0.3,0
	c0.1,0,0.2,0,0.3,0.1l-0.1,0.8c-0.1,0-0.1,0-0.3-0.1c-0.1,0-0.2,0-0.4,0c-0.2,0-0.5,0-0.7,0.1c-0.2,0.1-0.4,0.2-0.6,0.4
	c-0.2,0.2-0.3,0.4-0.4,0.7c-0.1,0.3-0.1,0.6-0.1,1v3.1h-0.9V121.3z M170.9,122.7L170.9,122.7l2.8-2.7h1.3l-3.1,2.8l3.4,3.3H174
	l-3.1-3.2h0v3.2H170v-9.8h0.9V122.7z M182.4,123c0,0.5-0.1,0.9-0.2,1.3c-0.2,0.4-0.4,0.7-0.7,1c-0.3,0.3-0.6,0.5-1,0.7
	c-0.4,0.2-0.8,0.2-1.3,0.2c-0.5,0-0.9-0.1-1.3-0.2c-0.4-0.2-0.7-0.4-1-0.7c-0.3-0.3-0.5-0.6-0.7-1c-0.2-0.4-0.2-0.8-0.2-1.3
	s0.1-0.9,0.2-1.3c0.2-0.4,0.4-0.7,0.7-1c0.3-0.3,0.6-0.5,1-0.7c0.4-0.2,0.8-0.2,1.3-0.2c0.5,0,0.9,0.1,1.3,0.2
	c0.4,0.2,0.7,0.4,1,0.7c0.3,0.3,0.5,0.6,0.7,1C182.3,122.1,182.4,122.5,182.4,123z M181.5,123c0-0.3-0.1-0.7-0.2-0.9
	c-0.1-0.3-0.3-0.6-0.5-0.8c-0.2-0.2-0.4-0.4-0.7-0.5c-0.3-0.1-0.6-0.2-1-0.2c-0.4,0-0.7,0.1-1,0.2c-0.3,0.1-0.5,0.3-0.7,0.5
	c-0.2,0.2-0.4,0.5-0.5,0.8c-0.1,0.3-0.2,0.6-0.2,0.9s0.1,0.7,0.2,1c0.1,0.3,0.3,0.6,0.5,0.8c0.2,0.2,0.4,0.4,0.7,0.5
	c0.3,0.1,0.6,0.2,1,0.2c0.4,0,0.7-0.1,1-0.2c0.3-0.1,0.5-0.3,0.7-0.5c0.2-0.2,0.4-0.5,0.5-0.8C181.4,123.6,181.5,123.3,181.5,123z
	 M188.7,126c0-0.2,0-0.3,0-0.5c0-0.2,0-0.4,0-0.5h0c-0.2,0.4-0.5,0.6-0.8,0.9c-0.4,0.2-0.8,0.3-1.2,0.3c-0.8,0-1.4-0.2-1.7-0.7
	c-0.4-0.5-0.6-1.1-0.6-1.8v-3.7h0.9v3.4c0,0.3,0,0.6,0.1,0.9s0.1,0.5,0.3,0.7c0.1,0.2,0.3,0.3,0.5,0.4c0.2,0.1,0.5,0.2,0.8,0.2
	c0.2,0,0.5,0,0.7-0.1c0.2-0.1,0.4-0.2,0.6-0.4c0.2-0.2,0.3-0.4,0.4-0.7c0.1-0.3,0.2-0.7,0.2-1.1v-3.1h0.9v4.7c0,0.2,0,0.4,0,0.6
	c0,0.3,0,0.5,0,0.7H188.7z M194.6,120.7h-1.7v3.5c0,0.2,0,0.4,0.1,0.6c0,0.1,0.1,0.3,0.2,0.4c0.1,0.1,0.2,0.1,0.3,0.2
	c0.1,0,0.2,0,0.4,0c0.1,0,0.2,0,0.4-0.1c0.1,0,0.3-0.1,0.4-0.1l0,0.8c-0.2,0.1-0.3,0.1-0.5,0.1c-0.2,0-0.3,0.1-0.5,0.1
	c-0.2,0-0.3,0-0.5-0.1c-0.2,0-0.4-0.1-0.5-0.2s-0.3-0.3-0.4-0.5c-0.1-0.2-0.1-0.5-0.1-0.8v-3.8h-1.3v-0.7h1.3v-1.7h0.9v1.7h1.7
	V120.7z M204.9,123.9l2.1,2.1h-1.3l-1.3-1.4c-0.4,0.5-0.8,0.9-1.2,1.2c-0.4,0.2-1,0.4-1.6,0.4c-0.4,0-0.8-0.1-1.1-0.2
	c-0.3-0.1-0.6-0.3-0.9-0.5c-0.3-0.2-0.5-0.5-0.6-0.8c-0.1-0.3-0.2-0.7-0.2-1.1c0-0.3,0.1-0.7,0.2-0.9c0.1-0.3,0.3-0.5,0.5-0.7
	c0.2-0.2,0.4-0.4,0.7-0.6c0.3-0.2,0.5-0.3,0.8-0.5c-0.1-0.1-0.3-0.3-0.4-0.5c-0.1-0.2-0.2-0.3-0.4-0.5c-0.1-0.2-0.2-0.4-0.3-0.6
	c-0.1-0.2-0.1-0.4-0.1-0.6c0-0.3,0.1-0.7,0.2-0.9c0.1-0.3,0.3-0.5,0.5-0.7c0.2-0.2,0.5-0.3,0.7-0.4c0.3-0.1,0.6-0.1,0.9-0.1
	c0.3,0,0.6,0,0.9,0.1c0.3,0.1,0.5,0.2,0.7,0.4c0.2,0.2,0.4,0.4,0.5,0.7c0.1,0.3,0.2,0.5,0.2,0.9c0,0.3-0.1,0.6-0.2,0.8
	c-0.1,0.2-0.3,0.5-0.5,0.7c-0.2,0.2-0.4,0.4-0.7,0.5c-0.2,0.1-0.5,0.3-0.8,0.4l2.1,2.2l1.3-2.2h1.1L204.9,123.9z M203.3,118.6
	c0-0.4-0.1-0.7-0.4-0.9c-0.2-0.2-0.6-0.4-0.9-0.4c-0.4,0-0.7,0.1-1,0.4c-0.3,0.3-0.4,0.6-0.4,1c0,0.2,0,0.3,0.1,0.5
	c0.1,0.2,0.2,0.3,0.3,0.5c0.1,0.2,0.2,0.3,0.3,0.4c0.1,0.1,0.2,0.2,0.3,0.3c0.2-0.1,0.4-0.2,0.6-0.3c0.2-0.1,0.4-0.3,0.5-0.4
	c0.2-0.1,0.3-0.3,0.4-0.5C203.3,119.1,203.3,118.9,203.3,118.6z M201.4,121.5c-0.6,0.3-1,0.6-1.3,0.9c-0.3,0.3-0.4,0.8-0.4,1.2
	c0,0.3,0,0.5,0.1,0.7c0.1,0.2,0.2,0.4,0.4,0.6c0.2,0.1,0.4,0.3,0.6,0.4c0.2,0.1,0.5,0.1,0.7,0.1c0.5,0,0.9-0.1,1.2-0.3
	c0.3-0.2,0.7-0.6,0.9-1L201.4,121.5z M216,121.3c-0.1-0.2-0.4-0.4-0.7-0.6c-0.3-0.2-0.6-0.2-0.9-0.2c-0.4,0-0.7,0.1-1,0.2
	c-0.3,0.1-0.5,0.3-0.7,0.5c-0.2,0.2-0.4,0.5-0.5,0.8c-0.1,0.3-0.2,0.6-0.2,1s0.1,0.7,0.2,1c0.1,0.3,0.3,0.6,0.5,0.8
	c0.2,0.2,0.4,0.4,0.7,0.5c0.3,0.1,0.6,0.2,1,0.2c0.4,0,0.7-0.1,1-0.2c0.3-0.1,0.5-0.3,0.7-0.6l0.7,0.5c-0.3,0.3-0.6,0.6-1,0.8
	c-0.4,0.2-0.8,0.3-1.4,0.3c-0.5,0-0.9-0.1-1.3-0.2c-0.4-0.2-0.7-0.4-1-0.7c-0.3-0.3-0.5-0.6-0.7-1c-0.2-0.4-0.2-0.8-0.2-1.3
	s0.1-0.9,0.2-1.3c0.2-0.4,0.4-0.7,0.7-1c0.3-0.3,0.6-0.5,1-0.7c0.4-0.2,0.8-0.2,1.3-0.2c0.4,0,0.8,0.1,1.2,0.3
	c0.4,0.2,0.8,0.4,1,0.8L216,121.3z M222,122.1c0-0.5-0.1-0.9-0.4-1.2c-0.3-0.3-0.7-0.4-1.2-0.4c-0.4,0-0.7,0.1-1,0.2
	c-0.3,0.1-0.6,0.3-0.8,0.5l-0.5-0.6c0.3-0.3,0.6-0.5,1-0.6c0.4-0.2,0.9-0.2,1.4-0.2c0.3,0,0.6,0,0.9,0.1c0.3,0.1,0.5,0.2,0.8,0.4
	c0.2,0.2,0.4,0.4,0.5,0.7c0.1,0.3,0.2,0.6,0.2,1v2.7c0,0.2,0,0.5,0,0.7c0,0.3,0,0.5,0.1,0.6h-0.8c0-0.1,0-0.3-0.1-0.5
	c0-0.2,0-0.3,0-0.5h0c-0.3,0.4-0.6,0.7-0.9,0.9c-0.3,0.2-0.8,0.3-1.3,0.3c-0.2,0-0.5,0-0.7-0.1c-0.2-0.1-0.5-0.2-0.7-0.3
	c-0.2-0.1-0.4-0.3-0.5-0.6c-0.1-0.2-0.2-0.5-0.2-0.9c0-0.5,0.1-0.8,0.4-1.1c0.2-0.3,0.6-0.5,1-0.6c0.4-0.1,0.9-0.2,1.4-0.3
	c0.5,0,1.1-0.1,1.6-0.1V122.1z M221.7,123c-0.4,0-0.7,0-1.1,0.1c-0.4,0-0.7,0.1-1,0.2c-0.3,0.1-0.5,0.2-0.7,0.4
	c-0.2,0.2-0.3,0.4-0.3,0.7c0,0.2,0,0.4,0.1,0.5c0.1,0.1,0.2,0.3,0.3,0.4c0.1,0.1,0.3,0.2,0.5,0.2c0.2,0,0.3,0.1,0.5,0.1
	c0.3,0,0.6-0.1,0.8-0.2c0.2-0.1,0.4-0.3,0.6-0.4c0.2-0.2,0.3-0.4,0.4-0.7c0.1-0.2,0.1-0.5,0.1-0.8V123H221.7z M226,126h-0.9v-9.8
	h0.9V126z M234.4,123c0,0.5-0.1,0.9-0.2,1.3c-0.2,0.4-0.4,0.7-0.7,1c-0.3,0.3-0.6,0.5-1,0.7c-0.4,0.2-0.8,0.2-1.3,0.2
	c-0.5,0-0.9-0.1-1.3-0.2c-0.4-0.2-0.7-0.4-1-0.7c-0.3-0.3-0.5-0.6-0.7-1c-0.2-0.4-0.2-0.8-0.2-1.3s0.1-0.9,0.2-1.3
	c0.2-0.4,0.4-0.7,0.7-1c0.3-0.3,0.6-0.5,1-0.7c0.4-0.2,0.8-0.2,1.3-0.2c0.5,0,0.9,0.1,1.3,0.2c0.4,0.2,0.7,0.4,1,0.7
	c0.3,0.3,0.5,0.6,0.7,1C234.3,122.1,234.4,122.5,234.4,123z M233.5,123c0-0.3-0.1-0.7-0.2-0.9c-0.1-0.3-0.3-0.6-0.5-0.8
	c-0.2-0.2-0.4-0.4-0.7-0.5c-0.3-0.1-0.6-0.2-1-0.2c-0.4,0-0.7,0.1-1,0.2c-0.3,0.1-0.5,0.3-0.7,0.5c-0.2,0.2-0.4,0.5-0.5,0.8
	c-0.1,0.3-0.2,0.6-0.2,0.9s0.1,0.7,0.2,1c0.1,0.3,0.3,0.6,0.5,0.8c0.2,0.2,0.4,0.4,0.7,0.5c0.3,0.1,0.6,0.2,1,0.2
	c0.4,0,0.7-0.1,1-0.2c0.3-0.1,0.5-0.3,0.7-0.5c0.2-0.2,0.4-0.5,0.5-0.8C233.4,123.6,233.5,123.3,233.5,123z M236.3,121.3
	c0-0.2,0-0.4,0-0.6c0-0.3,0-0.5,0-0.7h0.8c0,0.2,0,0.3,0,0.5c0,0.2,0,0.4,0,0.5h0c0.2-0.4,0.4-0.6,0.8-0.9c0.3-0.2,0.7-0.3,1.2-0.3
	c0.1,0,0.2,0,0.3,0c0.1,0,0.2,0,0.3,0.1l-0.1,0.8c-0.1,0-0.1,0-0.3-0.1c-0.1,0-0.2,0-0.4,0c-0.2,0-0.5,0-0.7,0.1
	c-0.2,0.1-0.4,0.2-0.6,0.4c-0.2,0.2-0.3,0.4-0.4,0.7c-0.1,0.3-0.1,0.6-0.1,1v3.1h-0.9V121.3z M241.9,126H241v-6.1h0.9V126z
	 M242.1,117.6c0,0.2-0.1,0.3-0.2,0.5c-0.1,0.1-0.3,0.2-0.4,0.2c-0.2,0-0.3-0.1-0.4-0.2c-0.1-0.1-0.2-0.3-0.2-0.5
	c0-0.2,0.1-0.3,0.2-0.4c0.1-0.1,0.3-0.2,0.4-0.2c0.2,0,0.3,0.1,0.4,0.2C242,117.2,242.1,117.4,242.1,117.6z M248.9,122.5
	c0-0.6-0.2-1-0.6-1.4c-0.3-0.4-0.8-0.6-1.5-0.6c-0.3,0-0.6,0.1-0.8,0.2c-0.3,0.1-0.5,0.3-0.7,0.4c-0.2,0.2-0.3,0.4-0.5,0.6
	c-0.1,0.2-0.2,0.5-0.2,0.7H248.9z M249.8,122.8c0,0.1,0,0.1,0,0.2s0,0.1,0,0.2h-5c0,0.3,0.1,0.6,0.2,0.9c0.1,0.3,0.3,0.5,0.5,0.7
	c0.2,0.2,0.4,0.4,0.7,0.5c0.3,0.1,0.6,0.2,0.9,0.2c0.5,0,0.9-0.1,1.2-0.3c0.3-0.2,0.6-0.5,0.8-0.7l0.7,0.5c-0.4,0.5-0.8,0.8-1.2,1
	c-0.4,0.2-0.9,0.3-1.4,0.3c-0.4,0-0.9-0.1-1.3-0.2c-0.4-0.2-0.7-0.4-1-0.7c-0.3-0.3-0.5-0.6-0.7-1c-0.2-0.4-0.2-0.8-0.2-1.3
	s0.1-0.9,0.2-1.3c0.2-0.4,0.4-0.7,0.7-1c0.3-0.3,0.6-0.5,1-0.7c0.4-0.2,0.8-0.2,1.2-0.2c0.5,0,0.9,0.1,1.3,0.2
	c0.4,0.2,0.7,0.4,0.9,0.6c0.2,0.3,0.4,0.6,0.5,0.9C249.7,122,249.8,122.4,249.8,122.8z M257.7,120.7H256v3.5c0,0.2,0,0.4,0.1,0.6
	c0,0.1,0.1,0.3,0.2,0.4c0.1,0.1,0.2,0.1,0.3,0.2c0.1,0,0.2,0,0.4,0c0.1,0,0.2,0,0.4-0.1c0.1,0,0.3-0.1,0.4-0.1l0,0.8
	c-0.2,0.1-0.3,0.1-0.5,0.1c-0.2,0-0.3,0.1-0.5,0.1c-0.2,0-0.3,0-0.5-0.1s-0.4-0.1-0.5-0.2s-0.3-0.3-0.4-0.5
	c-0.1-0.2-0.1-0.5-0.1-0.8v-3.8h-1.3v-0.7h1.3v-1.7h0.9v1.7h1.7V120.7z M259.1,121.3c0-0.2,0-0.4,0-0.6c0-0.3,0-0.5,0-0.7h0.8
	c0,0.2,0,0.3,0,0.5c0,0.2,0,0.4,0,0.5h0c0.2-0.4,0.4-0.6,0.8-0.9c0.3-0.2,0.7-0.3,1.2-0.3c0.1,0,0.2,0,0.3,0c0.1,0,0.2,0,0.3,0.1
	l-0.1,0.8c-0.1,0-0.1,0-0.3-0.1c-0.1,0-0.2,0-0.4,0c-0.2,0-0.5,0-0.7,0.1c-0.2,0.1-0.4,0.2-0.6,0.4c-0.2,0.2-0.3,0.4-0.4,0.7
	c-0.1,0.3-0.1,0.6-0.1,1v3.1h-0.9V121.3z M267.4,122.1c0-0.5-0.1-0.9-0.4-1.2c-0.3-0.3-0.7-0.4-1.2-0.4c-0.4,0-0.7,0.1-1,0.2
	c-0.3,0.1-0.6,0.3-0.8,0.5l-0.5-0.6c0.3-0.3,0.6-0.5,1-0.6c0.4-0.2,0.9-0.2,1.4-0.2c0.3,0,0.6,0,0.9,0.1c0.3,0.1,0.5,0.2,0.8,0.4
	c0.2,0.2,0.4,0.4,0.5,0.7s0.2,0.6,0.2,1v2.7c0,0.2,0,0.5,0,0.7s0,0.5,0.1,0.6h-0.8c0-0.1,0-0.3-0.1-0.5c0-0.2,0-0.3,0-0.5h0
	c-0.3,0.4-0.6,0.7-0.9,0.9c-0.3,0.2-0.8,0.3-1.3,0.3c-0.2,0-0.5,0-0.7-0.1c-0.2-0.1-0.5-0.2-0.7-0.3c-0.2-0.1-0.4-0.3-0.5-0.6
	c-0.1-0.2-0.2-0.5-0.2-0.9c0-0.5,0.1-0.8,0.4-1.1c0.2-0.3,0.6-0.5,1-0.6c0.4-0.1,0.9-0.2,1.4-0.3c0.5,0,1.1-0.1,1.6-0.1V122.1z
	 M267.2,123c-0.4,0-0.7,0-1.1,0.1c-0.4,0-0.7,0.1-1,0.2c-0.3,0.1-0.5,0.2-0.7,0.4c-0.2,0.2-0.3,0.4-0.3,0.7c0,0.2,0,0.4,0.1,0.5
	c0.1,0.1,0.2,0.3,0.3,0.4c0.1,0.1,0.3,0.2,0.5,0.2c0.2,0,0.3,0.1,0.5,0.1c0.3,0,0.6-0.1,0.8-0.2c0.2-0.1,0.4-0.3,0.6-0.4
	c0.2-0.2,0.3-0.4,0.4-0.7c0.1-0.2,0.1-0.5,0.1-0.8V123H267.2z M274.9,121.3c-0.1-0.2-0.4-0.4-0.6-0.6c-0.3-0.2-0.6-0.2-0.9-0.2
	c-0.4,0-0.7,0.1-1,0.2c-0.3,0.1-0.5,0.3-0.7,0.5c-0.2,0.2-0.4,0.5-0.5,0.8c-0.1,0.3-0.2,0.6-0.2,1s0.1,0.7,0.2,1
	c0.1,0.3,0.3,0.6,0.5,0.8c0.2,0.2,0.4,0.4,0.7,0.5c0.3,0.1,0.6,0.2,1,0.2c0.4,0,0.7-0.1,1-0.2c0.3-0.1,0.5-0.3,0.7-0.6l0.7,0.5
	c-0.3,0.3-0.6,0.6-1,0.8c-0.4,0.2-0.8,0.3-1.4,0.3c-0.5,0-0.9-0.1-1.3-0.2c-0.4-0.2-0.7-0.4-1-0.7c-0.3-0.3-0.5-0.6-0.6-1
	s-0.2-0.8-0.2-1.3s0.1-0.9,0.2-1.3s0.4-0.7,0.6-1c0.3-0.3,0.6-0.5,1-0.7c0.4-0.2,0.8-0.2,1.3-0.2c0.4,0,0.8,0.1,1.2,0.3
	c0.4,0.2,0.8,0.4,1,0.8L274.9,121.3z M277.9,122.7L277.9,122.7l2.8-2.7h1.3l-3.1,2.8l3.4,3.3h-1.3l-3.1-3.2h0v3.2h-0.9v-9.8h0.9
	V122.7z M288.1,122.5c0-0.6-0.2-1-0.6-1.4c-0.3-0.4-0.8-0.6-1.5-0.6c-0.3,0-0.6,0.1-0.8,0.2c-0.3,0.1-0.5,0.3-0.7,0.4
	c-0.2,0.2-0.3,0.4-0.5,0.6c-0.1,0.2-0.2,0.5-0.2,0.7H288.1z M289,122.8c0,0.1,0,0.1,0,0.2s0,0.1,0,0.2h-5c0,0.3,0.1,0.6,0.2,0.9
	c0.1,0.3,0.3,0.5,0.5,0.7c0.2,0.2,0.4,0.4,0.7,0.5c0.3,0.1,0.6,0.2,0.9,0.2c0.5,0,0.9-0.1,1.2-0.3c0.3-0.2,0.6-0.5,0.8-0.7l0.7,0.5
	c-0.4,0.5-0.8,0.8-1.2,1c-0.4,0.2-0.9,0.3-1.4,0.3c-0.5,0-0.9-0.1-1.3-0.2c-0.4-0.2-0.7-0.4-1-0.7c-0.3-0.3-0.5-0.6-0.7-1
	c-0.2-0.4-0.2-0.8-0.2-1.3s0.1-0.9,0.2-1.3c0.2-0.4,0.4-0.7,0.7-1c0.3-0.3,0.6-0.5,1-0.7c0.4-0.2,0.8-0.2,1.2-0.2
	c0.5,0,0.9,0.1,1.3,0.2c0.4,0.2,0.7,0.4,0.9,0.6c0.2,0.3,0.4,0.6,0.5,0.9C288.9,122,289,122.4,289,122.8z M290.9,121.3
	c0-0.2,0-0.4,0-0.6c0-0.3,0-0.5,0-0.7h0.8c0,0.2,0,0.3,0,0.5c0,0.2,0,0.4,0,0.5h0c0.2-0.4,0.4-0.6,0.8-0.9c0.3-0.2,0.7-0.3,1.2-0.3
	c0.1,0,0.2,0,0.3,0c0.1,0,0.2,0,0.3,0.1l-0.1,0.8c-0.1,0-0.1,0-0.3-0.1c-0.1,0-0.2,0-0.4,0c-0.2,0-0.5,0-0.7,0.1
	c-0.2,0.1-0.4,0.2-0.6,0.4c-0.2,0.2-0.3,0.4-0.4,0.7c-0.1,0.3-0.1,0.6-0.1,1v3.1h-0.9V121.3z"/>
<path fill="#3478F6" d="M160,139h62c8.8,0,16,7.2,16,16l0,0c0,8.8-7.2,16-16,16h-62c-8.8,0-16-7.2-16-16l0,0
	C144,146.2,151.2,139,160,139z"/>
<path fill="#FFFFFF" d="M186.5,159.4c-0.5,0.3-1.1,0.5-1.8,0.6c-0.6,0.2-1.4,0.2-2.2,0.2c-0.9,0-1.6-0.1-2.4-0.4
	c-0.7-0.3-1.3-0.7-1.8-1.2c-0.5-0.5-0.9-1.1-1.2-1.8c-0.3-0.7-0.4-1.4-0.4-2.3c0-0.9,0.1-1.6,0.4-2.3c0.3-0.7,0.7-1.3,1.2-1.8
	c0.5-0.5,1.1-0.9,1.8-1.1s1.5-0.4,2.3-0.4c0.9,0,1.6,0.1,2.3,0.4c0.7,0.2,1.3,0.6,1.7,1l-1.3,1.4c-0.3-0.3-0.6-0.6-1.1-0.8
	c-0.5-0.2-1-0.3-1.6-0.3c-0.6,0-1.1,0.1-1.5,0.3c-0.4,0.2-0.8,0.5-1.2,0.8c-0.3,0.4-0.6,0.8-0.8,1.2c-0.2,0.5-0.3,1-0.3,1.5
	c0,0.6,0.1,1.1,0.3,1.6c0.2,0.5,0.4,0.9,0.8,1.2c0.3,0.4,0.7,0.6,1.2,0.8c0.5,0.2,1,0.3,1.6,0.3c0.8,0,1.5-0.1,2.1-0.4v-2.7h-2.2
	v-1.6h4.1V159.4z M188.8,149.4h7v1.6h-5.1v2.7h4.9v1.6h-4.9v3h5.4v1.7h-7.3V149.4z M200.1,151h-3.3v-1.6h8.4v1.6H202v9h-1.9V151z"/>
</svg>
