<svg width="375" height="812" viewBox="0 0 375 812" fill="none" xmlns="http://www.w3.org/2000/svg">
<mask id="mask0" mask-type="alpha" maskUnits="userSpaceOnUse" x="0" y="0" width="375" height="812">
<rect width="375" height="812" fill="#C4C4C4"/>
</mask>
<g mask="url(#mask0)">
<rect width="375" height="812" fill="white"/>
<path fill-rule="evenodd" clip-rule="evenodd" d="M43.531 1049.31C106.706 1111.85 228.898 1112.82 263.393 1015.45C297.889 918.073 237.389 913.537 322.717 797.457C408.045 681.377 255.215 531.232 109.372 655.655C-36.4718 780.079 -106.131 623.543 -195.111 678.409C-283.2 732.727 -207.363 861.946 -102.781 857.252L-99.6034 857.069C6.60749 849.574 -19.6439 986.761 43.531 1049.31Z" fill="#F6F6F6"/>
<path d="M281.023 -246.815C130.837 -269.962 187.777 -411.818 96.3222 -385.825C4.8677 -359.831 -116.509 -158.738 -88.0471 -14.242C-59.5857 130.254 37.6947 245.845 134.798 204.224C231.901 162.602 131.734 32.7856 267.905 -0.422658C404.076 -33.6309 431.209 -223.667 281.023 -246.815Z" fill="#2FD491"/>
<path fill-rule="evenodd" clip-rule="evenodd" d="M393.323 687.986C393.865 686.748 395.305 686.186 396.54 686.729C397.774 687.273 398.335 688.716 397.793 689.953C397.251 691.19 395.811 691.753 394.577 691.209C393.342 690.666 392.781 689.223 393.323 687.986ZM393.323 751.569C393.865 750.331 395.305 749.77 396.54 750.313C397.774 750.856 398.335 752.299 397.793 753.536C397.251 754.773 395.811 755.336 394.577 754.793C393.342 754.25 392.781 752.806 393.323 751.569ZM396.54 707.924C395.305 707.381 393.865 707.942 393.323 709.18C392.781 710.418 393.342 711.861 394.577 712.404C395.811 712.947 397.251 712.385 397.793 711.147C398.335 709.91 397.774 708.467 396.54 707.924ZM393.323 730.375C393.865 729.137 395.305 728.575 396.54 729.118C397.774 729.662 398.335 731.105 397.793 732.342C397.251 733.579 395.811 734.142 394.577 733.598C393.342 733.055 392.781 731.612 393.323 730.375ZM382.26 740.791C381.026 740.247 379.586 740.809 379.044 742.047C378.502 743.284 379.062 744.727 380.298 745.271C381.532 745.814 382.972 745.251 383.514 744.014C384.056 742.777 383.495 741.334 382.26 740.791ZM379.044 678.464C379.586 677.226 381.026 676.664 382.26 677.207C383.495 677.751 384.056 679.194 383.514 680.431C382.972 681.668 381.532 682.231 380.298 681.687C379.062 681.144 378.502 679.701 379.044 678.464ZM382.26 698.402C381.026 697.858 379.586 698.42 379.044 699.658C378.502 700.895 379.062 702.339 380.298 702.882C381.532 703.425 382.972 702.862 383.514 701.625C384.056 700.388 383.495 698.945 382.26 698.402ZM379.044 720.853C379.586 719.615 381.026 719.053 382.26 719.596C383.495 720.139 384.056 721.583 383.514 722.82C382.972 724.057 381.532 724.62 380.298 724.076C379.062 723.533 378.502 722.09 379.044 720.853ZM367.982 750.313C366.748 749.77 365.308 750.331 364.765 751.569C364.223 752.806 364.783 754.25 366.019 754.793C367.254 755.336 368.694 754.773 369.235 753.536C369.778 752.299 369.216 750.856 367.982 750.313ZM364.765 687.986C365.308 686.748 366.748 686.186 367.982 686.729C369.216 687.273 369.778 688.716 369.235 689.953C368.694 691.19 367.254 691.753 366.019 691.209C364.783 690.666 364.223 689.223 364.765 687.986ZM367.982 707.924C366.748 707.381 365.308 707.942 364.765 709.18C364.223 710.418 364.783 711.861 366.019 712.404C367.254 712.947 368.694 712.385 369.235 711.147C369.778 709.91 369.216 708.467 367.982 707.924ZM364.765 730.375C365.308 729.137 366.748 728.575 367.982 729.118C369.216 729.662 369.778 731.105 369.235 732.342C368.694 733.579 367.254 734.142 366.019 733.598C364.783 733.055 364.223 731.612 364.765 730.375ZM353.703 740.791C352.468 740.247 351.028 740.809 350.486 742.047C349.944 743.284 350.505 744.727 351.74 745.271C352.974 745.814 354.414 745.251 354.956 744.014C355.498 742.777 354.937 741.334 353.703 740.791ZM350.486 678.464C351.028 677.226 352.468 676.664 353.703 677.207C354.937 677.751 355.498 679.194 354.956 680.431C354.414 681.668 352.974 682.231 351.74 681.687C350.505 681.144 349.944 679.701 350.486 678.464ZM353.703 698.402C352.468 697.858 351.028 698.42 350.486 699.658C349.944 700.895 350.505 702.339 351.74 702.882C352.974 703.425 354.414 702.862 354.956 701.625C355.498 700.388 354.937 698.945 353.703 698.402ZM350.486 720.853C351.028 719.615 352.468 719.053 353.703 719.596C354.937 720.139 355.498 721.583 354.956 722.82C354.414 724.057 352.974 724.62 351.74 724.076C350.505 723.533 349.944 722.09 350.486 720.853ZM339.423 750.313C338.189 749.77 336.749 750.331 336.207 751.569C335.665 752.806 336.225 754.25 337.461 754.793C338.695 755.336 340.135 754.773 340.677 753.536C341.219 752.299 340.657 750.856 339.423 750.313ZM336.207 687.986C336.749 686.748 338.189 686.186 339.423 686.729C340.657 687.273 341.219 688.716 340.677 689.953C340.135 691.19 338.695 691.753 337.461 691.209C336.225 690.666 335.665 689.223 336.207 687.986ZM339.423 707.924C338.189 707.381 336.749 707.942 336.207 709.18C335.665 710.418 336.225 711.861 337.461 712.404C338.695 712.947 340.135 712.385 340.677 711.147C341.219 709.91 340.657 708.467 339.423 707.924ZM336.207 730.375C336.749 729.137 338.189 728.575 339.423 729.118C340.657 729.662 341.219 731.105 340.677 732.342C340.135 733.579 338.695 734.142 337.461 733.598C336.225 733.055 335.665 731.612 336.207 730.375Z" fill="#0C0C0C"/>
<path fill-rule="evenodd" clip-rule="evenodd" d="M-34 173.5C-34 174.881 -35.1193 176 -36.5 176C-37.8807 176 -39 174.881 -39 173.5C-39 172.119 -37.8807 171 -36.5 171C-35.1193 171 -34 172.119 -34 173.5ZM-35 201.5C-35 202.881 -36.1193 204 -37.5 204C-38.8807 204 -40 202.881 -40 201.5C-40 200.119 -38.8807 199 -37.5 199C-36.1193 199 -35 200.119 -35 201.5ZM-38.5 234C-37.1193 234 -36 232.881 -36 231.5C-36 230.119 -37.1193 229 -38.5 229C-39.8807 229 -41 230.119 -41 231.5C-41 232.881 -39.8807 234 -38.5 234ZM10 173.5C10 174.881 8.88071 176 7.5 176C6.11929 176 5 174.881 5 173.5C5 172.119 6.11929 171 7.5 171C8.88071 171 10 172.119 10 173.5ZM6.5 204C7.88071 204 9 202.881 9 201.5C9 200.119 7.88071 199 6.5 199C5.11929 199 4 200.119 4 201.5C4 202.881 5.11929 204 6.5 204ZM8 231.5C8 232.881 6.88071 234 5.5 234C4.11929 234 3 232.881 3 231.5C3 230.119 4.11929 229 5.5 229C6.88071 229 8 230.119 8 231.5ZM-3.5 189C-2.11929 189 -1 187.881 -1 186.5C-1 185.119 -2.11929 184 -3.5 184C-4.88071 184 -6 185.119 -6 186.5C-6 187.881 -4.88071 189 -3.5 189ZM-1 216.5C-1 217.881 -2.11929 219 -3.5 219C-4.88071 219 -6 217.881 -6 216.5C-6 215.119 -4.88071 214 -3.5 214C-2.11929 214 -1 215.119 -1 216.5ZM-3.5 249C-2.11929 249 -1 247.881 -1 246.5C-1 245.119 -2.11929 244 -3.5 244C-4.88071 244 -6 245.119 -6 246.5C-6 247.881 -4.88071 249 -3.5 249ZM-12 173.5C-12 174.881 -13.1193 176 -14.5 176C-15.8807 176 -17 174.881 -17 173.5C-17 172.119 -15.8807 171 -14.5 171C-13.1193 171 -12 172.119 -12 173.5ZM-15.5 204C-14.1193 204 -13 202.881 -13 201.5C-13 200.119 -14.1193 199 -15.5 199C-16.8807 199 -18 200.119 -18 201.5C-18 202.881 -16.8807 204 -15.5 204ZM-14 231.5C-14 232.881 -15.1193 234 -16.5 234C-17.8807 234 -19 232.881 -19 231.5C-19 230.119 -17.8807 229 -16.5 229C-15.1193 229 -14 230.119 -14 231.5ZM-25.5 189C-24.1193 189 -23 187.881 -23 186.5C-23 185.119 -24.1193 184 -25.5 184C-26.8807 184 -28 185.119 -28 186.5C-28 187.881 -26.8807 189 -25.5 189ZM-23 216.5C-23 217.881 -24.1193 219 -25.5 219C-26.8807 219 -28 217.881 -28 216.5C-28 215.119 -26.8807 214 -25.5 214C-24.1193 214 -23 215.119 -23 216.5ZM-25.5 249C-24.1193 249 -23 247.881 -23 246.5C-23 245.119 -24.1193 244 -25.5 244C-26.8807 244 -28 245.119 -28 246.5C-28 247.881 -26.8807 249 -25.5 249ZM32 173.5C32 174.881 30.8807 176 29.5 176C28.1193 176 27 174.881 27 173.5C27 172.119 28.1193 171 29.5 171C30.8807 171 32 172.119 32 173.5ZM28.5 204C29.8807 204 31 202.881 31 201.5C31 200.119 29.8807 199 28.5 199C27.1193 199 26 200.119 26 201.5C26 202.881 27.1193 204 28.5 204ZM30 231.5C30 232.881 28.8807 234 27.5 234C26.1193 234 25 232.881 25 231.5C25 230.119 26.1193 229 27.5 229C28.8807 229 30 230.119 30 231.5ZM18.5 189C19.8807 189 21 187.881 21 186.5C21 185.119 19.8807 184 18.5 184C17.1193 184 16 185.119 16 186.5C16 187.881 17.1193 189 18.5 189ZM21 216.5C21 217.881 19.8807 219 18.5 219C17.1193 219 16 217.881 16 216.5C16 215.119 17.1193 214 18.5 214C19.8807 214 21 215.119 21 216.5ZM18.5 249C19.8807 249 21 247.881 21 246.5C21 245.119 19.8807 244 18.5 244C17.1193 244 16 245.119 16 246.5C16 247.881 17.1193 249 18.5 249ZM54 173.5C54 174.881 52.8807 176 51.5 176C50.1193 176 49 174.881 49 173.5C49 172.119 50.1193 171 51.5 171C52.8807 171 54 172.119 54 173.5ZM50.5 204C51.8807 204 53 202.881 53 201.5C53 200.119 51.8807 199 50.5 199C49.1193 199 48 200.119 48 201.5C48 202.881 49.1193 204 50.5 204ZM52 231.5C52 232.881 50.8807 234 49.5 234C48.1193 234 47 232.881 47 231.5C47 230.119 48.1193 229 49.5 229C50.8807 229 52 230.119 52 231.5ZM40.5 189C41.8807 189 43 187.881 43 186.5C43 185.119 41.8807 184 40.5 184C39.1193 184 38 185.119 38 186.5C38 187.881 39.1193 189 40.5 189ZM43 216.5C43 217.881 41.8807 219 40.5 219C39.1193 219 38 217.881 38 216.5C38 215.119 39.1193 214 40.5 214C41.8807 214 43 215.119 43 216.5ZM40.5 249C41.8807 249 43 247.881 43 246.5C43 245.119 41.8807 244 40.5 244C39.1193 244 38 245.119 38 246.5C38 247.881 39.1193 249 40.5 249Z" fill="#0C0C0C"/>
<path fill-rule="evenodd" clip-rule="evenodd" d="M541.959 -37.4113C537.726 -99.3373 480.084 -188.924 400.845 -137.868C321.606 -86.811 381.93 -27.4903 273.016 13.9929C164.103 55.476 188.982 183.62 305.968 197.406C395.967 216.819 344.042 314.707 481.633 311.803C598.742 300.096 591.928 191.685 534.026 136.999C476.123 82.3128 546.193 24.5146 541.959 -37.4113Z" fill="#F6F6F6"/>
</g>
</svg>
