<svg width="84" height="84" viewBox="0 0 84 84" fill="none" xmlns="http://www.w3.org/2000/svg">
<path d="M73.1111 6.44446V16.9171H62.7407" stroke="#30CD9A" stroke-width="3" stroke-linecap="round" stroke-linejoin="round"/>
<path d="M9.40747 76.1767V65.7041H19.7778" stroke="#30CD9A" stroke-width="3" stroke-linecap="round" stroke-linejoin="round"/>
<path d="M77.0948 22.7928C80.2222 28.4936 82 35.0403 82 42.0003C82 64.0921 64.0919 82.0003 42 82.0003C28.8815 82.0003 17.2371 75.6847 9.94373 65.9277" stroke="#30CD9A" stroke-width="3" stroke-linecap="round" stroke-linejoin="round"/>
<path d="M6.23617 59.9341C3.52505 54.54 2.00061 48.4481 2.00061 42.0007C2.00061 19.9074 19.9088 2.00073 42.0006 2.00073C54.4288 2.00073 65.5325 7.66888 72.8702 16.5607" stroke="#30CD9A" stroke-width="3" stroke-linecap="round" stroke-linejoin="round"/>
<path opacity="0.1" fill-rule="evenodd" clip-rule="evenodd" d="M42 68C56.3594 68 68 56.3594 68 42C68 27.6406 56.3594 16 42 16C27.6406 16 16 27.6406 16 42C16 56.3594 27.6406 68 42 68Z" fill="#30CD9A"/>
<path d="M37.5555 46.5037C37.5555 48.9259 39.5452 50.8889 42 50.8889C44.4548 50.8889 46.4444 48.9259 46.4444 46.5037C46.4444 43.0578 42 41.8044 42 41.8044C42 41.8044 37.5555 40.5511 37.5555 37.1052C37.5555 34.683 39.5452 32.7185 42 32.7185C44.4548 32.7185 46.4444 34.683 46.4444 37.1052" stroke="#30CD9A" stroke-width="3" stroke-linecap="round"/>
<path d="M41.9993 30.1482V32.7186" stroke="#30CD9A" stroke-width="3" stroke-linecap="round" stroke-linejoin="round"/>
<path d="M41.9993 53.8519V50.8889" stroke="#30CD9A" stroke-width="3" stroke-linecap="round" stroke-linejoin="round"/>
</svg>
