<svg width="56" height="80" viewBox="0 0 56 80" fill="none" xmlns="http://www.w3.org/2000/svg">
<path d="M22.6553 21.321L26.1055 23.4371" stroke="#30CD9A" stroke-width="2" stroke-linecap="round" stroke-linejoin="round"/>
<path fill-rule="evenodd" clip-rule="evenodd" d="M30.6601 25.3237C30.6601 26.7966 29.4646 27.9921 27.9917 27.9921C26.5187 27.9921 25.3232 26.7966 25.3232 25.3237C25.3232 23.8507 26.5187 22.6553 27.9917 22.6553C29.4646 22.6553 30.6601 23.8507 30.6601 25.3237Z" stroke="#30CD9A" stroke-width="2" stroke-linecap="round" stroke-linejoin="round"/>
<path d="M22.6553 29.3263L26.1055 27.2103" stroke="#30CD9A" stroke-width="2" stroke-linecap="round" stroke-linejoin="round"/>
<path d="M33.3282 29.3263L29.8779 27.2103" stroke="#30CD9A" stroke-width="2" stroke-linecap="round" stroke-linejoin="round"/>
<path d="M33.3282 21.321L29.8779 23.4371" stroke="#30CD9A" stroke-width="2" stroke-linecap="round" stroke-linejoin="round"/>
<path fill-rule="evenodd" clip-rule="evenodd" d="M30.6601 70.6868H25.3232V66.6842C25.3232 65.9477 25.9196 65.35 26.6575 65.35H29.3259C30.0637 65.35 30.6601 65.9477 30.6601 66.6842V70.6868Z" stroke="#D8D7D7" stroke-width="2" stroke-linecap="round"/>
<path d="M27.9923 70.6868V74.6895" stroke="#D8D7D7" stroke-width="2" stroke-linecap="round"/>
<path d="M45.3369 74.6895V73.3553C45.3369 71.8823 44.1415 70.6868 42.6685 70.6868H13.3159C11.8429 70.6868 10.6475 71.8823 10.6475 73.3553V74.6895" stroke="#D8D7D7" stroke-width="2" stroke-linecap="round"/>
<path fill-rule="evenodd" clip-rule="evenodd" d="M11.9809 77.3579C11.9809 78.0944 11.3845 78.6921 10.6467 78.6921C9.90889 78.6921 9.3125 78.0944 9.3125 77.3579C9.3125 76.6214 9.90889 76.0237 10.6467 76.0237C11.3845 76.0237 11.9809 76.6214 11.9809 77.3579Z" stroke="#D8D7D7" stroke-width="2" stroke-linecap="round"/>
<path fill-rule="evenodd" clip-rule="evenodd" d="M46.6704 77.3579C46.6704 78.0944 46.074 78.6921 45.3362 78.6921C44.5983 78.6921 44.002 78.0944 44.002 77.3579C44.002 76.6214 44.5983 76.0237 45.3362 76.0237C46.074 76.0237 46.6704 76.6214 46.6704 77.3579Z" stroke="#D8D7D7" stroke-width="2" stroke-linecap="round"/>
<path fill-rule="evenodd" clip-rule="evenodd" d="M29.3256 77.3579C29.3256 78.0944 28.7293 78.6921 27.9914 78.6921C27.2536 78.6921 26.6572 78.0944 26.6572 77.3579C26.6572 76.6214 27.2536 76.0237 27.9914 76.0237C28.7293 76.0237 29.3256 76.6214 29.3256 77.3579Z" stroke="#D8D7D7" stroke-width="2" stroke-linecap="round"/>
<path fill-rule="evenodd" clip-rule="evenodd" d="M9.3125 52.0079H46.6704V44.0026H9.3125V52.0079Z" stroke="#D8D7D7" stroke-width="2" stroke-linecap="round"/>
<path fill-rule="evenodd" clip-rule="evenodd" d="M8.21719 23.6012C8.94834 29.9107 9.31258 36.5457 9.31258 44.0026H46.6705C46.6705 36.5457 47.036 29.9107 47.7672 23.6012C49.1414 11.7361 39.9367 1.30789 27.9929 1.30789H27.9902C16.0463 1.30789 6.84295 11.7361 8.21719 23.6012Z" stroke="#D8D7D7" stroke-width="2" stroke-linecap="round"/>
<path d="M27.9923 65.35V52.0079" stroke="#D8D7D7" stroke-width="2" stroke-linecap="round"/>
<path fill-rule="evenodd" clip-rule="evenodd" d="M3.97604 52.0079H9.31288V37.3316C9.31288 35.1208 7.52104 33.3289 5.31025 33.3289C3.09946 33.3289 1.30762 35.1208 1.30762 37.3316V49.3395C1.30762 50.8124 2.50307 52.0079 3.97604 52.0079Z" stroke="#D8D7D7" stroke-width="2" stroke-linecap="round"/>
<path fill-rule="evenodd" clip-rule="evenodd" d="M46.6709 52.0079H52.0077C53.4807 52.0079 54.6762 50.8124 54.6762 49.3395V37.3316C54.6762 35.1208 52.8843 33.3289 50.6735 33.3289C48.4627 33.3289 46.6709 35.1208 46.6709 37.3316V52.0079Z" stroke="#D8D7D7" stroke-width="2" stroke-linecap="round"/>
<path d="M33.329 57.3447H27.9922" stroke="#D8D7D7" stroke-width="2" stroke-linecap="round"/>
<path d="M33.3282 57.3447V58.6789" stroke="#D8D7D7" stroke-width="2" stroke-linecap="round"/>
</svg>
