<svg width="80" height="62" viewBox="0 0 80 62" fill="none" xmlns="http://www.w3.org/2000/svg">
<path d="M79.0002 1V18.4828C79.0002 20.7004 77.1834 22.5159 74.9671 22.5159H66.8968C64.6805 22.5159 62.8623 20.7004 62.8623 18.4828L62.865 1" stroke="#30CD9A" stroke-width="2" stroke-linecap="round" stroke-linejoin="round"/>
<path d="M68.2417 1V17.1379" stroke="#30CD9A" stroke-width="2" stroke-linecap="round" stroke-linejoin="round"/>
<path fill-rule="evenodd" clip-rule="evenodd" d="M73.6209 22.5172V26.5517C73.6209 27.715 73.6667 28.8769 73.7608 30.0362L75.8574 54.8119C76.1008 57.6966 73.8253 60.1724 70.9313 60.1724C68.0372 60.1724 65.7618 57.6966 66.0052 54.8119L68.1018 30.0362C68.1959 28.8769 68.2416 27.715 68.2416 26.5517V22.5172" fill="#30CD9A" fill-opacity="0.1"/>
<path d="M73.6209 22.5172V26.5517C73.6209 27.715 73.6667 28.8769 73.7608 30.0362L75.8574 54.8119C76.1008 57.6966 73.8253 60.1724 70.9313 60.1724C68.0372 60.1724 65.7618 57.6966 66.0052 54.8119L68.1018 30.0362C68.1959 28.8769 68.2416 27.715 68.2416 26.5517V22.5172" stroke="#30CD9A" stroke-width="2" stroke-linecap="round" stroke-linejoin="round"/>
<path fill-rule="evenodd" clip-rule="evenodd" d="M59 31C59 47.0159 46.0159 60 30 60C13.9841 60 1 47.0159 1 31C1 14.9841 13.9841 2 30 2C46.0159 2 59 14.9841 59 31Z" stroke="#D8D7D7" stroke-width="2" stroke-linecap="round"/>
<path fill-rule="evenodd" clip-rule="evenodd" d="M47 31C47 40.3886 39.3886 48 30 48C20.6114 48 13 40.3886 13 31C13 21.6114 20.6114 14 30 14C39.3886 14 47 21.6114 47 31Z" stroke="#D8D7D7" stroke-width="2" stroke-linecap="round"/>
<path d="M73.6207 1V17.1379" stroke="#30CD9A" stroke-width="2" stroke-linecap="round" stroke-linejoin="round"/>
</svg>
