<svg width="202" height="70" viewBox="0 0 202 70" fill="none" xmlns="http://www.w3.org/2000/svg">
<path fill-rule="evenodd" clip-rule="evenodd" d="M182.381 5.76253C182.075 6.28054 179.663 6.33172 177.576 4.88977C175.488 3.44783 174.037 3.65565e-05 174.037 3.65565e-05C174.037 3.65565e-05 177.539 -0.0273193 179.626 1.41463C181.714 2.85658 182.687 5.24452 182.381 5.76253ZM188.288 11.4897C188.053 12.0377 185.986 12.7507 183.824 12.118C181.602 11.4685 179.429 8.84933 179.429 8.84933C179.429 8.84933 182.527 7.77096 184.748 8.42045C185.013 8.49811 185.265 8.59341 185.506 8.70019C185.39 8.44251 185.284 8.17248 185.194 7.88744C184.453 5.53038 185.249 2.117 185.249 2.117C185.249 2.117 187.805 4.29581 188.547 6.65199C189.252 8.89257 188.767 11.1181 188.288 11.4897ZM184.758 15.7601C184.758 15.7601 186.694 19.057 189.016 20.2068C191.276 21.3267 193.657 20.9534 194.007 20.401C194.594 20.0886 195.501 17.7492 195.107 15.1574C194.693 12.4314 192.264 9.54224 192.264 9.54224C192.264 9.54224 190.816 13.1206 191.23 15.8466C191.28 16.1757 191.351 16.4925 191.434 16.7979C191.188 16.6337 190.928 16.4784 190.652 16.3416C188.33 15.1918 184.758 15.7601 184.758 15.7601ZM188.031 22.728C188.031 22.728 192.307 23.3096 194.636 25.4345C194.912 25.686 195.166 25.9517 195.4 26.2252C195.396 25.8466 195.409 25.4592 195.449 25.0648C195.778 21.7873 198.499 18.1727 198.499 18.1727C198.499 18.1727 200.439 22.3353 200.11 25.6128C199.797 28.7288 198.064 31.1052 197.296 31.2614C196.731 31.7759 193.882 31.3815 191.614 29.313C189.284 27.188 188.031 22.728 188.031 22.728ZM201.87 30.2827C201.87 30.2827 198.209 32.6424 196.912 35.5122C196.786 35.7902 196.682 36.069 196.587 36.3479C196.435 35.9711 196.256 35.5934 196.043 35.2219C194.48 32.4924 190.612 30.5024 190.612 30.5024C190.612 30.5024 190.455 34.9898 192.019 37.7192C193.336 40.0189 195.44 41.325 196.431 41.4582C196.509 41.6056 196.594 41.7106 196.684 41.7548C197.317 42.0671 199.857 40.4734 201.155 37.6036C202.452 34.7339 201.87 30.2827 201.87 30.2827ZM194.276 45.7778C194.347 46.1996 194.385 46.6143 194.401 47.0194C194.575 46.7952 194.758 46.5737 194.96 46.3611C197.045 44.1637 201.082 43.2927 201.082 43.2927C201.082 43.2927 200.171 47.6354 198.085 49.8327C196 52.03 193.213 52.593 192.747 52.075C192.681 52.0009 192.638 51.8729 192.616 51.7079C191.772 51.227 190.308 49.2556 189.869 46.6452C189.349 43.5469 190.933 39.4373 190.933 39.4373C190.933 39.4373 193.755 42.6794 194.276 45.7778ZM190.413 55.9289C190.184 56.0586 189.975 56.2033 189.77 56.3489C189.838 56.0198 189.89 55.68 189.911 55.3262C190.058 52.76 188.15 49.6078 188.15 49.6078C188.15 49.6078 185.894 52.5455 185.747 55.1117C185.623 57.2808 186.559 59.1411 187.228 59.6891C187.215 59.825 187.223 59.9397 187.268 60.012C187.587 60.5186 190.222 60.643 192.549 59.3264C194.877 58.0097 196.569 54.749 196.569 54.749C196.569 54.749 192.74 54.6122 190.413 55.9289ZM182.438 63.3019C182.633 63.2419 182.83 63.1828 183.037 63.1431C185.141 62.7389 187.926 64.0123 187.926 64.0123C187.926 64.0123 185.716 66.2432 183.612 66.6473C181.507 67.0515 179.599 66.1496 179.514 65.6272C179.502 65.5531 179.529 65.4543 179.579 65.3439C179.247 64.6803 179.105 62.8316 179.836 61.0446C180.701 58.9293 183.231 57.1406 183.231 57.1406C183.231 57.1406 183.708 60.3695 182.843 62.4839C182.724 62.776 182.586 63.046 182.438 63.3019ZM175.393 66.6535C175.6 66.4682 175.803 66.2679 175.993 66.0419C177.372 64.4085 177.768 61.3966 177.768 61.3966C177.768 61.3966 174.892 62.2597 173.514 63.8923C172.349 65.2724 171.997 66.9588 172.138 67.6454C172.063 67.7292 172.01 67.8095 172.001 67.8792C171.945 68.369 173.521 69.7227 175.628 69.9698C177.735 70.2169 180.422 68.8685 180.422 68.8685C180.422 68.8685 178.11 66.9323 176.004 66.6853C175.796 66.6605 175.595 66.6561 175.393 66.6535ZM24.4243 4.8897C26.5117 3.44777 27.9628 3.65559e-05 27.9628 3.65559e-05C27.9628 3.65559e-05 24.461 -0.0273189 22.3737 1.41461C20.2863 2.85653 19.3132 5.24444 19.6191 5.76244C19.9249 6.28044 22.3369 6.33074 24.4243 4.8897ZM13.7124 11.4895C13.9473 12.0366 16.0135 12.7505 18.1759 12.1178C20.397 11.4683 22.5708 8.8483 22.5708 8.8483C22.5708 8.8483 19.4728 7.76994 17.2517 8.41943C16.9874 8.49708 16.7354 8.59239 16.4939 8.69916C16.6098 8.44149 16.7158 8.17146 16.8055 7.88643C17.547 5.5294 16.7509 2.11608 16.7509 2.11608C16.7509 2.11608 14.1953 4.29485 13.453 6.651C12.7483 8.8933 13.2336 11.118 13.7124 11.4895ZM12.9837 20.2063C10.7234 21.3253 8.34242 20.9529 7.99249 20.4005C7.40519 20.0881 6.49814 17.7487 6.89212 15.1569C7.30567 12.4311 9.73562 9.54191 9.73562 9.54191C9.73562 9.54191 11.1827 13.1202 10.7691 15.8461C10.7185 16.1753 10.6484 16.4921 10.5652 16.7974C10.8115 16.6333 11.0709 16.478 11.3474 16.3412C13.6697 15.1914 17.2416 15.7597 17.2416 15.7597C17.2416 15.7597 15.3052 19.0565 12.9837 20.2063ZM4.70501 31.2607C5.27028 31.7752 8.11868 31.3807 10.3871 29.3123C12.7167 27.1873 13.9705 22.7274 13.9705 22.7274C13.9705 22.7274 9.6946 23.309 7.36498 25.4339C7.08846 25.6854 6.8356 25.9519 6.60149 26.2246C6.6072 25.8469 6.59334 25.4586 6.55337 25.0642C6.22464 21.7867 3.50268 18.1722 3.50268 18.1722C3.50268 18.1722 1.56214 22.3347 1.89168 25.6122C2.20409 28.729 3.93744 31.1054 4.70501 31.2607ZM5.56853 41.4576C5.49104 41.6041 5.40539 41.71 5.31566 41.7541C4.68269 42.0656 2.14262 40.4728 0.845666 37.6031C-0.452102 34.7325 0.130303 30.2823 0.130303 30.2823C0.130303 30.2823 3.79113 32.642 5.08809 35.5117C5.2137 35.7897 5.31811 36.0685 5.41273 36.3474C5.56608 35.9706 5.7439 35.5929 5.9568 35.2214C7.52048 32.4919 11.3877 30.502 11.3877 30.502C11.3877 30.502 11.5451 34.9893 9.98143 37.7187C8.66408 40.0184 6.5596 41.3244 5.56853 41.4576ZM9.25301 52.0744C9.31908 52.0012 9.3615 51.8723 9.38352 51.7082C10.2278 51.2273 11.6919 49.2559 12.1308 46.6456C12.652 43.5473 11.0663 39.4377 11.0663 39.4377C11.0663 39.4377 8.244 42.6798 7.72358 45.7781C7.65262 46.1999 7.61428 46.6147 7.59878 47.0197C7.42422 46.7956 7.24069 46.5741 7.03922 46.3614C4.95349 44.1641 0.916626 43.2931 0.916626 43.2931C0.916626 43.2931 1.82857 47.6357 3.91348 49.833C5.99921 52.0294 8.78643 52.5924 9.25301 52.0744ZM16.2527 55.1109C16.3767 57.2799 15.4411 59.1401 14.7722 59.6882C14.7853 59.8241 14.7779 59.9388 14.7323 60.0102C14.4133 60.5168 11.7778 60.6412 9.45064 59.3246C7.12347 58.008 5.43091 54.7473 5.43091 54.7473C5.43091 54.7473 9.25977 54.6114 11.5869 55.928C11.8162 56.0577 12.0242 56.2025 12.2305 56.3481C12.162 56.0189 12.1098 55.6792 12.0894 55.3253C11.9426 52.7591 13.8497 49.607 13.8497 49.607C13.8497 49.607 16.1059 52.5447 16.2527 55.1109ZM22.4867 65.6253C22.4989 65.5512 22.4712 65.4515 22.4215 65.3421C22.7534 64.6785 22.8954 62.8306 22.1645 61.0428C21.2999 58.9284 18.7696 57.1388 18.7696 57.1388C18.7696 57.1388 18.2916 60.3677 19.157 62.482C19.2761 62.7741 19.4148 63.0442 19.5624 63.3001C19.3675 63.2401 19.1709 63.1809 18.9637 63.1412C16.8592 62.7371 14.0745 64.0096 14.0745 64.0096C14.0745 64.0096 16.2842 66.2404 18.3887 66.6446C20.4932 67.0487 22.4011 66.1477 22.4867 65.6253ZM28.4862 63.8921C29.651 65.2723 30.0018 66.9586 29.8615 67.6452C29.9373 67.7281 29.9904 67.8084 29.9985 67.879C30.0548 68.3688 28.4789 69.7225 26.372 69.9696C24.2658 70.2175 21.5781 68.8683 21.5781 68.8683C21.5781 68.8683 23.889 66.9322 25.9959 66.6851C26.2039 66.6604 26.4062 66.656 26.6069 66.6533C26.3997 66.468 26.1966 66.2668 26.0065 66.0418C24.628 64.4083 24.2324 61.3965 24.2324 61.3965C24.2324 61.3965 27.1077 62.2596 28.4862 63.8921ZM136 35.2682L128.755 38.8743C128.106 39.1973 127.664 38.8764 127.768 38.1559L128.817 30.8689C128.879 30.4364 128.684 29.8323 128.382 29.5192L123.291 24.2494C122.786 23.7266 122.955 23.2025 123.673 23.0783L130.853 21.8352C131.282 21.7609 131.794 21.3874 131.995 21.0004L135.393 14.4831C135.728 13.8393 136.272 13.8387 136.608 14.4831L140.005 21.0004C140.207 21.3871 140.716 21.7606 141.147 21.8352L148.328 23.0783C149.044 23.2022 149.215 23.727 148.71 24.2494L143.619 29.5192C143.316 29.8322 143.122 30.4362 143.184 30.8689L144.233 38.1559C144.337 38.8757 143.894 39.1971 143.245 38.8743L136 35.2682ZM58.7553 38.8743L66.0003 35.2682L73.2453 38.8743C73.8938 39.1971 74.3366 38.8757 74.2329 38.1559L73.184 30.8689C73.1217 30.4362 73.3163 29.8322 73.6187 29.5192L78.7099 24.2494C79.2146 23.727 79.0441 23.2022 78.328 23.0783L71.1474 21.8352C70.7163 21.7606 70.2069 21.3871 70.0053 21.0004L66.6079 14.4831C66.272 13.8387 65.7283 13.8393 65.3927 14.4831L61.9953 21.0004C61.7936 21.3874 61.2823 21.7609 60.8532 21.8352L53.6726 23.0783C52.955 23.2025 52.7856 23.7266 53.2907 24.2494L58.3819 29.5192C58.6844 29.8323 58.8789 30.4364 58.8167 30.8689L57.7677 38.1559C57.664 38.8764 58.1062 39.1973 58.7553 38.8743ZM40.0002 40.4624L34.9844 42.9145C34.5351 43.1342 34.2289 42.916 34.3007 42.426L35.0269 37.4709C35.07 37.1768 34.9354 36.766 34.7259 36.5531L31.2013 32.9696C30.8516 32.6141 30.9688 32.2577 31.4656 32.1732L36.4368 31.3279C36.7339 31.2774 37.0879 31.0234 37.2275 30.7602L39.5795 26.3285C39.8119 25.8907 40.1883 25.8903 40.4209 26.3285L42.7729 30.7602C42.9125 31.0233 43.2651 31.2772 43.5636 31.3279L48.5348 32.1732C49.0305 32.2575 49.1486 32.6144 48.7992 32.9696L45.2745 36.5531C45.0652 36.7659 44.9304 37.1766 44.9735 37.4709L45.6997 42.426C45.7715 42.9155 45.465 43.134 45.016 42.9145L40.0002 40.4624ZM156.984 42.9145L162 40.4624L167.016 42.9145C167.465 43.134 167.771 42.9155 167.7 42.426L166.974 37.4709C166.93 37.1766 167.065 36.7659 167.274 36.5531L170.799 32.9696C171.149 32.6144 171.031 32.2575 170.535 32.1732L165.564 31.3279C165.265 31.2772 164.912 31.0233 164.773 30.7602L162.421 26.3285C162.188 25.8903 161.812 25.8907 161.58 26.3285L159.228 30.7602C159.088 31.0234 158.734 31.2774 158.437 31.3279L153.466 32.1732C152.969 32.2577 152.852 32.6141 153.201 32.9696L156.726 36.5531C156.935 36.766 157.07 37.1768 157.027 37.4709L156.301 42.426C156.229 42.916 156.535 43.1342 156.984 42.9145ZM101 32.2233L91.5262 36.8391C90.6774 37.2526 90.099 36.8418 90.2347 35.9196L91.6064 26.5922C91.6878 26.0387 91.4335 25.2654 91.0379 24.8646L84.3802 18.1193C83.7196 17.45 83.9411 16.7792 84.8795 16.6202L94.2695 15.0291C94.8307 14.934 95.4993 14.4558 95.7631 13.9605L100.206 5.61833C100.645 4.7943 101.356 4.79348 101.795 5.61833L106.238 13.9605C106.501 14.4555 107.167 14.9335 107.731 15.0291L117.121 16.6202C118.058 16.7788 118.281 17.4506 117.621 18.1193L110.963 24.8646C110.568 25.2652 110.313 26.0383 110.394 26.5922L111.766 35.9196C111.902 36.8409 111.323 37.2523 110.475 36.8391L101 32.2233Z" fill="#F8CF22"/>
<path d="M51.7974 60.089H47.5464V58.711L51.4594 52.796H53.3314V58.75H54.6184V60.089H53.3314V62H51.7974V60.089ZM51.7974 54.629H51.7714L49.1584 58.75H51.7974V54.629ZM55.858 61.09C55.858 60.8127 55.9577 60.5743 56.157 60.375C56.365 60.1757 56.612 60.076 56.898 60.076C57.1753 60.076 57.418 60.1713 57.626 60.362C57.834 60.5527 57.938 60.7867 57.938 61.064C57.938 61.3413 57.834 61.5797 57.626 61.779C57.4267 61.9783 57.184 62.078 56.898 62.078C56.7593 62.078 56.625 62.052 56.495 62C56.3737 61.948 56.2653 61.8787 56.17 61.792C56.0747 61.7053 55.9967 61.6013 55.936 61.48C55.884 61.3587 55.858 61.2287 55.858 61.09ZM59.248 52.796H65.501V54.226L61.822 62H59.989L63.863 54.2H59.248V52.796ZM73.0845 54.2H69.3275L69.2365 56.189C69.3839 56.1457 69.5572 56.1153 69.7565 56.098C69.9645 56.0807 70.1509 56.072 70.3155 56.072C70.7662 56.072 71.1822 56.137 71.5635 56.267C71.9535 56.397 72.2915 56.5877 72.5775 56.839C72.8635 57.0817 73.0845 57.385 73.2405 57.749C73.4052 58.1043 73.4875 58.516 73.4875 58.984C73.4875 59.4953 73.3965 59.9547 73.2145 60.362C73.0412 60.7607 72.8029 61.0987 72.4995 61.376C72.1962 61.6533 71.8409 61.8657 71.4335 62.013C71.0262 62.1603 70.5929 62.234 70.1335 62.234C69.3622 62.234 68.7122 62.0563 68.1835 61.701C67.6549 61.337 67.2692 60.843 67.0265 60.219L68.4435 59.699C68.5735 60.063 68.7902 60.3577 69.0935 60.583C69.3969 60.7997 69.7565 60.908 70.1725 60.908C70.4065 60.908 70.6275 60.869 70.8355 60.791C71.0435 60.713 71.2255 60.6003 71.3815 60.453C71.5375 60.3057 71.6589 60.1237 71.7455 59.907C71.8409 59.6817 71.8885 59.4303 71.8885 59.153C71.8885 58.7977 71.8279 58.503 71.7065 58.269C71.5852 58.035 71.4249 57.8487 71.2255 57.71C71.0349 57.5627 70.8182 57.463 70.5755 57.411C70.3329 57.3503 70.0859 57.32 69.8345 57.32C69.6612 57.32 69.4749 57.333 69.2755 57.359C69.0849 57.385 68.8942 57.424 68.7035 57.476C68.5215 57.5193 68.3395 57.5713 68.1575 57.632C67.9842 57.6927 67.8282 57.7577 67.6895 57.827L67.8455 52.796H73.0845V54.2ZM84.9841 55.76V61.441C84.9841 62.0043 84.9148 62.5113 84.7761 62.962C84.6374 63.4213 84.4208 63.807 84.1261 64.119C83.8401 64.4397 83.4761 64.6867 83.0341 64.86C82.5921 65.0333 82.0678 65.12 81.4611 65.12C81.2098 65.12 80.9411 65.0983 80.6551 65.055C80.3778 65.0117 80.1004 64.9467 79.8231 64.86C79.5544 64.7733 79.2944 64.665 79.0431 64.535C78.7918 64.405 78.5664 64.2577 78.3671 64.093L79.2641 62.884C79.5674 63.17 79.9098 63.3867 80.2911 63.534C80.6724 63.69 81.0581 63.768 81.4481 63.768C81.8208 63.768 82.1328 63.7117 82.3841 63.599C82.6441 63.495 82.8478 63.3477 82.9951 63.157C83.1511 62.9663 83.2594 62.741 83.3201 62.481C83.3894 62.221 83.4241 61.935 83.4241 61.623V61.168H83.3981C83.1728 61.4713 82.8824 61.7053 82.5271 61.87C82.1804 62.026 81.7904 62.104 81.3571 62.104C80.8891 62.104 80.4644 62.0173 80.0831 61.844C79.7018 61.6707 79.3768 61.4367 79.1081 61.142C78.8481 60.8473 78.6444 60.505 78.4971 60.115C78.3498 59.7163 78.2761 59.296 78.2761 58.854C78.2761 58.4033 78.3454 57.9787 78.4841 57.58C78.6314 57.1813 78.8351 56.8347 79.0951 56.54C79.3638 56.2453 79.6844 56.0113 80.0571 55.838C80.4384 55.6647 80.8631 55.578 81.3311 55.578C81.7731 55.578 82.1848 55.669 82.5661 55.851C82.9474 56.033 83.2508 56.3147 83.4761 56.696H83.5021V55.76H84.9841ZM81.6561 56.852C81.3701 56.852 81.1144 56.904 80.8891 57.008C80.6724 57.112 80.4861 57.255 80.3301 57.437C80.1828 57.6103 80.0658 57.8183 79.9791 58.061C79.9011 58.3037 79.8621 58.5637 79.8621 58.841C79.8621 59.0923 79.9011 59.335 79.9791 59.569C80.0658 59.803 80.1828 60.0153 80.3301 60.206C80.4861 60.388 80.6724 60.5353 80.8891 60.648C81.1144 60.7607 81.3658 60.817 81.6431 60.817C81.9291 60.817 82.1848 60.765 82.4101 60.661C82.6441 60.5483 82.8391 60.401 82.9951 60.219C83.1598 60.037 83.2854 59.829 83.3721 59.595C83.4588 59.3523 83.5021 59.101 83.5021 58.841C83.5021 58.5723 83.4588 58.3167 83.3721 58.074C83.2854 57.8313 83.1598 57.619 82.9951 57.437C82.8391 57.255 82.6484 57.112 82.4231 57.008C82.1978 56.904 81.9421 56.852 81.6561 56.852ZM86.88 52.172H88.44V62H86.88V52.172ZM89.9685 58.854C89.9685 58.36 90.0552 57.9137 90.2285 57.515C90.4105 57.1077 90.6532 56.761 90.9565 56.475C91.2598 56.189 91.6195 55.968 92.0355 55.812C92.4515 55.656 92.8935 55.578 93.3615 55.578C93.8295 55.578 94.2715 55.656 94.6875 55.812C95.1035 55.968 95.4632 56.189 95.7665 56.475C96.0698 56.761 96.3082 57.1077 96.4815 57.515C96.6635 57.9137 96.7545 58.36 96.7545 58.854C96.7545 59.348 96.6635 59.7987 96.4815 60.206C96.3082 60.6133 96.0698 60.9643 95.7665 61.259C95.4632 61.545 95.1035 61.7703 94.6875 61.935C94.2715 62.0997 93.8295 62.182 93.3615 62.182C92.8935 62.182 92.4515 62.0997 92.0355 61.935C91.6195 61.7703 91.2598 61.545 90.9565 61.259C90.6532 60.9643 90.4105 60.6133 90.2285 60.206C90.0552 59.7987 89.9685 59.348 89.9685 58.854ZM91.5545 58.854C91.5545 59.0967 91.5892 59.3393 91.6585 59.582C91.7365 59.8247 91.8492 60.0413 91.9965 60.232C92.1438 60.4227 92.3302 60.5787 92.5555 60.7C92.7808 60.8213 93.0495 60.882 93.3615 60.882C93.6735 60.882 93.9422 60.8213 94.1675 60.7C94.3928 60.5787 94.5792 60.4227 94.7265 60.232C94.8738 60.0413 94.9822 59.8247 95.0515 59.582C95.1295 59.3393 95.1685 59.0967 95.1685 58.854C95.1685 58.6113 95.1295 58.373 95.0515 58.139C94.9822 57.8963 94.8738 57.6797 94.7265 57.489C94.5792 57.2983 94.3928 57.1467 94.1675 57.034C93.9422 56.9127 93.6735 56.852 93.3615 56.852C93.0495 56.852 92.7808 56.9127 92.5555 57.034C92.3302 57.1467 92.1438 57.2983 91.9965 57.489C91.8492 57.6797 91.7365 57.8963 91.6585 58.139C91.5892 58.373 91.5545 58.6113 91.5545 58.854ZM99.8531 52.172V56.553H99.8921C99.9701 56.449 100.07 56.3407 100.191 56.228C100.312 56.1153 100.455 56.0113 100.62 55.916C100.793 55.8207 100.993 55.7427 101.218 55.682C101.443 55.6127 101.699 55.578 101.985 55.578C102.427 55.578 102.834 55.6647 103.207 55.838C103.58 56.0027 103.9 56.2323 104.169 56.527C104.438 56.8217 104.646 57.1683 104.793 57.567C104.94 57.9657 105.014 58.3947 105.014 58.854C105.014 59.3133 104.94 59.7467 104.793 60.154C104.654 60.5527 104.451 60.9037 104.182 61.207C103.922 61.5017 103.601 61.74 103.22 61.922C102.847 62.0953 102.423 62.182 101.946 62.182C101.504 62.182 101.088 62.0867 100.698 61.896C100.317 61.7053 100.018 61.428 99.8011 61.064H99.7751V62H98.2931V52.172H99.8531ZM103.428 58.854C103.428 58.6113 103.389 58.373 103.311 58.139C103.242 57.8963 103.133 57.6797 102.986 57.489C102.839 57.2983 102.652 57.1467 102.427 57.034C102.202 56.9127 101.937 56.852 101.634 56.852C101.348 56.852 101.092 56.9127 100.867 57.034C100.642 57.1553 100.447 57.3113 100.282 57.502C100.126 57.6927 100.005 57.9093 99.9181 58.152C99.8401 58.3947 99.8011 58.6373 99.8011 58.88C99.8011 59.1227 99.8401 59.3653 99.9181 59.608C100.005 59.842 100.126 60.0543 100.282 60.245C100.447 60.4357 100.642 60.5917 100.867 60.713C101.092 60.8257 101.348 60.882 101.634 60.882C101.937 60.882 102.202 60.8213 102.427 60.7C102.652 60.5787 102.839 60.4227 102.986 60.232C103.133 60.0413 103.242 59.8247 103.311 59.582C103.389 59.3393 103.428 59.0967 103.428 58.854ZM110.393 61.207H110.354C110.198 61.4843 109.947 61.714 109.6 61.896C109.253 62.0693 108.859 62.156 108.417 62.156C108.166 62.156 107.901 62.1213 107.624 62.052C107.355 61.9913 107.104 61.8873 106.87 61.74C106.645 61.584 106.454 61.3847 106.298 61.142C106.151 60.8907 106.077 60.583 106.077 60.219C106.077 59.751 106.207 59.3783 106.467 59.101C106.736 58.8237 107.078 58.6113 107.494 58.464C107.91 58.3167 108.369 58.2213 108.872 58.178C109.383 58.126 109.882 58.1 110.367 58.1V57.944C110.367 57.554 110.224 57.268 109.938 57.086C109.661 56.8953 109.327 56.8 108.937 56.8C108.608 56.8 108.291 56.8693 107.988 57.008C107.685 57.1467 107.433 57.3157 107.234 57.515L106.428 56.566C106.783 56.2367 107.191 55.9897 107.65 55.825C108.118 55.6603 108.59 55.578 109.067 55.578C109.622 55.578 110.077 55.656 110.432 55.812C110.796 55.968 111.082 56.1717 111.29 56.423C111.498 56.6743 111.641 56.956 111.719 57.268C111.806 57.58 111.849 57.892 111.849 58.204V62H110.393V61.207ZM110.367 59.153H110.016C109.765 59.153 109.5 59.166 109.223 59.192C108.946 59.2093 108.69 59.257 108.456 59.335C108.222 59.4043 108.027 59.5083 107.871 59.647C107.715 59.777 107.637 59.959 107.637 60.193C107.637 60.3403 107.667 60.466 107.728 60.57C107.797 60.6653 107.884 60.7433 107.988 60.804C108.092 60.8647 108.209 60.908 108.339 60.934C108.469 60.96 108.599 60.973 108.729 60.973C109.266 60.973 109.674 60.83 109.951 60.544C110.228 60.258 110.367 59.868 110.367 59.374V59.153ZM113.692 52.172H115.252V62H113.692V52.172ZM120.395 55.76H121.89V56.8H121.916C122.089 56.436 122.332 56.1413 122.644 55.916C122.956 55.6907 123.32 55.578 123.736 55.578C123.797 55.578 123.862 55.5823 123.931 55.591C124 55.591 124.061 55.5997 124.113 55.617V57.047C124.009 57.021 123.918 57.0037 123.84 56.995C123.771 56.9863 123.701 56.982 123.632 56.982C123.277 56.982 122.991 57.047 122.774 57.177C122.557 57.307 122.388 57.463 122.267 57.645C122.146 57.827 122.063 58.0133 122.02 58.204C121.977 58.3947 121.955 58.5463 121.955 58.659V62H120.395V55.76ZM128.839 61.207H128.8C128.644 61.4843 128.393 61.714 128.046 61.896C127.7 62.0693 127.305 62.156 126.863 62.156C126.612 62.156 126.348 62.1213 126.07 62.052C125.802 61.9913 125.55 61.8873 125.316 61.74C125.091 61.584 124.9 61.3847 124.744 61.142C124.597 60.8907 124.523 60.583 124.523 60.219C124.523 59.751 124.653 59.3783 124.913 59.101C125.182 58.8237 125.524 58.6113 125.94 58.464C126.356 58.3167 126.816 58.2213 127.318 58.178C127.83 58.126 128.328 58.1 128.813 58.1V57.944C128.813 57.554 128.67 57.268 128.384 57.086C128.107 56.8953 127.773 56.8 127.383 56.8C127.054 56.8 126.738 56.8693 126.434 57.008C126.131 57.1467 125.88 57.3157 125.68 57.515L124.874 56.566C125.23 56.2367 125.637 55.9897 126.096 55.825C126.564 55.6603 127.037 55.578 127.513 55.578C128.068 55.578 128.523 55.656 128.878 55.812C129.242 55.968 129.528 56.1717 129.736 56.423C129.944 56.6743 130.087 56.956 130.165 57.268C130.252 57.58 130.295 57.892 130.295 58.204V62H128.839V61.207ZM128.813 59.153H128.462C128.211 59.153 127.947 59.166 127.669 59.192C127.392 59.2093 127.136 59.257 126.902 59.335C126.668 59.4043 126.473 59.5083 126.317 59.647C126.161 59.777 126.083 59.959 126.083 60.193C126.083 60.3403 126.114 60.466 126.174 60.57C126.244 60.6653 126.33 60.7433 126.434 60.804C126.538 60.8647 126.655 60.908 126.785 60.934C126.915 60.96 127.045 60.973 127.175 60.973C127.713 60.973 128.12 60.83 128.397 60.544C128.675 60.258 128.813 59.868 128.813 59.374V59.153ZM131.089 57.008V55.76H132.181V53.953H133.715V55.76H135.275V57.008H133.715V59.907C133.715 60.1843 133.762 60.414 133.858 60.596C133.962 60.778 134.187 60.869 134.534 60.869C134.638 60.869 134.75 60.8603 134.872 60.843C134.993 60.817 135.101 60.7823 135.197 60.739L135.249 61.961C135.11 62.013 134.945 62.052 134.755 62.078C134.564 62.1127 134.382 62.13 134.209 62.13C133.793 62.13 133.455 62.0737 133.195 61.961C132.935 61.8397 132.727 61.6793 132.571 61.48C132.423 61.272 132.319 61.038 132.259 60.778C132.207 60.5093 132.181 60.2233 132.181 59.92V57.008H131.089ZM136.43 55.76H137.99V62H136.43V55.76ZM136.209 53.641C136.209 53.3897 136.3 53.173 136.482 52.991C136.672 52.8003 136.911 52.705 137.197 52.705C137.483 52.705 137.721 52.796 137.912 52.978C138.111 53.1513 138.211 53.3723 138.211 53.641C138.211 53.9097 138.111 54.135 137.912 54.317C137.721 54.4903 137.483 54.577 137.197 54.577C136.911 54.577 136.672 54.486 136.482 54.304C136.3 54.1133 136.209 53.8923 136.209 53.641ZM139.882 55.76H141.364V56.761H141.39C141.529 56.449 141.767 56.176 142.105 55.942C142.452 55.6993 142.859 55.578 143.327 55.578C143.735 55.578 144.081 55.6517 144.367 55.799C144.662 55.9377 144.9 56.124 145.082 56.358C145.273 56.592 145.412 56.8607 145.498 57.164C145.585 57.4673 145.628 57.7793 145.628 58.1V62H144.068V58.542C144.068 58.36 144.055 58.1693 144.029 57.97C144.003 57.7707 143.947 57.593 143.86 57.437C143.774 57.2723 143.652 57.138 143.496 57.034C143.349 56.93 143.15 56.878 142.898 56.878C142.647 56.878 142.43 56.93 142.248 57.034C142.066 57.1293 141.915 57.255 141.793 57.411C141.681 57.567 141.594 57.749 141.533 57.957C141.473 58.1563 141.442 58.36 141.442 58.568V62H139.882V55.76ZM153.793 55.76V61.441C153.793 62.0043 153.723 62.5113 153.585 62.962C153.446 63.4213 153.229 63.807 152.935 64.119C152.649 64.4397 152.285 64.6867 151.843 64.86C151.401 65.0333 150.876 65.12 150.27 65.12C150.018 65.12 149.75 65.0983 149.464 65.055C149.186 65.0117 148.909 64.9467 148.632 64.86C148.363 64.7733 148.103 64.665 147.852 64.535C147.6 64.405 147.375 64.2577 147.176 64.093L148.073 62.884C148.376 63.17 148.718 63.3867 149.1 63.534C149.481 63.69 149.867 63.768 150.257 63.768C150.629 63.768 150.941 63.7117 151.193 63.599C151.453 63.495 151.656 63.3477 151.804 63.157C151.96 62.9663 152.068 62.741 152.129 62.481C152.198 62.221 152.233 61.935 152.233 61.623V61.168H152.207C151.981 61.4713 151.691 61.7053 151.336 61.87C150.989 62.026 150.599 62.104 150.166 62.104C149.698 62.104 149.273 62.0173 148.892 61.844C148.51 61.6707 148.185 61.4367 147.917 61.142C147.657 60.8473 147.453 60.505 147.306 60.115C147.158 59.7163 147.085 59.296 147.085 58.854C147.085 58.4033 147.154 57.9787 147.293 57.58C147.44 57.1813 147.644 56.8347 147.904 56.54C148.172 56.2453 148.493 56.0113 148.866 55.838C149.247 55.6647 149.672 55.578 150.14 55.578C150.582 55.578 150.993 55.669 151.375 55.851C151.756 56.033 152.059 56.3147 152.285 56.696H152.311V55.76H153.793ZM150.465 56.852C150.179 56.852 149.923 56.904 149.698 57.008C149.481 57.112 149.295 57.255 149.139 57.437C148.991 57.6103 148.874 57.8183 148.788 58.061C148.71 58.3037 148.671 58.5637 148.671 58.841C148.671 59.0923 148.71 59.335 148.788 59.569C148.874 59.803 148.991 60.0153 149.139 60.206C149.295 60.388 149.481 60.5353 149.698 60.648C149.923 60.7607 150.174 60.817 150.452 60.817C150.738 60.817 150.993 60.765 151.219 60.661C151.453 60.5483 151.648 60.401 151.804 60.219C151.968 60.037 152.094 59.829 152.181 59.595C152.267 59.3523 152.311 59.101 152.311 58.841C152.311 58.5723 152.267 58.3167 152.181 58.074C152.094 57.8313 151.968 57.619 151.804 57.437C151.648 57.255 151.457 57.112 151.232 57.008C151.006 56.904 150.751 56.852 150.465 56.852Z" fill="black"/>
</svg>
