<svg width="130" height="39" viewBox="0 0 130 39" fill="none" xmlns="http://www.w3.org/2000/svg">
<path d="M1.13541 4.69394H7.78777V6.29517H2.96954V9.11914H7.51119V10.6621H2.96954V15H1.13541V4.69394ZM9.16575 8.01284H10.9125V15H9.16575V8.01284ZM8.91829 5.64012C8.91829 5.35869 9.02019 5.11609 9.22398 4.91229C9.43748 4.6988 9.70435 4.59205 10.0246 4.59205C10.3448 4.59205 10.6117 4.69394 10.8252 4.89774C11.0484 5.09182 11.16 5.33929 11.16 5.64012C11.16 5.94096 11.0484 6.19327 10.8252 6.39706C10.6117 6.59115 10.3448 6.6882 10.0246 6.6882C9.70435 6.6882 9.43748 6.5863 9.22398 6.38251C9.02019 6.16901 8.91829 5.92155 8.91829 5.64012ZM12.0273 9.41028V8.01284H13.25V5.98948H14.9677V8.01284H16.7145V9.41028H14.9677V12.6564C14.9677 12.9669 15.0211 13.2241 15.1278 13.4279C15.2443 13.6317 15.4966 13.7336 15.8847 13.7336C16.0012 13.7336 16.1274 13.7239 16.2632 13.7045C16.3991 13.6754 16.5204 13.6365 16.6271 13.588L16.6854 14.9563C16.5301 15.0146 16.3457 15.0582 16.1322 15.0873C15.9187 15.1262 15.7149 15.1456 15.5208 15.1456C15.055 15.1456 14.6766 15.0825 14.3854 14.9563C14.0943 14.8205 13.8614 14.6409 13.6867 14.4177C13.5217 14.1848 13.4053 13.9228 13.3373 13.6317C13.2791 13.3308 13.25 13.0106 13.25 12.6709V9.41028H12.0273ZM17.9786 8.01284H19.6381V9.1337H19.6672C19.8225 8.78434 20.0893 8.47865 20.4678 8.21664C20.856 7.94491 21.3121 7.80905 21.8361 7.80905C22.2922 7.80905 22.6804 7.89154 23.0006 8.05651C23.3306 8.21178 23.5975 8.42043 23.8013 8.68245C24.0147 8.94446 24.17 9.2453 24.2671 9.58495C24.3641 9.92461 24.4126 10.274 24.4126 10.633V15H22.6658V11.128C22.6658 10.9242 22.6513 10.7107 22.6222 10.4875C22.5931 10.2643 22.53 10.0653 22.4329 9.89064C22.3359 9.70626 22.2 9.55584 22.0253 9.43939C21.8604 9.32294 21.6372 9.26471 21.3557 9.26471C21.0743 9.26471 20.8317 9.32294 20.6279 9.43939C20.4241 9.54614 20.2543 9.68685 20.1184 9.86153C19.9923 10.0362 19.8952 10.24 19.8273 10.4729C19.7594 10.6961 19.7254 10.9242 19.7254 11.1571V15H17.9786V8.01284ZM31.3711 10.8077C31.3711 10.5845 31.3372 10.371 31.2692 10.1672C31.211 9.96342 31.114 9.78389 30.9781 9.62862C30.8422 9.47335 30.6676 9.35205 30.4541 9.26471C30.2503 9.16767 30.0077 9.11914 29.7262 9.11914C29.2022 9.11914 28.7558 9.27927 28.387 9.59951C28.028 9.91005 27.829 10.3128 27.7902 10.8077H31.3711ZM33.1179 11.5938C33.1179 11.6714 33.1179 11.749 33.1179 11.8267C33.1179 11.9043 33.1131 11.9819 33.1034 12.0596H27.7902C27.8096 12.3119 27.8727 12.5448 27.9794 12.7583C28.0959 12.9621 28.2463 13.1416 28.4307 13.2969C28.6151 13.4424 28.8237 13.5589 29.0566 13.6462C29.2895 13.7336 29.5321 13.7772 29.7845 13.7772C30.2212 13.7772 30.5899 13.6996 30.8908 13.5443C31.1916 13.3794 31.4391 13.1562 31.6331 12.8747L32.7977 13.8064C32.1087 14.738 31.1091 15.2038 29.799 15.2038C29.2556 15.2038 28.7558 15.1213 28.2997 14.9563C27.8436 14.7817 27.4457 14.539 27.106 14.2285C26.7761 13.918 26.5141 13.5395 26.32 13.0931C26.1356 12.637 26.0434 12.1227 26.0434 11.5501C26.0434 10.9872 26.1356 10.4778 26.32 10.0217C26.5141 9.55584 26.7761 9.16281 27.106 8.84257C27.436 8.51262 27.8242 8.26031 28.2706 8.08563C28.7267 7.90124 29.2168 7.80905 29.7408 7.80905C30.226 7.80905 30.6724 7.89154 31.08 8.05651C31.4973 8.21178 31.8563 8.44954 32.1572 8.76979C32.458 9.08033 32.6909 9.47335 32.8559 9.94887C33.0306 10.4147 33.1179 10.963 33.1179 11.5938ZM38.638 9.87609C38.4828 9.67229 38.2693 9.49761 37.9976 9.35205C37.7258 9.19678 37.4298 9.11914 37.1096 9.11914C36.8282 9.11914 36.571 9.17737 36.3381 9.29382C36.1052 9.41027 35.9887 9.60436 35.9887 9.87609C35.9887 10.1478 36.1149 10.3419 36.3672 10.4583C36.6292 10.5651 37.0077 10.6767 37.5026 10.7931C37.7646 10.8514 38.0267 10.929 38.2887 11.0261C38.5604 11.1231 38.803 11.2541 39.0165 11.4191C39.2397 11.5744 39.4192 11.7733 39.5551 12.0159C39.691 12.2488 39.7589 12.5351 39.7589 12.8747C39.7589 13.3017 39.6764 13.6656 39.5114 13.9665C39.3562 14.2576 39.1427 14.4954 38.8709 14.6798C38.6089 14.8641 38.2984 14.9951 37.9393 15.0728C37.59 15.1601 37.2261 15.2038 36.8476 15.2038C36.3041 15.2038 35.7752 15.1067 35.2609 14.9127C34.7466 14.7089 34.3196 14.4226 33.9799 14.0538L35.1299 12.9766C35.324 13.2289 35.5763 13.4376 35.8868 13.6026C36.1974 13.7675 36.5419 13.85 36.9204 13.85C37.0465 13.85 37.1727 13.8355 37.2988 13.8064C37.4347 13.7772 37.556 13.7336 37.6628 13.6754C37.7792 13.6074 37.8714 13.5201 37.9393 13.4133C38.0073 13.3066 38.0412 13.1756 38.0412 13.0203C38.0412 12.7292 37.9054 12.5205 37.6336 12.3944C37.3716 12.2682 36.9737 12.1421 36.44 12.0159C36.178 11.9577 35.9208 11.8849 35.6685 11.7976C35.4259 11.7005 35.2075 11.5792 35.0135 11.4336C34.8194 11.2784 34.6641 11.0891 34.5476 10.8659C34.4312 10.6427 34.373 10.3662 34.373 10.0362C34.373 9.64803 34.4506 9.31323 34.6059 9.0318C34.7708 8.75038 34.9843 8.52232 35.2464 8.34765C35.5084 8.16326 35.8044 8.0274 36.1343 7.94006C36.4643 7.85272 36.8039 7.80905 37.1533 7.80905C37.6579 7.80905 38.148 7.89639 38.6235 8.07107C39.1087 8.24575 39.492 8.51262 39.7735 8.87168L38.638 9.87609ZM45.106 9.87609C44.9508 9.67229 44.7373 9.49761 44.4656 9.35205C44.1938 9.19678 43.8979 9.11914 43.5776 9.11914C43.2962 9.11914 43.039 9.17737 42.8061 9.29382C42.5732 9.41027 42.4568 9.60436 42.4568 9.87609C42.4568 10.1478 42.5829 10.3419 42.8352 10.4583C43.0972 10.5651 43.4757 10.6767 43.9706 10.7931C44.2327 10.8514 44.4947 10.929 44.7567 11.0261C45.0284 11.1231 45.271 11.2541 45.4845 11.4191C45.7077 11.5744 45.8873 11.7733 46.0231 12.0159C46.159 12.2488 46.2269 12.5351 46.2269 12.8747C46.2269 13.3017 46.1444 13.6656 45.9794 13.9665C45.8242 14.2576 45.6107 14.4954 45.339 14.6798C45.0769 14.8641 44.7664 14.9951 44.4073 15.0728C44.058 15.1601 43.6941 15.2038 43.3156 15.2038C42.7721 15.2038 42.2433 15.1067 41.7289 14.9127C41.2146 14.7089 40.7876 14.4226 40.4479 14.0538L41.5979 12.9766C41.792 13.2289 42.0443 13.4376 42.3549 13.6026C42.6654 13.7675 43.0099 13.85 43.3884 13.85C43.5145 13.85 43.6407 13.8355 43.7668 13.8064C43.9027 13.7772 44.024 13.7336 44.1308 13.6754C44.2472 13.6074 44.3394 13.5201 44.4073 13.4133C44.4753 13.3066 44.5092 13.1756 44.5092 13.0203C44.5092 12.7292 44.3734 12.5205 44.1016 12.3944C43.8396 12.2682 43.4417 12.1421 42.908 12.0159C42.646 11.9577 42.3888 11.8849 42.1365 11.7976C41.8939 11.7005 41.6755 11.5792 41.4815 11.4336C41.2874 11.2784 41.1321 11.0891 41.0157 10.8659C40.8992 10.6427 40.841 10.3662 40.841 10.0362C40.841 9.64803 40.9186 9.31323 41.0739 9.0318C41.2389 8.75038 41.4523 8.52232 41.7144 8.34765C41.9764 8.16326 42.2724 8.0274 42.6023 7.94006C42.9323 7.85272 43.2719 7.80905 43.6213 7.80905C44.1259 7.80905 44.616 7.89639 45.0915 8.07107C45.5767 8.24575 45.96 8.51262 46.2415 8.87168L45.106 9.87609ZM53.1607 3.99523V8.90079H53.2044C53.2917 8.78434 53.4033 8.66304 53.5392 8.53688C53.6751 8.41072 53.8352 8.29427 54.0196 8.18752C54.2137 8.08077 54.4369 7.99343 54.6892 7.9255C54.9415 7.84787 55.2278 7.80905 55.548 7.80905C56.0429 7.80905 56.499 7.9061 56.9163 8.10018C57.3336 8.28457 57.6927 8.54173 57.9935 8.87168C58.2943 9.20163 58.5272 9.58981 58.6922 10.0362C58.8572 10.4826 58.9397 10.963 58.9397 11.4773C58.9397 11.9916 58.8572 12.4769 58.6922 12.933C58.537 13.3794 58.3089 13.7724 58.0081 14.112C57.7169 14.442 57.3579 14.7089 56.9309 14.9127C56.5136 15.1067 56.0381 15.2038 55.5043 15.2038C55.0094 15.2038 54.5436 15.097 54.1069 14.8835C53.6799 14.6701 53.3451 14.3595 53.1025 13.9519H53.0734V15H51.4139V3.99523H53.1607ZM57.1638 11.4773C57.1638 11.2056 57.1201 10.9387 57.0328 10.6767C56.9551 10.405 56.8338 10.1624 56.6689 9.94887C56.5039 9.73537 56.2952 9.56555 56.0429 9.43939C55.7906 9.30353 55.4946 9.2356 55.155 9.2356C54.8347 9.2356 54.5485 9.30353 54.2961 9.43939C54.0438 9.57525 53.8255 9.74993 53.6411 9.96342C53.4664 10.1769 53.3306 10.4195 53.2335 10.6913C53.1462 10.963 53.1025 11.2347 53.1025 11.5064C53.1025 11.7781 53.1462 12.0499 53.2335 12.3216C53.3306 12.5836 53.4664 12.8214 53.6411 13.0349C53.8255 13.2484 54.0438 13.423 54.2961 13.5589C54.5485 13.6851 54.8347 13.7481 55.155 13.7481C55.4946 13.7481 55.7906 13.6802 56.0429 13.5443C56.2952 13.4085 56.5039 13.2338 56.6689 13.0203C56.8338 12.8068 56.9551 12.5642 57.0328 12.2925C57.1201 12.0208 57.1638 11.749 57.1638 11.4773ZM59.5768 8.01284H61.5128L63.4634 13.0931H63.4925L65.2247 8.01284H67.0443L63.7399 16.4993C63.6138 16.8196 63.4779 17.101 63.3324 17.3436C63.1868 17.5959 63.0121 17.8046 62.8083 17.9695C62.6045 18.1442 62.3619 18.2752 62.0805 18.3626C61.8088 18.4499 61.4788 18.4936 61.0906 18.4936C60.9451 18.4936 60.7947 18.4839 60.6394 18.4645C60.4938 18.4548 60.3434 18.4305 60.1881 18.3917L60.3337 16.8778C60.4502 16.9166 60.5618 16.9409 60.6685 16.9506C60.785 16.97 60.8917 16.9797 60.9888 16.9797C61.1731 16.9797 61.3284 16.9554 61.4546 16.9069C61.5807 16.8681 61.6875 16.8002 61.7748 16.7031C61.8621 16.6158 61.9398 16.5042 62.0077 16.3683C62.0756 16.2325 62.1484 16.0723 62.2261 15.888L62.5754 15L59.5768 8.01284ZM80.8395 14.4614C80.3154 14.7137 79.738 14.9078 79.1073 15.0437C78.4862 15.1892 77.768 15.262 76.9529 15.262C76.1183 15.262 75.3565 15.131 74.6675 14.869C73.9785 14.5973 73.3865 14.2236 72.8916 13.7481C72.3967 13.2629 72.0085 12.6904 71.7271 12.0305C71.4553 11.3609 71.3195 10.6233 71.3195 9.81786C71.3195 8.99299 71.4602 8.2506 71.7416 7.5907C72.0328 6.9211 72.4258 6.35339 72.9207 5.88758C73.4253 5.42177 74.0173 5.06271 74.6966 4.8104C75.3759 4.55808 76.1134 4.43193 76.9092 4.43193C77.7341 4.43193 78.4862 4.55323 79.1655 4.79584C79.8545 5.02875 80.4076 5.33929 80.8249 5.72746L79.5585 7.09578C79.2965 6.80465 78.9277 6.55719 78.4522 6.35339C77.9864 6.1496 77.4769 6.04771 76.9238 6.04771C76.3803 6.04771 75.8854 6.14475 75.439 6.33884C75.0023 6.53293 74.6287 6.7998 74.3181 7.13945C74.0076 7.4791 73.765 7.87698 73.5903 8.33309C73.4253 8.78919 73.3428 9.28412 73.3428 9.81786C73.3428 10.371 73.4253 10.8805 73.5903 11.3463C73.765 11.8024 74.0076 12.2003 74.3181 12.5399C74.6384 12.8796 75.0217 13.1465 75.4681 13.3406C75.9242 13.5249 76.4385 13.6171 77.0111 13.6171C77.7972 13.6171 78.4813 13.4958 79.0636 13.2532V10.633H76.8947V9.11914H80.8395V14.4614ZM87.9058 10.8077C87.9058 10.5845 87.8718 10.371 87.8039 10.1672C87.7457 9.96342 87.6486 9.78389 87.5128 9.62862C87.3769 9.47335 87.2022 9.35205 86.9887 9.26471C86.7849 9.16767 86.5423 9.11914 86.2609 9.11914C85.7369 9.11914 85.2905 9.27927 84.9217 9.59951C84.5626 9.91005 84.3637 10.3128 84.3249 10.8077H87.9058ZM89.6526 11.5938C89.6526 11.6714 89.6526 11.749 89.6526 11.8267C89.6526 11.9043 89.6477 11.9819 89.638 12.0596H84.3249C84.3443 12.3119 84.4074 12.5448 84.5141 12.7583C84.6306 12.9621 84.781 13.1416 84.9654 13.2969C85.1497 13.4424 85.3584 13.5589 85.5913 13.6462C85.8242 13.7336 86.0668 13.7772 86.3191 13.7772C86.7558 13.7772 87.1246 13.6996 87.4254 13.5443C87.7263 13.3794 87.9737 13.1562 88.1678 12.8747L89.3323 13.8064C88.6433 14.738 87.6438 15.2038 86.3337 15.2038C85.7902 15.2038 85.2905 15.1213 84.8344 14.9563C84.3782 14.7817 83.9804 14.539 83.6407 14.2285C83.3108 13.918 83.0487 13.5395 82.8547 13.0931C82.6703 12.637 82.5781 12.1227 82.5781 11.5501C82.5781 10.9872 82.6703 10.4778 82.8547 10.0217C83.0487 9.55584 83.3108 9.16281 83.6407 8.84257C83.9707 8.51262 84.3588 8.26031 84.8052 8.08563C85.2613 7.90124 85.7514 7.80905 86.2755 7.80905C86.7607 7.80905 87.2071 7.89154 87.6147 8.05651C88.0319 8.21178 88.391 8.44954 88.6918 8.76979C88.9927 9.08033 89.2256 9.47335 89.3906 9.94887C89.5652 10.4147 89.6526 10.963 89.6526 11.5938ZM90.3399 9.41028V8.01284H91.5627V5.98948H93.2803V8.01284H95.0271V9.41028H93.2803V12.6564C93.2803 12.9669 93.3337 13.2241 93.4405 13.4279C93.5569 13.6317 93.8092 13.7336 94.1974 13.7336C94.3139 13.7336 94.44 13.7239 94.5759 13.7045C94.7117 13.6754 94.833 13.6365 94.9398 13.588L94.998 14.9563C94.8428 15.0146 94.6584 15.0582 94.4449 15.0873C94.2314 15.1262 94.0276 15.1456 93.8335 15.1456C93.3677 15.1456 92.9892 15.0825 92.6981 14.9563C92.407 14.8205 92.174 14.6409 91.9994 14.4177C91.8344 14.1848 91.7179 13.9228 91.65 13.6317C91.5918 13.3308 91.5627 13.0106 91.5627 12.6709V9.41028H90.3399ZM96.3786 4.69394H103.031V6.29517H98.2128V9.11914H102.754V10.6621H98.2128V15H96.3786V4.69394ZM104.409 8.01284H106.156V15H104.409V8.01284ZM104.162 5.64012C104.162 5.35869 104.263 5.11609 104.467 4.91229C104.681 4.6988 104.948 4.59205 105.268 4.59205C105.588 4.59205 105.855 4.69394 106.068 4.89774C106.292 5.09182 106.403 5.33929 106.403 5.64012C106.403 5.94096 106.292 6.19327 106.068 6.39706C105.855 6.59115 105.588 6.6882 105.268 6.6882C104.948 6.6882 104.681 6.5863 104.467 6.38251C104.263 6.16901 104.162 5.92155 104.162 5.64012ZM107.27 9.41028V8.01284H108.493V5.98948H110.211V8.01284H111.958V9.41028H110.211V12.6564C110.211 12.9669 110.264 13.2241 110.371 13.4279C110.487 13.6317 110.74 13.7336 111.128 13.7336C111.244 13.7336 111.371 13.7239 111.506 13.7045C111.642 13.6754 111.764 13.6365 111.87 13.588L111.929 14.9563C111.773 15.0146 111.589 15.0582 111.375 15.0873C111.162 15.1262 110.958 15.1456 110.764 15.1456C110.298 15.1456 109.92 15.0825 109.629 14.9563C109.338 14.8205 109.105 14.6409 108.93 14.4177C108.765 14.1848 108.648 13.9228 108.581 13.6317C108.522 13.3308 108.493 13.0106 108.493 12.6709V9.41028H107.27Z" fill="black"/>
<path d="M2.94985 33.0174H2.97211L4.94239 26.2383H5.89969L7.86997 33.0174H7.89223L9.81798 26.2383H10.664L8.33749 34.1194H7.40245L5.42104 27.3514H5.39878L3.41737 34.1194H2.48232L0.155841 26.2383H1.00183L2.94985 33.0174ZM16.592 31.5146C16.592 31.9079 16.5215 32.2716 16.3805 32.6055C16.2469 32.9394 16.0577 33.2289 15.8128 33.4738C15.5679 33.7187 15.2748 33.9116 14.9334 34.0526C14.5921 34.1862 14.2173 34.253 13.8091 34.253C13.4084 34.253 13.0374 34.1862 12.696 34.0526C12.3546 33.9116 12.0615 33.7187 11.8166 33.4738C11.5717 33.2289 11.3788 32.9394 11.2378 32.6055C11.1042 32.2716 11.0374 31.9079 11.0374 31.5146C11.0374 31.1213 11.1042 30.7577 11.2378 30.4237C11.3788 30.0898 11.5717 29.8004 11.8166 29.5555C12.0615 29.3106 12.3546 29.1213 12.696 28.9878C13.0374 28.8468 13.4084 28.7763 13.8091 28.7763C14.2173 28.7763 14.5921 28.8468 14.9334 28.9878C15.2748 29.1213 15.5679 29.3106 15.8128 29.5555C16.0577 29.8004 16.2469 30.0898 16.3805 30.4237C16.5215 30.7577 16.592 31.1213 16.592 31.5146ZM15.7906 31.5146C15.7906 31.2252 15.7423 30.9543 15.6458 30.702C15.5568 30.4423 15.4269 30.2196 15.2562 30.0341C15.0856 29.8412 14.8778 29.689 14.6329 29.5777C14.388 29.4664 14.1134 29.4108 13.8091 29.4108C13.5049 29.4108 13.2303 29.4664 12.9854 29.5777C12.7479 29.689 12.5439 29.8412 12.3732 30.0341C12.2025 30.2196 12.0689 30.4423 11.9724 30.702C11.8834 30.9543 11.8389 31.2252 11.8389 31.5146C11.8389 31.804 11.8834 32.0786 11.9724 32.3383C12.0689 32.5907 12.2025 32.8133 12.3732 33.0062C12.5439 33.1918 12.7479 33.3402 12.9854 33.4515C13.2303 33.5554 13.5049 33.6073 13.8091 33.6073C14.1134 33.6073 14.388 33.5554 14.6329 33.4515C14.8778 33.3402 15.0856 33.1918 15.2562 33.0062C15.4269 32.8133 15.5568 32.5907 15.6458 32.3383C15.7423 32.0786 15.7906 31.804 15.7906 31.5146ZM18.2209 30.0564C18.2209 29.9154 18.2172 29.7336 18.2097 29.5109C18.2023 29.2883 18.1912 29.0879 18.1763 28.9098H18.8999C18.9147 29.0508 18.9259 29.2067 18.9333 29.3774C18.9407 29.548 18.9444 29.689 18.9444 29.8004H18.9667C19.1151 29.4961 19.3377 29.2512 19.6346 29.0657C19.9314 28.8727 20.2654 28.7763 20.6364 28.7763C20.7329 28.7763 20.8182 28.78 20.8924 28.7874C20.9741 28.7948 21.0557 28.8097 21.1373 28.8319L21.0371 29.5443C20.9926 29.5295 20.9184 29.5147 20.8145 29.4998C20.7106 29.485 20.6067 29.4775 20.5028 29.4775C20.3025 29.4775 20.1095 29.5147 19.924 29.5889C19.7385 29.6631 19.5752 29.7818 19.4342 29.9451C19.3006 30.1009 19.1893 30.305 19.1003 30.5573C19.0186 30.8022 18.9778 31.099 18.9778 31.4478V34.1194H18.2209V30.0564ZM23.0113 31.2586H23.0447L25.4491 28.9098H26.54L23.913 31.292L26.8072 34.1194H25.694L23.0447 31.381H23.0113V34.1194H22.2544V25.704H23.0113V31.2586ZM32.8871 31.5146C32.8871 31.9079 32.8166 32.2716 32.6756 32.6055C32.542 32.9394 32.3527 33.2289 32.1079 33.4738C31.863 33.7187 31.5698 33.9116 31.2285 34.0526C30.8871 34.1862 30.5123 34.253 30.1042 34.253C29.7034 34.253 29.3324 34.1862 28.991 34.0526C28.6497 33.9116 28.3565 33.7187 28.1116 33.4738C27.8668 33.2289 27.6738 32.9394 27.5328 32.6055C27.3992 32.2716 27.3324 31.9079 27.3324 31.5146C27.3324 31.1213 27.3992 30.7577 27.5328 30.4237C27.6738 30.0898 27.8668 29.8004 28.1116 29.5555C28.3565 29.3106 28.6497 29.1213 28.991 28.9878C29.3324 28.8468 29.7034 28.7763 30.1042 28.7763C30.5123 28.7763 30.8871 28.8468 31.2285 28.9878C31.5698 29.1213 31.863 29.3106 32.1079 29.5555C32.3527 29.8004 32.542 30.0898 32.6756 30.4237C32.8166 30.7577 32.8871 31.1213 32.8871 31.5146ZM32.0856 31.5146C32.0856 31.2252 32.0374 30.9543 31.9409 30.702C31.8518 30.4423 31.722 30.2196 31.5513 30.0341C31.3806 29.8412 31.1728 29.689 30.9279 29.5777C30.683 29.4664 30.4084 29.4108 30.1042 29.4108C29.7999 29.4108 29.5253 29.4664 29.2805 29.5777C29.043 29.689 28.8389 29.8412 28.6682 30.0341C28.4975 30.2196 28.364 30.4423 28.2675 30.702C28.1784 30.9543 28.1339 31.2252 28.1339 31.5146C28.1339 31.804 28.1784 32.0786 28.2675 32.3383C28.364 32.5907 28.4975 32.8133 28.6682 33.0062C28.8389 33.1918 29.043 33.3402 29.2805 33.4515C29.5253 33.5554 29.7999 33.6073 30.1042 33.6073C30.4084 33.6073 30.683 33.5554 30.9279 33.4515C31.1728 33.3402 31.3806 33.1918 31.5513 33.0062C31.722 32.8133 31.8518 32.5907 31.9409 32.3383C32.0374 32.0786 32.0856 31.804 32.0856 31.5146ZM38.3006 34.1194C38.2858 33.9784 38.2746 33.8225 38.2672 33.6519C38.2598 33.4812 38.2561 33.3402 38.2561 33.2289H38.2338C38.0854 33.5331 37.8442 33.7817 37.5103 33.9747C37.1763 34.1602 36.8238 34.253 36.4528 34.253C35.7923 34.253 35.2951 34.0563 34.9612 33.663C34.6346 33.2697 34.4714 32.7502 34.4714 32.1046V28.9098H35.2283V31.7929C35.2283 32.0675 35.2506 32.3161 35.2951 32.5387C35.3396 32.7613 35.4139 32.9543 35.5177 33.1175C35.6291 33.2734 35.7738 33.3958 35.9519 33.4849C36.1374 33.5739 36.3675 33.6185 36.642 33.6185C36.8424 33.6185 37.0353 33.5777 37.2209 33.496C37.4138 33.4144 37.5845 33.2919 37.7329 33.1287C37.8813 32.958 38.0001 32.7465 38.0891 32.4942C38.1782 32.2345 38.2227 31.9302 38.2227 31.5814V28.9098H38.9796V32.9728C38.9796 33.1138 38.9834 33.2957 38.9908 33.5183C38.9982 33.7409 39.0093 33.9413 39.0242 34.1194H38.3006ZM43.3327 29.5443H41.8633V32.5832C41.8633 32.7762 41.8819 32.9357 41.919 33.0619C41.9561 33.188 42.008 33.2882 42.0748 33.3624C42.149 33.4292 42.2344 33.4775 42.3308 33.5072C42.4273 33.5294 42.5312 33.5405 42.6425 33.5405C42.7464 33.5405 42.854 33.5257 42.9653 33.496C43.0841 33.4663 43.1954 33.4255 43.2993 33.3736L43.3327 34.0303C43.1991 34.0823 43.0581 34.1194 42.9097 34.1416C42.7687 34.1713 42.6128 34.1862 42.4421 34.1862C42.3011 34.1862 42.1527 34.1676 41.9969 34.1305C41.841 34.0934 41.6963 34.0229 41.5628 33.919C41.4292 33.8151 41.3179 33.6741 41.2288 33.496C41.1472 33.3179 41.1064 33.0842 41.1064 32.7947V29.5443H40.0266V28.9098H41.1064V27.4405H41.8633V28.9098H43.3327V29.5443ZM52.1865 32.2938L53.9564 34.1194H52.8432L51.7301 32.9506C51.4036 33.3958 51.0511 33.7261 50.6726 33.9413C50.2941 34.1491 49.8377 34.253 49.3034 34.253C48.9695 34.253 48.6504 34.2047 48.3461 34.1083C48.0493 34.0118 47.7895 33.8745 47.5669 33.6964C47.3443 33.5109 47.1662 33.2845 47.0326 33.0174C46.9064 32.7428 46.8433 32.4274 46.8433 32.0712C46.8433 31.7743 46.8879 31.5072 46.9769 31.2697C47.0734 31.0322 47.2033 30.8208 47.3665 30.6352C47.5298 30.4423 47.7227 30.2716 47.9454 30.1232C48.168 29.9748 48.4092 29.8449 48.6689 29.7336C48.5502 29.6148 48.4314 29.485 48.3127 29.344C48.2014 29.203 48.1012 29.0583 48.0122 28.9098C47.9231 28.754 47.8489 28.5907 47.7895 28.4201C47.7376 28.2494 47.7116 28.075 47.7116 27.8969C47.7116 27.6 47.7636 27.3366 47.8674 27.1065C47.9713 26.8765 48.1123 26.6835 48.2904 26.5277C48.4685 26.3644 48.6763 26.242 48.9138 26.1604C49.1513 26.0787 49.4036 26.0379 49.6707 26.0379C49.9305 26.0379 50.1754 26.0787 50.4054 26.1604C50.6355 26.2346 50.8358 26.3496 51.0065 26.5054C51.1846 26.6539 51.3219 26.8394 51.4184 27.062C51.5223 27.2772 51.5742 27.5258 51.5742 27.8078C51.5742 28.0676 51.5223 28.3013 51.4184 28.5091C51.3219 28.7169 51.1883 28.9061 51.0177 29.0768C50.8544 29.2401 50.6652 29.3885 50.45 29.5221C50.2422 29.6482 50.027 29.767 49.8043 29.8783L51.641 31.7706L52.7319 29.856H53.6336L52.1865 32.2938ZM50.795 27.8078C50.795 27.4813 50.6874 27.2141 50.4722 27.0064C50.2644 26.7986 50.001 26.6947 49.6819 26.6947C49.3331 26.6947 49.0474 26.806 48.8248 27.0286C48.6021 27.2438 48.4908 27.537 48.4908 27.908C48.4908 28.049 48.5205 28.1974 48.5799 28.3533C48.6392 28.5017 48.7134 28.6427 48.8025 28.7763C48.8915 28.9098 48.9843 29.0323 49.0808 29.1436C49.1847 29.2549 49.2737 29.3403 49.3479 29.3996C49.526 29.318 49.7004 29.2289 49.8711 29.1325C50.0418 29.0286 50.1939 28.9136 50.3275 28.7874C50.4685 28.6612 50.5798 28.5165 50.6615 28.3533C50.7505 28.19 50.795 28.0082 50.795 27.8078ZM49.1142 30.2456C48.6392 30.4608 48.2793 30.7169 48.0344 31.0137C47.7895 31.3031 47.6671 31.6593 47.6671 32.0823C47.6671 32.305 47.7079 32.509 47.7895 32.6946C47.8786 32.8801 47.9973 33.0396 48.1457 33.1732C48.3016 33.2994 48.4797 33.3995 48.68 33.4738C48.8804 33.548 49.0919 33.5851 49.3145 33.5851C49.745 33.5851 50.1012 33.4886 50.3832 33.2957C50.6726 33.1027 50.9435 32.8133 51.1958 32.4274L49.1142 30.2456ZM61.6716 30.1009C61.5455 29.9005 61.36 29.7373 61.1151 29.6111C60.8776 29.4775 60.6179 29.4108 60.3359 29.4108C60.0316 29.4108 59.757 29.4664 59.5121 29.5777C59.2672 29.6816 59.0557 29.83 58.8776 30.023C58.7069 30.2085 58.5734 30.4311 58.4769 30.6909C58.3878 30.9432 58.3433 31.2178 58.3433 31.5146C58.3433 31.8115 58.3878 32.086 58.4769 32.3383C58.5734 32.5907 58.7069 32.8133 58.8776 33.0062C59.0483 33.1918 59.2561 33.3402 59.501 33.4515C59.7459 33.5554 60.0205 33.6073 60.3247 33.6073C60.6587 33.6073 60.9407 33.5443 61.1707 33.4181C61.4008 33.2919 61.59 33.1287 61.7384 32.9283L62.3061 33.3513C62.0835 33.6259 61.8089 33.8448 61.4824 34.0081C61.1633 34.1713 60.7774 34.253 60.3247 34.253C59.9017 34.253 59.5195 34.1862 59.1782 34.0526C58.8368 33.9116 58.5437 33.7187 58.2988 33.4738C58.0613 33.2289 57.8758 32.9394 57.7422 32.6055C57.6086 32.2716 57.5419 31.9079 57.5419 31.5146C57.5419 31.1213 57.6086 30.7577 57.7422 30.4237C57.8758 30.0898 58.0613 29.8004 58.2988 29.5555C58.5437 29.3106 58.8368 29.1213 59.1782 28.9878C59.5195 28.8468 59.9017 28.7763 60.3247 28.7763C60.6735 28.7763 61.026 28.8542 61.3822 29.01C61.7458 29.1584 62.039 29.3811 62.2616 29.6779L61.6716 30.1009ZM66.7699 30.7577C66.7699 30.305 66.6511 29.9673 66.4137 29.7447C66.1762 29.5221 65.8311 29.4108 65.3784 29.4108C65.0667 29.4108 64.7773 29.4664 64.5102 29.5777C64.243 29.689 64.0167 29.8375 63.8311 30.023L63.4082 29.5221C63.6234 29.3069 63.9054 29.1288 64.2541 28.9878C64.6104 28.8468 65.0111 28.7763 65.4563 28.7763C65.7383 28.7763 66.0018 28.8171 66.2467 28.8987C66.4916 28.9729 66.7068 29.0879 66.8923 29.2438C67.0778 29.3996 67.2225 29.5963 67.3264 29.8338C67.4303 30.0712 67.4823 30.3495 67.4823 30.6686V32.9506C67.4823 33.1509 67.4897 33.3587 67.5045 33.5739C67.5194 33.7892 67.5416 33.971 67.5713 34.1194H66.8923C66.87 33.9932 66.8515 33.8559 66.8367 33.7075C66.8218 33.5591 66.8144 33.4144 66.8144 33.2734H66.7921C66.5547 33.6222 66.2838 33.8745 65.9795 34.0303C65.6827 34.1788 65.3228 34.253 64.8998 34.253C64.6994 34.253 64.4916 34.2233 64.2764 34.1639C64.0686 34.112 63.8757 34.0229 63.6976 33.8968C63.5269 33.7706 63.3822 33.6073 63.2634 33.407C63.1521 33.2066 63.0965 32.9617 63.0965 32.6723C63.0965 32.2716 63.1967 31.9562 63.397 31.7261C63.6048 31.4886 63.8794 31.3142 64.2208 31.2029C64.5621 31.0842 64.9517 31.01 65.3896 30.9803C65.8348 30.9432 66.2949 30.9246 66.7699 30.9246V30.7577ZM66.5472 31.5146C66.2356 31.5146 65.9202 31.5295 65.6011 31.5591C65.2894 31.5814 65.0037 31.6333 64.7439 31.715C64.4916 31.7892 64.2838 31.9005 64.1206 32.0489C63.9573 32.1973 63.8757 32.394 63.8757 32.6389C63.8757 32.8244 63.9091 32.9803 63.9759 33.1064C64.0501 33.2326 64.1465 33.3365 64.2653 33.4181C64.384 33.4923 64.5139 33.548 64.6549 33.5851C64.8033 33.6148 64.9517 33.6296 65.1001 33.6296C65.3673 33.6296 65.6048 33.5851 65.8126 33.496C66.0203 33.3995 66.1947 33.2734 66.3357 33.1175C66.4767 32.9543 66.5843 32.7688 66.6586 32.561C66.7328 32.3532 66.7699 32.1343 66.7699 31.9042V31.5146H66.5472ZM70.2115 34.1194H69.4546V25.704H70.2115V34.1194ZM77.4131 31.5146C77.4131 31.9079 77.3426 32.2716 77.2016 32.6055C77.068 32.9394 76.8787 33.2289 76.6339 33.4738C76.389 33.7187 76.0958 33.9116 75.7545 34.0526C75.4131 34.1862 75.0383 34.253 74.6302 34.253C74.2295 34.253 73.8584 34.1862 73.517 34.0526C73.1757 33.9116 72.8825 33.7187 72.6376 33.4738C72.3928 33.2289 72.1998 32.9394 72.0588 32.6055C71.9252 32.2716 71.8584 31.9079 71.8584 31.5146C71.8584 31.1213 71.9252 30.7577 72.0588 30.4237C72.1998 30.0898 72.3928 29.8004 72.6376 29.5555C72.8825 29.3106 73.1757 29.1213 73.517 28.9878C73.8584 28.8468 74.2295 28.7763 74.6302 28.7763C75.0383 28.7763 75.4131 28.8468 75.7545 28.9878C76.0958 29.1213 76.389 29.3106 76.6339 29.5555C76.8787 29.8004 77.068 30.0898 77.2016 30.4237C77.3426 30.7577 77.4131 31.1213 77.4131 31.5146ZM76.6116 31.5146C76.6116 31.2252 76.5634 30.9543 76.4669 30.702C76.3778 30.4423 76.248 30.2196 76.0773 30.0341C75.9066 29.8412 75.6988 29.689 75.4539 29.5777C75.209 29.4664 74.9344 29.4108 74.6302 29.4108C74.3259 29.4108 74.0513 29.4664 73.8065 29.5777C73.569 29.689 73.3649 29.8412 73.1942 30.0341C73.0235 30.2196 72.89 30.4423 72.7935 30.702C72.7044 30.9543 72.6599 31.2252 72.6599 31.5146C72.6599 31.804 72.7044 32.0786 72.7935 32.3383C72.89 32.5907 73.0235 32.8133 73.1942 33.0062C73.3649 33.1918 73.569 33.3402 73.8065 33.4515C74.0513 33.5554 74.3259 33.6073 74.6302 33.6073C74.9344 33.6073 75.209 33.5554 75.4539 33.4515C75.6988 33.3402 75.9066 33.1918 76.0773 33.0062C76.248 32.8133 76.3778 32.5907 76.4669 32.3383C76.5634 32.0786 76.6116 31.804 76.6116 31.5146ZM79.0419 30.0564C79.0419 29.9154 79.0382 29.7336 79.0308 29.5109C79.0234 29.2883 79.0122 29.0879 78.9974 28.9098H79.7209C79.7358 29.0508 79.7469 29.2067 79.7543 29.3774C79.7617 29.548 79.7655 29.689 79.7655 29.8004H79.7877C79.9361 29.4961 80.1588 29.2512 80.4556 29.0657C80.7524 28.8727 81.0864 28.7763 81.4574 28.7763C81.5539 28.7763 81.6393 28.78 81.7135 28.7874C81.7951 28.7948 81.8767 28.8097 81.9584 28.8319L81.8582 29.5443C81.8136 29.5295 81.7394 29.5147 81.6355 29.4998C81.5317 29.485 81.4278 29.4775 81.3239 29.4775C81.1235 29.4775 80.9305 29.5147 80.745 29.5889C80.5595 29.6631 80.3962 29.7818 80.2552 29.9451C80.1217 30.1009 80.0103 30.305 79.9213 30.5573C79.8397 30.8022 79.7988 31.099 79.7988 31.4478V34.1194H79.0419V30.0564ZM83.8212 34.1194H83.0643V28.9098H83.8212V34.1194ZM83.9771 26.9062C83.9771 27.062 83.9214 27.1919 83.8101 27.2958C83.6988 27.3922 83.5763 27.4405 83.4428 27.4405C83.3092 27.4405 83.1867 27.3922 83.0754 27.2958C82.9641 27.1919 82.9084 27.062 82.9084 26.9062C82.9084 26.7503 82.9641 26.6242 83.0754 26.5277C83.1867 26.4238 83.3092 26.3719 83.4428 26.3719C83.5763 26.3719 83.6988 26.4238 83.8101 26.5277C83.9214 26.6242 83.9771 26.7503 83.9771 26.9062ZM89.81 31.1139C89.7877 30.6241 89.6282 30.2196 89.3313 29.9005C89.0419 29.574 88.6263 29.4108 88.0846 29.4108C87.8323 29.4108 87.5985 29.459 87.3833 29.5555C87.1681 29.6445 86.9789 29.7707 86.8156 29.9339C86.6523 30.0898 86.5225 30.2716 86.426 30.4794C86.3295 30.6798 86.2739 30.8912 86.259 31.1139H89.81ZM90.5781 31.3588C90.5781 31.4107 90.5781 31.4664 90.5781 31.5257C90.5781 31.5851 90.5743 31.6482 90.5669 31.715H86.2479C86.2553 31.9747 86.3073 32.2196 86.4037 32.4497C86.5002 32.6797 86.6338 32.8801 86.8045 33.0508C86.9752 33.2214 87.1755 33.3587 87.4056 33.4626C87.6356 33.5591 87.8842 33.6073 88.1514 33.6073C88.5447 33.6073 88.8824 33.5183 89.1644 33.3402C89.4538 33.1547 89.6727 32.9432 89.8211 32.7057L90.3888 33.1509C90.0771 33.5443 89.7321 33.8263 89.3536 33.9969C88.9825 34.1676 88.5818 34.253 88.1514 34.253C87.7655 34.253 87.4056 34.1862 87.0716 34.0526C86.7451 33.9116 86.4631 33.7187 86.2256 33.4738C85.9882 33.2289 85.7989 32.9394 85.6579 32.6055C85.5244 32.2716 85.4576 31.9079 85.4576 31.5146C85.4576 31.1213 85.5244 30.7577 85.6579 30.4237C85.7915 30.0898 85.977 29.8004 86.2145 29.5555C86.452 29.3106 86.7303 29.1213 87.0494 28.9878C87.3685 28.8468 87.7135 28.7763 88.0846 28.7763C88.4928 28.7763 88.8527 28.8468 89.1644 28.9878C89.476 29.1213 89.7358 29.3069 89.9436 29.5443C90.1513 29.7744 90.3072 30.0453 90.4111 30.3569C90.5224 30.6686 90.5781 31.0026 90.5781 31.3588ZM97.3378 29.5443H95.8685V32.5832C95.8685 32.7762 95.887 32.9357 95.9241 33.0619C95.9612 33.188 96.0132 33.2882 96.08 33.3624C96.1542 33.4292 96.2395 33.4775 96.336 33.5072C96.4325 33.5294 96.5364 33.5405 96.6477 33.5405C96.7516 33.5405 96.8592 33.5257 96.9705 33.496C97.0892 33.4663 97.2005 33.4255 97.3044 33.3736L97.3378 34.0303C97.2043 34.0823 97.0633 34.1194 96.9148 34.1416C96.7738 34.1713 96.618 34.1862 96.4473 34.1862C96.3063 34.1862 96.1579 34.1676 96.0021 34.1305C95.8462 34.0934 95.7015 34.0229 95.5679 33.919C95.4343 33.8151 95.323 33.6741 95.234 33.496C95.1523 33.3179 95.1115 33.0842 95.1115 32.7947V29.5443H94.0318V28.9098H95.1115V27.4405H95.8685V28.9098H97.3378V29.5443ZM98.522 30.0564C98.522 29.9154 98.5183 29.7336 98.5109 29.5109C98.5035 29.2883 98.4923 29.0879 98.4775 28.9098H99.2011C99.2159 29.0508 99.227 29.2067 99.2344 29.3774C99.2419 29.548 99.2456 29.689 99.2456 29.8004H99.2678C99.4163 29.4961 99.6389 29.2512 99.9357 29.0657C100.233 28.8727 100.567 28.7763 100.938 28.7763C101.034 28.7763 101.119 28.78 101.194 28.7874C101.275 28.7948 101.357 28.8097 101.438 28.8319L101.338 29.5443C101.294 29.5295 101.22 29.5147 101.116 29.4998C101.012 29.485 100.908 29.4775 100.804 29.4775C100.604 29.4775 100.411 29.5147 100.225 29.5889C100.04 29.6631 99.8764 29.7818 99.7354 29.9451C99.6018 30.1009 99.4905 30.305 99.4014 30.5573C99.3198 30.8022 99.279 31.099 99.279 31.4478V34.1194H98.522V30.0564ZM105.687 30.7577C105.687 30.305 105.568 29.9673 105.33 29.7447C105.093 29.5221 104.748 29.4108 104.295 29.4108C103.984 29.4108 103.694 29.4664 103.427 29.5777C103.16 29.689 102.933 29.8375 102.748 30.023L102.325 29.5221C102.54 29.3069 102.822 29.1288 103.171 28.9878C103.527 28.8468 103.928 28.7763 104.373 28.7763C104.655 28.7763 104.919 28.8171 105.163 28.8987C105.408 28.9729 105.624 29.0879 105.809 29.2438C105.995 29.3996 106.139 29.5963 106.243 29.8338C106.347 30.0712 106.399 30.3495 106.399 30.6686V32.9506C106.399 33.1509 106.406 33.3587 106.421 33.5739C106.436 33.7892 106.458 33.971 106.488 34.1194H105.809C105.787 33.9932 105.768 33.8559 105.753 33.7075C105.739 33.5591 105.731 33.4144 105.731 33.2734H105.709C105.471 33.6222 105.201 33.8745 104.896 34.0303C104.599 34.1788 104.24 34.253 103.817 34.253C103.616 34.253 103.408 34.2233 103.193 34.1639C102.985 34.112 102.792 34.0229 102.614 33.8968C102.444 33.7706 102.299 33.6073 102.18 33.407C102.069 33.2066 102.013 32.9617 102.013 32.6723C102.013 32.2716 102.113 31.9562 102.314 31.7261C102.522 31.4886 102.796 31.3142 103.138 31.2029C103.479 31.0842 103.868 31.01 104.306 30.9803C104.752 30.9432 105.212 30.9246 105.687 30.9246V30.7577ZM105.464 31.5146C105.152 31.5146 104.837 31.5295 104.518 31.5591C104.206 31.5814 103.92 31.6333 103.661 31.715C103.408 31.7892 103.201 31.9005 103.037 32.0489C102.874 32.1973 102.792 32.394 102.792 32.6389C102.792 32.8244 102.826 32.9803 102.893 33.1064C102.967 33.2326 103.063 33.3365 103.182 33.4181C103.301 33.4923 103.431 33.548 103.572 33.5851C103.72 33.6148 103.868 33.6296 104.017 33.6296C104.284 33.6296 104.522 33.5851 104.729 33.496C104.937 33.3995 105.112 33.2734 105.252 33.1175C105.393 32.9543 105.501 32.7688 105.575 32.561C105.65 32.3532 105.687 32.1343 105.687 31.9042V31.5146H105.464ZM112.1 30.1009C111.974 29.9005 111.789 29.7373 111.544 29.6111C111.306 29.4775 111.047 29.4108 110.765 29.4108C110.46 29.4108 110.186 29.4664 109.941 29.5777C109.696 29.6816 109.484 29.83 109.306 30.023C109.136 30.2085 109.002 30.4311 108.906 30.6909C108.817 30.9432 108.772 31.2178 108.772 31.5146C108.772 31.8115 108.817 32.086 108.906 32.3383C109.002 32.5907 109.136 32.8133 109.306 33.0062C109.477 33.1918 109.685 33.3402 109.93 33.4515C110.175 33.5554 110.449 33.6073 110.753 33.6073C111.087 33.6073 111.369 33.5443 111.599 33.4181C111.83 33.2919 112.019 33.1287 112.167 32.9283L112.735 33.3513C112.512 33.6259 112.238 33.8448 111.911 34.0081C111.592 34.1713 111.206 34.253 110.753 34.253C110.33 34.253 109.948 34.1862 109.607 34.0526C109.266 33.9116 108.972 33.7187 108.728 33.4738C108.49 33.2289 108.305 32.9394 108.171 32.6055C108.037 32.2716 107.971 31.9079 107.971 31.5146C107.971 31.1213 108.037 30.7577 108.171 30.4237C108.305 30.0898 108.49 29.8004 108.728 29.5555C108.972 29.3106 109.266 29.1213 109.607 28.9878C109.948 28.8468 110.33 28.7763 110.753 28.7763C111.102 28.7763 111.455 28.8542 111.811 29.01C112.175 29.1584 112.468 29.3811 112.69 29.6779L112.1 30.1009ZM114.694 31.2586H114.727L117.132 28.9098H118.223L115.596 31.292L118.49 34.1194H117.377L114.727 31.381H114.694V34.1194H113.937V25.704H114.694V31.2586ZM123.368 31.1139C123.345 30.6241 123.186 30.2196 122.889 29.9005C122.599 29.574 122.184 29.4108 121.642 29.4108C121.39 29.4108 121.156 29.459 120.941 29.5555C120.726 29.6445 120.536 29.7707 120.373 29.9339C120.21 30.0898 120.08 30.2716 119.984 30.4794C119.887 30.6798 119.831 30.8912 119.817 31.1139H123.368ZM124.136 31.3588C124.136 31.4107 124.136 31.4664 124.136 31.5257C124.136 31.5851 124.132 31.6482 124.124 31.715H119.805C119.813 31.9747 119.865 32.2196 119.961 32.4497C120.058 32.6797 120.191 32.8801 120.362 33.0508C120.533 33.2214 120.733 33.3587 120.963 33.4626C121.193 33.5591 121.442 33.6073 121.709 33.6073C122.102 33.6073 122.44 33.5183 122.722 33.3402C123.011 33.1547 123.23 32.9432 123.379 32.7057L123.946 33.1509C123.635 33.5443 123.29 33.8263 122.911 33.9969C122.54 34.1676 122.139 34.253 121.709 34.253C121.323 34.253 120.963 34.1862 120.629 34.0526C120.303 33.9116 120.021 33.7187 119.783 33.4738C119.546 33.2289 119.356 32.9394 119.215 32.6055C119.082 32.2716 119.015 31.9079 119.015 31.5146C119.015 31.1213 119.082 30.7577 119.215 30.4237C119.349 30.0898 119.535 29.8004 119.772 29.5555C120.01 29.3106 120.288 29.1213 120.607 28.9878C120.926 28.8468 121.271 28.7763 121.642 28.7763C122.05 28.7763 122.41 28.8468 122.722 28.9878C123.034 29.1213 123.293 29.3069 123.501 29.5443C123.709 29.7744 123.865 30.0453 123.969 30.3569C124.08 30.6686 124.136 31.0026 124.136 31.3588ZM125.764 30.0564C125.764 29.9154 125.76 29.7336 125.753 29.5109C125.745 29.2883 125.734 29.0879 125.719 28.9098H126.443C126.458 29.0508 126.469 29.2067 126.476 29.3774C126.484 29.548 126.487 29.689 126.487 29.8004H126.51C126.658 29.4961 126.881 29.2512 127.177 29.0657C127.474 28.8727 127.808 28.7763 128.179 28.7763C128.276 28.7763 128.361 28.78 128.435 28.7874C128.517 28.7948 128.599 28.8097 128.68 28.8319L128.58 29.5443C128.536 29.5295 128.461 29.5147 128.357 29.4998C128.254 29.485 128.15 29.4775 128.046 29.4775C127.845 29.4775 127.652 29.5147 127.467 29.5889C127.281 29.6631 127.118 29.7818 126.977 29.9451C126.844 30.1009 126.732 30.305 126.643 30.5573C126.562 30.8022 126.521 31.099 126.521 31.4478V34.1194H125.764V30.0564Z" fill="#999999"/>
</svg>
