<svg width="63" height="27" viewBox="0 0 63 27" fill="none" xmlns="http://www.w3.org/2000/svg">
<path d="M11.3374 3.35338C10.6108 4.23194 9.44834 4.92488 8.28584 4.82589C8.14053 3.63798 8.70967 2.37582 9.37569 1.59626C10.1023 0.692948 11.3737 0.0494963 12.403 0C12.5241 1.23741 12.0519 2.45007 11.3374 3.35338ZM12.3909 5.061C10.7077 4.96201 9.2667 6.03855 8.46748 6.03855C7.65616 6.03855 6.43311 5.11049 5.10108 5.13524C3.36944 5.15999 1.75889 6.16229 0.874904 7.75855C-0.941502 10.9511 0.402639 15.678 2.1585 18.2765C3.01826 19.5634 4.04756 20.9741 5.40381 20.9246C6.68741 20.8751 7.196 20.0708 8.746 20.0708C10.3081 20.0708 10.7562 20.9246 12.1124 20.8998C13.5171 20.8751 14.4011 19.6129 15.2608 18.326C16.2417 16.8659 16.6413 15.4429 16.6655 15.3686C16.6413 15.3439 13.953 14.2921 13.9288 11.1243C13.9046 8.47624 16.048 7.21409 16.1448 7.13984C14.9339 5.30848 13.0448 5.1105 12.3909 5.061ZM22.1148 1.47252V20.7637H25.0452V14.1683H29.1019C32.8073 14.1683 35.4109 11.5698 35.4109 7.80804C35.4109 4.04632 32.8558 1.47252 29.1987 1.47252H22.1148ZM25.0452 3.99683H28.4237C30.9667 3.99683 32.4198 5.38272 32.4198 7.82042C32.4198 10.2581 30.9667 11.6564 28.4116 11.6564H25.0452V3.99683ZM40.7632 20.9122C42.6038 20.9122 44.3112 19.9594 45.0862 18.4498H45.1468V20.7637H47.8593V11.1614C47.8593 8.37725 45.6796 6.58301 42.3253 6.58301C39.2132 6.58301 36.9124 8.402 36.8276 10.9016H39.4675C39.6855 9.71365 40.7632 8.93408 42.2405 8.93408C44.0327 8.93408 45.0378 9.7879 45.0378 11.3594V12.4236L41.3808 12.6463C37.978 12.8567 36.1374 14.2797 36.1374 16.7545C36.1374 19.2541 38.0386 20.9122 40.7632 20.9122ZM41.5503 18.623C39.9882 18.623 38.9952 17.8558 38.9952 16.6803C38.9952 15.4676 39.9519 14.7623 41.7804 14.6509L45.0378 14.4405V15.5295C45.0378 17.3361 43.5362 18.623 41.5503 18.623ZM51.48 26.0103C54.3378 26.0103 55.6819 24.8966 56.8566 21.5185L62.003 6.76862H59.0241L55.573 18.1651H55.5124L52.0612 6.76862H48.9976L53.9624 20.8132L53.696 21.667C53.248 23.1148 52.5214 23.6716 51.2257 23.6716C50.9956 23.6716 50.5476 23.6469 50.3659 23.6221V25.9361C50.5355 25.9856 51.262 26.0103 51.48 26.0103Z" fill="white"/>
</svg>
