<svg width="890" height="759" viewBox="0 0 890 759" fill="none" xmlns="http://www.w3.org/2000/svg">
<mask id="mask0" mask-type="alpha" maskUnits="userSpaceOnUse" x="-67" y="0" width="1024" height="759">
<rect x="-66" y="1" width="1022" height="757" fill="white" stroke="#C23A3E" stroke-width="2"/>
</mask>
<g mask="url(#mask0)">
<rect opacity="0.15" x="-67" width="1024" height="759" fill="url(#paint0_linear)"/>
<rect x="-67" width="1024" height="590" fill="url(#paint1_linear)"/>
<rect x="-67" width="1024" height="590" fill="url(#paint2_linear)"/>
<path d="M-9 606H279.699C446.443 606 446.443 703 612.301 703H901" stroke="url(#paint3_linear)" stroke-width="4"/>
<path opacity="0.5" fill-rule="evenodd" clip-rule="evenodd" d="M279.148 606C446.087 606 446.087 703.119 612.138 703.119C634.782 703.119 877.642 703.119 900.73 703.119C923.817 703.119 904.281 1097 904.281 1097H-10.3309C-10.3309 1097 -32.0863 606 -10.331 606C11.4244 606 228.534 606 279.148 606Z" fill="url(#paint4_linear)"/>
</g>
<path d="M544.5 702.5C548.366 702.5 551.5 699.366 551.5 695.5C551.5 691.634 548.366 688.5 544.5 688.5C540.634 688.5 537.5 691.634 537.5 695.5C537.5 699.366 540.634 702.5 544.5 702.5Z" fill="white" stroke="#30CD9A" stroke-width="5"/>
<path d="M345.5 620.5C349.366 620.5 352.5 617.366 352.5 613.5C352.5 609.634 349.366 606.5 345.5 606.5C341.634 606.5 338.5 609.634 338.5 613.5C338.5 617.366 341.634 620.5 345.5 620.5Z" fill="white" stroke="#E99D2F" stroke-width="5"/>
<path d="M545 617V524" stroke="#30CD9A" stroke-width="2" stroke-linecap="round" stroke-linejoin="round" stroke-dasharray="1 5"/>
<path d="M346 536V524" stroke="#E99D2F" stroke-width="2" stroke-linecap="round" stroke-linejoin="round" stroke-dasharray="1 5"/>
<path d="M519.666 505.009L516.208 499.796H518.21L520.524 503.67L522.864 499.796H524.762L521.304 505.009V509H519.666V505.009ZM523.882 505.854C523.882 505.36 523.969 504.914 524.142 504.515C524.324 504.108 524.567 503.761 524.87 503.475C525.173 503.189 525.533 502.968 525.949 502.812C526.365 502.656 526.807 502.578 527.275 502.578C527.743 502.578 528.185 502.656 528.601 502.812C529.017 502.968 529.377 503.189 529.68 503.475C529.983 503.761 530.222 504.108 530.395 504.515C530.577 504.914 530.668 505.36 530.668 505.854C530.668 506.348 530.577 506.799 530.395 507.206C530.222 507.613 529.983 507.964 529.68 508.259C529.377 508.545 529.017 508.77 528.601 508.935C528.185 509.1 527.743 509.182 527.275 509.182C526.807 509.182 526.365 509.1 525.949 508.935C525.533 508.77 525.173 508.545 524.87 508.259C524.567 507.964 524.324 507.613 524.142 507.206C523.969 506.799 523.882 506.348 523.882 505.854ZM525.468 505.854C525.468 506.097 525.503 506.339 525.572 506.582C525.65 506.825 525.763 507.041 525.91 507.232C526.057 507.423 526.244 507.579 526.469 507.7C526.694 507.821 526.963 507.882 527.275 507.882C527.587 507.882 527.856 507.821 528.081 507.7C528.306 507.579 528.493 507.423 528.64 507.232C528.787 507.041 528.896 506.825 528.965 506.582C529.043 506.339 529.082 506.097 529.082 505.854C529.082 505.611 529.043 505.373 528.965 505.139C528.896 504.896 528.787 504.68 528.64 504.489C528.493 504.298 528.306 504.147 528.081 504.034C527.856 503.913 527.587 503.852 527.275 503.852C526.963 503.852 526.694 503.913 526.469 504.034C526.244 504.147 526.057 504.298 525.91 504.489C525.763 504.68 525.65 504.896 525.572 505.139C525.503 505.373 525.468 505.611 525.468 505.854ZM537.875 509H536.393V507.999H536.367C536.228 508.311 535.985 508.588 535.639 508.831C535.301 509.065 534.898 509.182 534.43 509.182C534.022 509.182 533.671 509.113 533.377 508.974C533.091 508.827 532.852 508.636 532.662 508.402C532.48 508.168 532.345 507.899 532.259 507.596C532.172 507.293 532.129 506.981 532.129 506.66V502.76H533.689V506.218C533.689 506.4 533.702 506.591 533.728 506.79C533.754 506.989 533.81 507.171 533.897 507.336C533.983 507.492 534.1 507.622 534.248 507.726C534.404 507.83 534.607 507.882 534.859 507.882C535.101 507.882 535.314 507.834 535.496 507.739C535.686 507.635 535.838 507.505 535.951 507.349C536.072 507.193 536.163 507.015 536.224 506.816C536.284 506.608 536.315 506.4 536.315 506.192V502.76H537.875V509ZM539.747 502.76H541.242V503.8H541.268C541.441 503.436 541.684 503.141 541.996 502.916C542.308 502.691 542.672 502.578 543.088 502.578C543.149 502.578 543.214 502.582 543.283 502.591C543.352 502.591 543.413 502.6 543.465 502.617V504.047C543.361 504.021 543.27 504.004 543.192 503.995C543.123 503.986 543.053 503.982 542.984 503.982C542.629 503.982 542.343 504.047 542.126 504.177C541.909 504.307 541.74 504.463 541.619 504.645C541.498 504.827 541.415 505.013 541.372 505.204C541.329 505.395 541.307 505.546 541.307 505.659V509H539.747V502.76ZM554.076 502.76V508.441C554.076 509.004 554.007 509.511 553.868 509.962C553.73 510.421 553.513 510.807 553.218 511.119C552.932 511.44 552.568 511.687 552.126 511.86C551.684 512.033 551.16 512.12 550.553 512.12C550.302 512.12 550.033 512.098 549.747 512.055C549.47 512.012 549.193 511.947 548.915 511.86C548.647 511.773 548.387 511.665 548.135 511.535C547.884 511.405 547.659 511.258 547.459 511.093L548.356 509.884C548.66 510.17 549.002 510.387 549.383 510.534C549.765 510.69 550.15 510.768 550.54 510.768C550.913 510.768 551.225 510.712 551.476 510.599C551.736 510.495 551.94 510.348 552.087 510.157C552.243 509.966 552.352 509.741 552.412 509.481C552.482 509.221 552.516 508.935 552.516 508.623V508.168H552.49C552.265 508.471 551.975 508.705 551.619 508.87C551.273 509.026 550.883 509.104 550.449 509.104C549.981 509.104 549.557 509.017 549.175 508.844C548.794 508.671 548.469 508.437 548.2 508.142C547.94 507.847 547.737 507.505 547.589 507.115C547.442 506.716 547.368 506.296 547.368 505.854C547.368 505.403 547.438 504.979 547.576 504.58C547.724 504.181 547.927 503.835 548.187 503.54C548.456 503.245 548.777 503.011 549.149 502.838C549.531 502.665 549.955 502.578 550.423 502.578C550.865 502.578 551.277 502.669 551.658 502.851C552.04 503.033 552.343 503.315 552.568 503.696H552.594V502.76H554.076ZM550.748 503.852C550.462 503.852 550.207 503.904 549.981 504.008C549.765 504.112 549.578 504.255 549.422 504.437C549.275 504.61 549.158 504.818 549.071 505.061C548.993 505.304 548.954 505.564 548.954 505.841C548.954 506.092 548.993 506.335 549.071 506.569C549.158 506.803 549.275 507.015 549.422 507.206C549.578 507.388 549.765 507.535 549.981 507.648C550.207 507.761 550.458 507.817 550.735 507.817C551.021 507.817 551.277 507.765 551.502 507.661C551.736 507.548 551.931 507.401 552.087 507.219C552.252 507.037 552.378 506.829 552.464 506.595C552.551 506.352 552.594 506.101 552.594 505.841C552.594 505.572 552.551 505.317 552.464 505.074C552.378 504.831 552.252 504.619 552.087 504.437C551.931 504.255 551.741 504.112 551.515 504.008C551.29 503.904 551.034 503.852 550.748 503.852ZM555.582 505.854C555.582 505.36 555.669 504.914 555.842 504.515C556.024 504.108 556.267 503.761 556.57 503.475C556.874 503.189 557.233 502.968 557.649 502.812C558.065 502.656 558.507 502.578 558.975 502.578C559.443 502.578 559.885 502.656 560.301 502.812C560.717 502.968 561.077 503.189 561.38 503.475C561.684 503.761 561.922 504.108 562.095 504.515C562.277 504.914 562.368 505.36 562.368 505.854C562.368 506.348 562.277 506.799 562.095 507.206C561.922 507.613 561.684 507.964 561.38 508.259C561.077 508.545 560.717 508.77 560.301 508.935C559.885 509.1 559.443 509.182 558.975 509.182C558.507 509.182 558.065 509.1 557.649 508.935C557.233 508.77 556.874 508.545 556.57 508.259C556.267 507.964 556.024 507.613 555.842 507.206C555.669 506.799 555.582 506.348 555.582 505.854ZM557.168 505.854C557.168 506.097 557.203 506.339 557.272 506.582C557.35 506.825 557.463 507.041 557.61 507.232C557.758 507.423 557.944 507.579 558.169 507.7C558.395 507.821 558.663 507.882 558.975 507.882C559.287 507.882 559.556 507.821 559.781 507.7C560.007 507.579 560.193 507.423 560.34 507.232C560.488 507.041 560.596 506.825 560.665 506.582C560.743 506.339 560.782 506.097 560.782 505.854C560.782 505.611 560.743 505.373 560.665 505.139C560.596 504.896 560.488 504.68 560.34 504.489C560.193 504.298 560.007 504.147 559.781 504.034C559.556 503.913 559.287 503.852 558.975 503.852C558.663 503.852 558.395 503.913 558.169 504.034C557.944 504.147 557.758 504.298 557.61 504.489C557.463 504.68 557.35 504.896 557.272 505.139C557.203 505.373 557.168 505.611 557.168 505.854ZM567.755 508.207H567.716C567.56 508.484 567.308 508.714 566.962 508.896C566.615 509.069 566.221 509.156 565.779 509.156C565.527 509.156 565.263 509.121 564.986 509.052C564.717 508.991 564.466 508.887 564.232 508.74C564.006 508.584 563.816 508.385 563.66 508.142C563.512 507.891 563.439 507.583 563.439 507.219C563.439 506.751 563.569 506.378 563.829 506.101C564.097 505.824 564.44 505.611 564.856 505.464C565.272 505.317 565.731 505.221 566.234 505.178C566.745 505.126 567.243 505.1 567.729 505.1V504.944C567.729 504.554 567.586 504.268 567.3 504.086C567.022 503.895 566.689 503.8 566.299 503.8C565.969 503.8 565.653 503.869 565.35 504.008C565.046 504.147 564.795 504.316 564.596 504.515L563.79 503.566C564.145 503.237 564.552 502.99 565.012 502.825C565.48 502.66 565.952 502.578 566.429 502.578C566.983 502.578 567.438 502.656 567.794 502.812C568.158 502.968 568.444 503.172 568.652 503.423C568.86 503.674 569.003 503.956 569.081 504.268C569.167 504.58 569.211 504.892 569.211 505.204V509H567.755V508.207ZM567.729 506.153H567.378C567.126 506.153 566.862 506.166 566.585 506.192C566.307 506.209 566.052 506.257 565.818 506.335C565.584 506.404 565.389 506.508 565.233 506.647C565.077 506.777 564.999 506.959 564.999 507.193C564.999 507.34 565.029 507.466 565.09 507.57C565.159 507.665 565.246 507.743 565.35 507.804C565.454 507.865 565.571 507.908 565.701 507.934C565.831 507.96 565.961 507.973 566.091 507.973C566.628 507.973 567.035 507.83 567.313 507.544C567.59 507.258 567.729 506.868 567.729 506.374V506.153ZM571.054 499.172H572.614V509H571.054V499.172Z" fill="#30CD9A"/>
<path d="M308.463 499.796H310.101V509H308.463V499.796ZM312.054 502.76H313.536V503.761H313.562C313.701 503.449 313.939 503.176 314.277 502.942C314.624 502.699 315.031 502.578 315.499 502.578C315.906 502.578 316.253 502.652 316.539 502.799C316.834 502.938 317.072 503.124 317.254 503.358C317.445 503.592 317.583 503.861 317.67 504.164C317.757 504.467 317.8 504.779 317.8 505.1V509H316.24V505.542C316.24 505.36 316.227 505.169 316.201 504.97C316.175 504.771 316.119 504.593 316.032 504.437C315.945 504.272 315.824 504.138 315.668 504.034C315.521 503.93 315.321 503.878 315.07 503.878C314.819 503.878 314.602 503.93 314.42 504.034C314.238 504.129 314.086 504.255 313.965 504.411C313.852 504.567 313.766 504.749 313.705 504.957C313.644 505.156 313.614 505.36 313.614 505.568V509H312.054V502.76ZM319.647 502.76H321.207V509H319.647V502.76ZM319.426 500.641C319.426 500.39 319.517 500.173 319.699 499.991C319.889 499.8 320.128 499.705 320.414 499.705C320.7 499.705 320.938 499.796 321.129 499.978C321.328 500.151 321.428 500.372 321.428 500.641C321.428 500.91 321.328 501.135 321.129 501.317C320.938 501.49 320.7 501.577 320.414 501.577C320.128 501.577 319.889 501.486 319.699 501.304C319.517 501.113 319.426 500.892 319.426 500.641ZM322.202 504.008V502.76H323.294V500.953H324.828V502.76H326.388V504.008H324.828V506.907C324.828 507.184 324.876 507.414 324.971 507.596C325.075 507.778 325.3 507.869 325.647 507.869C325.751 507.869 325.864 507.86 325.985 507.843C326.106 507.817 326.215 507.782 326.31 507.739L326.362 508.961C326.223 509.013 326.059 509.052 325.868 509.078C325.677 509.113 325.495 509.13 325.322 509.13C324.906 509.13 324.568 509.074 324.308 508.961C324.048 508.84 323.84 508.679 323.684 508.48C323.537 508.272 323.433 508.038 323.372 507.778C323.32 507.509 323.294 507.223 323.294 506.92V504.008H322.202ZM327.543 502.76H329.103V509H327.543V502.76ZM327.322 500.641C327.322 500.39 327.413 500.173 327.595 499.991C327.786 499.8 328.024 499.705 328.31 499.705C328.596 499.705 328.834 499.796 329.025 499.978C329.224 500.151 329.324 500.372 329.324 500.641C329.324 500.91 329.224 501.135 329.025 501.317C328.834 501.49 328.596 501.577 328.31 501.577C328.024 501.577 327.786 501.486 327.595 501.304C327.413 501.113 327.322 500.892 327.322 500.641ZM334.87 508.207H334.831C334.675 508.484 334.423 508.714 334.077 508.896C333.73 509.069 333.336 509.156 332.894 509.156C332.642 509.156 332.378 509.121 332.101 509.052C331.832 508.991 331.581 508.887 331.347 508.74C331.121 508.584 330.931 508.385 330.775 508.142C330.627 507.891 330.554 507.583 330.554 507.219C330.554 506.751 330.684 506.378 330.944 506.101C331.212 505.824 331.555 505.611 331.971 505.464C332.387 505.317 332.846 505.221 333.349 505.178C333.86 505.126 334.358 505.1 334.844 505.1V504.944C334.844 504.554 334.701 504.268 334.415 504.086C334.137 503.895 333.804 503.8 333.414 503.8C333.084 503.8 332.768 503.869 332.465 504.008C332.161 504.147 331.91 504.316 331.711 504.515L330.905 503.566C331.26 503.237 331.667 502.99 332.127 502.825C332.595 502.66 333.067 502.578 333.544 502.578C334.098 502.578 334.553 502.656 334.909 502.812C335.273 502.968 335.559 503.172 335.767 503.423C335.975 503.674 336.118 503.956 336.196 504.268C336.282 504.58 336.326 504.892 336.326 505.204V509H334.87V508.207ZM334.844 506.153H334.493C334.241 506.153 333.977 506.166 333.7 506.192C333.422 506.209 333.167 506.257 332.933 506.335C332.699 506.404 332.504 506.508 332.348 506.647C332.192 506.777 332.114 506.959 332.114 507.193C332.114 507.34 332.144 507.466 332.205 507.57C332.274 507.665 332.361 507.743 332.465 507.804C332.569 507.865 332.686 507.908 332.816 507.934C332.946 507.96 333.076 507.973 333.206 507.973C333.743 507.973 334.15 507.83 334.428 507.544C334.705 507.258 334.844 506.868 334.844 506.374V506.153ZM338.169 499.172H339.729V509H338.169V499.172ZM343.988 502.76H345.678L346.978 507.232H347.004L348.343 502.76H350.007L351.359 507.232H351.385L352.711 502.76H354.336L352.178 509H350.592L349.175 504.632H349.149L347.745 509H346.159L343.988 502.76ZM359.714 505.256C359.714 505.057 359.683 504.866 359.623 504.684C359.571 504.502 359.484 504.342 359.363 504.203C359.241 504.064 359.085 503.956 358.895 503.878C358.713 503.791 358.496 503.748 358.245 503.748C357.777 503.748 357.378 503.891 357.049 504.177C356.728 504.454 356.55 504.814 356.516 505.256H359.714ZM361.274 505.958C361.274 506.027 361.274 506.097 361.274 506.166C361.274 506.235 361.269 506.305 361.261 506.374H356.516C356.533 506.599 356.589 506.807 356.685 506.998C356.789 507.18 356.923 507.34 357.088 507.479C357.252 507.609 357.439 507.713 357.647 507.791C357.855 507.869 358.071 507.908 358.297 507.908C358.687 507.908 359.016 507.839 359.285 507.7C359.553 507.553 359.774 507.353 359.948 507.102L360.988 507.934C360.372 508.766 359.48 509.182 358.31 509.182C357.824 509.182 357.378 509.108 356.971 508.961C356.563 508.805 356.208 508.588 355.905 508.311C355.61 508.034 355.376 507.696 355.203 507.297C355.038 506.89 354.956 506.43 354.956 505.919C354.956 505.416 355.038 504.961 355.203 504.554C355.376 504.138 355.61 503.787 355.905 503.501C356.199 503.206 356.546 502.981 356.945 502.825C357.352 502.66 357.79 502.578 358.258 502.578C358.691 502.578 359.09 502.652 359.454 502.799C359.826 502.938 360.147 503.15 360.416 503.436C360.684 503.713 360.892 504.064 361.04 504.489C361.196 504.905 361.274 505.395 361.274 505.958ZM362.811 502.76H364.371V509H362.811V502.76ZM362.59 500.641C362.59 500.39 362.681 500.173 362.863 499.991C363.053 499.8 363.292 499.705 363.578 499.705C363.864 499.705 364.102 499.796 364.293 499.978C364.492 500.151 364.592 500.372 364.592 500.641C364.592 500.91 364.492 501.135 364.293 501.317C364.102 501.49 363.864 501.577 363.578 501.577C363.292 501.577 363.053 501.486 362.863 501.304C362.681 501.113 362.59 500.892 362.59 500.641ZM372.607 502.76V508.441C372.607 509.004 372.538 509.511 372.399 509.962C372.26 510.421 372.044 510.807 371.749 511.119C371.463 511.44 371.099 511.687 370.657 511.86C370.215 512.033 369.691 512.12 369.084 512.12C368.833 512.12 368.564 512.098 368.278 512.055C368.001 512.012 367.723 511.947 367.446 511.86C367.177 511.773 366.917 511.665 366.666 511.535C366.415 511.405 366.189 511.258 365.99 511.093L366.887 509.884C367.19 510.17 367.533 510.387 367.914 510.534C368.295 510.69 368.681 510.768 369.071 510.768C369.444 510.768 369.756 510.712 370.007 510.599C370.267 510.495 370.471 510.348 370.618 510.157C370.774 509.966 370.882 509.741 370.943 509.481C371.012 509.221 371.047 508.935 371.047 508.623V508.168H371.021C370.796 508.471 370.505 508.705 370.15 508.87C369.803 509.026 369.413 509.104 368.98 509.104C368.512 509.104 368.087 509.017 367.706 508.844C367.325 508.671 367 508.437 366.731 508.142C366.471 507.847 366.267 507.505 366.12 507.115C365.973 506.716 365.899 506.296 365.899 505.854C365.899 505.403 365.968 504.979 366.107 504.58C366.254 504.181 366.458 503.835 366.718 503.54C366.987 503.245 367.307 503.011 367.68 502.838C368.061 502.665 368.486 502.578 368.954 502.578C369.396 502.578 369.808 502.669 370.189 502.851C370.57 503.033 370.874 503.315 371.099 503.696H371.125V502.76H372.607ZM369.279 503.852C368.993 503.852 368.737 503.904 368.512 504.008C368.295 504.112 368.109 504.255 367.953 504.437C367.806 504.61 367.689 504.818 367.602 505.061C367.524 505.304 367.485 505.564 367.485 505.841C367.485 506.092 367.524 506.335 367.602 506.569C367.689 506.803 367.806 507.015 367.953 507.206C368.109 507.388 368.295 507.535 368.512 507.648C368.737 507.761 368.989 507.817 369.266 507.817C369.552 507.817 369.808 507.765 370.033 507.661C370.267 507.548 370.462 507.401 370.618 507.219C370.783 507.037 370.908 506.829 370.995 506.595C371.082 506.352 371.125 506.101 371.125 505.841C371.125 505.572 371.082 505.317 370.995 505.074C370.908 504.831 370.783 504.619 370.618 504.437C370.462 504.255 370.271 504.112 370.046 504.008C369.821 503.904 369.565 503.852 369.279 503.852ZM377.948 502.578C378.355 502.578 378.702 502.652 378.988 502.799C379.283 502.938 379.521 503.124 379.703 503.358C379.894 503.592 380.032 503.861 380.119 504.164C380.206 504.467 380.249 504.779 380.249 505.1V509H378.689V505.568C378.689 505.386 378.676 505.2 378.65 505.009C378.624 504.81 378.568 504.632 378.481 504.476C378.403 504.311 378.286 504.177 378.13 504.073C377.983 503.969 377.783 503.917 377.532 503.917C377.281 503.917 377.064 503.965 376.882 504.06C376.7 504.155 376.548 504.285 376.427 504.45C376.306 504.606 376.215 504.784 376.154 504.983C376.093 505.182 376.063 505.386 376.063 505.594V509H374.503V499.172H376.063V503.631H376.089C376.15 503.501 376.236 503.375 376.349 503.254C376.47 503.124 376.609 503.011 376.765 502.916C376.921 502.812 377.099 502.73 377.298 502.669C377.497 502.608 377.714 502.578 377.948 502.578ZM381.172 504.008V502.76H382.264V500.953H383.798V502.76H385.358V504.008H383.798V506.907C383.798 507.184 383.845 507.414 383.941 507.596C384.045 507.778 384.27 507.869 384.617 507.869C384.721 507.869 384.833 507.86 384.955 507.843C385.076 507.817 385.184 507.782 385.28 507.739L385.332 508.961C385.193 509.013 385.028 509.052 384.838 509.078C384.647 509.113 384.465 509.13 384.292 509.13C383.876 509.13 383.538 509.074 383.278 508.961C383.018 508.84 382.81 508.679 382.654 508.48C382.506 508.272 382.402 508.038 382.342 507.778C382.29 507.509 382.264 507.223 382.264 506.92V504.008H381.172Z" fill="#E99D2F"/>
<path d="M503 636C503 631.582 506.582 628 511 628H578C582.418 628 586 631.582 586 636V663C586 667.418 582.418 671 578 671H511C506.582 671 503 667.418 503 663V636Z" fill="#30CD9A"/>
<path d="M304 554C304 549.582 307.582 546 312 546H379C383.418 546 387 549.582 387 554V581C387 585.418 383.418 589 379 589H312C307.582 589 304 585.418 304 581V554Z" fill="white"/>
<path d="M527.681 651.32C527.681 652.187 527.528 652.94 527.221 653.58C526.914 654.207 526.501 654.727 525.981 655.14C525.474 655.553 524.894 655.86 524.241 656.06C523.588 656.273 522.914 656.38 522.221 656.38C521.581 656.38 520.968 656.293 520.381 656.12C519.808 655.96 519.281 655.727 518.801 655.42C518.334 655.113 517.928 654.74 517.581 654.3C517.248 653.847 517.001 653.34 516.841 652.78L519.901 651.84C520.048 652.333 520.321 652.74 520.721 653.06C521.134 653.38 521.621 653.54 522.181 653.54C522.754 653.54 523.248 653.367 523.661 653.02C524.088 652.673 524.301 652.16 524.301 651.48C524.301 651.067 524.214 650.72 524.041 650.44C523.868 650.16 523.641 649.94 523.361 649.78C523.094 649.607 522.788 649.487 522.441 649.42C522.094 649.353 521.748 649.32 521.401 649.32C520.894 649.32 520.314 649.38 519.661 649.5C519.021 649.607 518.448 649.753 517.941 649.94L518.281 641.84H526.961V644.72H521.261L521.141 646.96C521.354 646.907 521.588 646.873 521.841 646.86C522.108 646.833 522.348 646.82 522.561 646.82C523.268 646.82 523.934 646.913 524.561 647.1C525.188 647.287 525.728 647.573 526.181 647.96C526.648 648.333 527.014 648.8 527.281 649.36C527.548 649.92 527.681 650.573 527.681 651.32ZM541.011 646.52C541.011 647.36 540.864 648.127 540.571 648.82C540.277 649.5 539.897 650.193 539.431 650.9L536.011 656H531.951L535.471 651.12L535.511 651.06C535.364 651.113 535.197 651.153 535.011 651.18C534.837 651.207 534.671 651.22 534.511 651.22C533.884 651.22 533.291 651.113 532.731 650.9C532.171 650.673 531.677 650.36 531.251 649.96C530.824 649.547 530.484 649.06 530.231 648.5C529.977 647.927 529.851 647.293 529.851 646.6C529.851 645.8 529.997 645.08 530.291 644.44C530.584 643.8 530.984 643.26 531.491 642.82C531.997 642.38 532.591 642.047 533.271 641.82C533.951 641.58 534.671 641.46 535.431 641.46C536.204 641.46 536.931 641.58 537.611 641.82C538.291 642.047 538.877 642.38 539.371 642.82C539.877 643.26 540.277 643.793 540.571 644.42C540.864 645.047 541.011 645.747 541.011 646.52ZM537.651 646.48C537.651 645.867 537.451 645.34 537.051 644.9C536.664 644.447 536.131 644.22 535.451 644.22C534.771 644.22 534.224 644.433 533.811 644.86C533.411 645.273 533.211 645.82 533.211 646.5C533.211 647.14 533.411 647.673 533.811 648.1C534.211 648.513 534.744 648.72 535.411 648.72C536.077 648.72 536.617 648.513 537.031 648.1C537.444 647.687 537.651 647.147 537.651 646.48ZM558.88 656H554.82L551.56 651.22H551.5V656H548.2V640.88H551.5V650.08H551.56L554.74 646.04H558.72L554.88 650.54L558.88 656ZM570.635 655.06C570.635 656.033 570.495 656.88 570.215 657.6C569.935 658.32 569.542 658.913 569.035 659.38C568.528 659.86 567.908 660.213 567.175 660.44C566.455 660.68 565.655 660.8 564.775 660.8C563.895 660.8 562.988 660.667 562.055 660.4C561.135 660.133 560.335 659.747 559.655 659.24L561.295 656.9C561.775 657.327 562.302 657.64 562.875 657.84C563.462 658.053 564.035 658.16 564.595 658.16C565.555 658.16 566.262 657.907 566.715 657.4C567.182 656.893 567.415 656.22 567.415 655.38V654.78H567.355C567.048 655.18 566.635 655.5 566.115 655.74C565.595 655.98 565.002 656.1 564.335 656.1C563.575 656.1 562.902 655.967 562.315 655.7C561.728 655.42 561.228 655.047 560.815 654.58C560.415 654.113 560.108 653.573 559.895 652.96C559.682 652.333 559.575 651.673 559.575 650.98C559.575 650.287 559.682 649.627 559.895 649C560.108 648.373 560.415 647.82 560.815 647.34C561.228 646.86 561.728 646.48 562.315 646.2C562.902 645.907 563.568 645.76 564.315 645.76C564.942 645.76 565.542 645.887 566.115 646.14C566.688 646.393 567.148 646.787 567.495 647.32H567.535V646.04H570.635V655.06ZM567.515 650.96C567.515 650.627 567.455 650.307 567.335 650C567.228 649.693 567.068 649.427 566.855 649.2C566.642 648.96 566.388 648.773 566.095 648.64C565.802 648.507 565.468 648.44 565.095 648.44C564.722 648.44 564.388 648.507 564.095 648.64C563.815 648.773 563.575 648.953 563.375 649.18C563.175 649.407 563.022 649.673 562.915 649.98C562.808 650.287 562.755 650.613 562.755 650.96C562.755 651.293 562.808 651.613 562.915 651.92C563.022 652.227 563.175 652.5 563.375 652.74C563.575 652.967 563.815 653.153 564.095 653.3C564.388 653.433 564.722 653.5 565.095 653.5C565.468 653.5 565.802 653.433 566.095 653.3C566.402 653.153 566.655 652.967 566.855 652.74C567.068 652.513 567.228 652.247 567.335 651.94C567.455 651.633 567.515 651.307 567.515 650.96Z" fill="white"/>
<path d="M321.065 559.84H330.685V562.04L325.025 574H322.205L328.165 562H321.065V559.84ZM339.212 571.06H332.672V568.94L338.692 559.84H341.572V569H343.552V571.06H341.572V574H339.212V571.06ZM339.212 562.66H339.172L335.152 569H339.212V562.66ZM350.939 558.88H353.339V568.44H353.399L357.039 564.4H360.119L355.959 568.74L360.379 574H357.199L353.399 569.08H353.339V574H350.939V558.88ZM371.518 564.4V573.14C371.518 574.007 371.412 574.787 371.198 575.48C370.985 576.187 370.652 576.78 370.198 577.26C369.758 577.753 369.198 578.133 368.518 578.4C367.838 578.667 367.032 578.8 366.098 578.8C365.712 578.8 365.298 578.767 364.858 578.7C364.432 578.633 364.005 578.533 363.578 578.4C363.165 578.267 362.765 578.1 362.378 577.9C361.992 577.7 361.645 577.473 361.338 577.22L362.718 575.36C363.185 575.8 363.712 576.133 364.298 576.36C364.885 576.6 365.478 576.72 366.078 576.72C366.652 576.72 367.132 576.633 367.518 576.46C367.918 576.3 368.232 576.073 368.458 575.78C368.698 575.487 368.865 575.14 368.958 574.74C369.065 574.34 369.118 573.9 369.118 573.42V572.72H369.078C368.732 573.187 368.285 573.547 367.738 573.8C367.205 574.04 366.605 574.16 365.938 574.16C365.218 574.16 364.565 574.027 363.978 573.76C363.392 573.493 362.892 573.133 362.478 572.68C362.078 572.227 361.765 571.7 361.538 571.1C361.312 570.487 361.198 569.84 361.198 569.16C361.198 568.467 361.305 567.813 361.518 567.2C361.745 566.587 362.058 566.053 362.458 565.6C362.872 565.147 363.365 564.787 363.938 564.52C364.525 564.253 365.178 564.12 365.898 564.12C366.578 564.12 367.212 564.26 367.798 564.54C368.385 564.82 368.852 565.253 369.198 565.84H369.238V564.4H371.518ZM366.398 566.08C365.958 566.08 365.565 566.16 365.218 566.32C364.885 566.48 364.598 566.7 364.358 566.98C364.132 567.247 363.952 567.567 363.818 567.94C363.698 568.313 363.638 568.713 363.638 569.14C363.638 569.527 363.698 569.9 363.818 570.26C363.952 570.62 364.132 570.947 364.358 571.24C364.598 571.52 364.885 571.747 365.218 571.92C365.565 572.093 365.952 572.18 366.378 572.18C366.818 572.18 367.212 572.1 367.558 571.94C367.918 571.767 368.218 571.54 368.458 571.26C368.712 570.98 368.905 570.66 369.038 570.3C369.172 569.927 369.238 569.54 369.238 569.14C369.238 568.727 369.172 568.333 369.038 567.96C368.905 567.587 368.712 567.26 368.458 566.98C368.218 566.7 367.925 566.48 367.578 566.32C367.232 566.16 366.838 566.08 366.398 566.08Z" fill="#E99D2F"/>
<defs>
<linearGradient id="paint0_linear" x1="-67" y1="1215.84" x2="957" y2="1215.84" gradientUnits="userSpaceOnUse">
<stop stop-color="#F07A33"/>
<stop offset="0.417177" stop-color="#E0C72A"/>
<stop offset="1" stop-color="#0AC186"/>
</linearGradient>
<linearGradient id="paint1_linear" x1="689.5" y1="-4.32351e-08" x2="692.307" y2="589.989" gradientUnits="userSpaceOnUse">
<stop stop-color="white"/>
<stop offset="1" stop-color="white" stop-opacity="0"/>
</linearGradient>
<linearGradient id="paint2_linear" x1="689.5" y1="-4.32351e-08" x2="692.307" y2="589.989" gradientUnits="userSpaceOnUse">
<stop stop-color="white"/>
<stop offset="1" stop-color="white" stop-opacity="0"/>
</linearGradient>
<linearGradient id="paint3_linear" x1="267.136" y1="641.386" x2="484.955" y2="718.716" gradientUnits="userSpaceOnUse">
<stop stop-color="#F07A33"/>
<stop offset="0.529587" stop-color="#E0C72A"/>
<stop offset="1" stop-color="#30CD9A"/>
</linearGradient>
<linearGradient id="paint4_linear" x1="279.148" y1="1392.53" x2="612.138" y2="1392.53" gradientUnits="userSpaceOnUse">
<stop stop-color="#F07A33"/>
<stop offset="0.417177" stop-color="#E0C72A"/>
<stop offset="1" stop-color="#0AC186"/>
</linearGradient>
</defs>
</svg>
