<svg width="890" height="1000" viewBox="0 0 890 1000" fill="none" xmlns="http://www.w3.org/2000/svg">
<mask id="mask0" mask-type="alpha" maskUnits="userSpaceOnUse" x="0" y="0" width="890" height="1000">
<rect width="890" height="1000" fill="white"/>
</mask>
<g mask="url(#mask0)">
<rect width="890" height="1000" fill="white"/>
<path fill-rule="evenodd" clip-rule="evenodd" d="M-16.9735 822.323C-168.305 861.942 -279.257 1045.93 -162.677 1185.23C-46.0977 1324.53 14.9781 1237.06 114.345 1470C213.711 1702.94 578.049 1606.05 520.263 1274.1C462.478 942.152 761.979 976.811 758.598 793.114C755.252 611.254 491.591 610.38 405 772.794L402.43 777.766C318.623 945.151 134.358 782.704 -16.9735 822.323Z" fill="#F6F6F6"/>
<path fill-rule="evenodd" clip-rule="evenodd" d="M963.125 902.626C1065.42 919.379 1153.09 1041.9 1165.93 1138.85C1178.78 1235.79 1073.5 1295.02 973.427 1203.34C873.357 1111.66 617.596 1345.31 643.885 1114.46C670.173 883.602 860.832 885.874 963.125 902.626Z" fill="#1B7837"/>
<path fill-rule="evenodd" clip-rule="evenodd" d="M575.578 -485.5C471.868 -523.608 284.382 -495.219 309.748 -329.682C335.114 -164.144 475.366 -218.861 463.603 -12.1677C451.839 194.525 682.515 205.209 779.487 73.404C876.46 -58.401 991.22 59.7349 1057.33 -138.622C1123.44 -336.978 984.195 -400.137 853.235 -345.981C722.275 -291.825 679.288 -447.393 575.578 -485.5Z" fill="#F6F6F6"/>
<path d="M305.356 -175.921C78.4048 -276.913 229.419 -475.505 73.9278 -473.96C-81.5634 -472.415 -359.784 -208.378 -377.207 31.095C-394.63 270.568 -326.771 499.131 -119.873 470.489C87.0249 441.847 -50.7624 199.57 178.387 205.911C407.536 212.251 532.307 -74.9287 305.356 -175.921Z" fill="#2FD491"/>
<path fill-rule="evenodd" clip-rule="evenodd" d="M897.591 709.746C898.467 707.746 900.793 706.838 902.787 707.716C904.78 708.593 905.687 710.924 904.812 712.923C903.936 714.921 901.61 715.83 899.617 714.952C897.622 714.075 896.716 711.744 897.591 709.746ZM897.591 812.449C898.467 810.449 900.793 809.542 902.787 810.419C904.78 811.297 905.687 813.628 904.812 815.626C903.936 817.625 901.61 818.534 899.617 817.656C897.622 816.779 896.716 814.447 897.591 812.449ZM902.787 741.95C900.793 741.073 898.467 741.98 897.591 743.98C896.716 745.978 897.622 748.309 899.617 749.187C901.61 750.065 903.936 749.155 904.812 747.157C905.687 745.159 904.78 742.828 902.787 741.95ZM897.591 778.215C898.467 776.215 900.793 775.307 902.787 776.185C904.78 777.063 905.687 779.394 904.812 781.392C903.936 783.39 901.61 784.299 899.617 783.421C897.622 782.544 896.716 780.213 897.591 778.215ZM879.722 795.039C877.728 794.161 875.402 795.068 874.527 797.069C873.651 799.067 874.556 801.398 876.552 802.275C878.545 803.153 880.871 802.244 881.747 800.245C882.623 798.247 881.716 795.916 879.722 795.039ZM874.527 694.364C875.402 692.365 877.728 691.457 879.722 692.335C881.716 693.212 882.623 695.544 881.747 697.542C880.871 699.54 878.545 700.449 876.552 699.571C874.556 698.694 873.651 696.363 874.527 694.364ZM879.722 726.569C877.728 725.692 875.402 726.599 874.527 728.599C873.651 730.597 874.556 732.928 876.552 733.806C878.545 734.684 880.871 733.774 881.747 731.776C882.623 729.778 881.716 727.447 879.722 726.569ZM874.527 762.834C875.402 760.834 877.728 759.926 879.722 760.804C881.716 761.682 882.623 764.013 881.747 766.011C880.871 768.009 878.545 768.918 876.552 768.04C874.556 767.163 873.651 764.832 874.527 762.834ZM856.658 810.419C854.664 809.542 852.338 810.449 851.461 812.449C850.587 814.447 851.491 816.779 853.487 817.656C855.481 818.534 857.807 817.625 858.681 815.626C859.558 813.628 858.651 811.297 856.658 810.419ZM851.461 709.746C852.338 707.746 854.664 706.838 856.658 707.716C858.651 708.593 859.558 710.924 858.681 712.923C857.807 714.921 855.481 715.83 853.487 714.952C851.491 714.075 850.587 711.744 851.461 709.746ZM856.658 741.95C854.664 741.073 852.338 741.98 851.461 743.98C850.587 745.978 851.491 748.309 853.487 749.187C855.481 750.065 857.807 749.155 858.681 747.157C859.558 745.159 858.651 742.828 856.658 741.95ZM851.461 778.215C852.338 776.215 854.664 775.307 856.658 776.185C858.651 777.063 859.558 779.394 858.681 781.392C857.807 783.39 855.481 784.299 853.487 783.421C851.491 782.544 850.587 780.213 851.461 778.215ZM833.594 795.039C831.6 794.161 829.274 795.068 828.399 797.069C827.523 799.067 828.429 801.398 830.424 802.275C832.417 803.153 834.743 802.244 835.619 800.245C836.495 798.247 835.588 795.916 833.594 795.039ZM828.399 694.364C829.274 692.365 831.6 691.457 833.594 692.335C835.588 693.212 836.495 695.544 835.619 697.542C834.743 699.54 832.417 700.449 830.424 699.571C828.429 698.694 827.523 696.363 828.399 694.364ZM833.594 726.569C831.6 725.692 829.274 726.599 828.399 728.599C827.523 730.597 828.429 732.928 830.424 733.806C832.417 734.684 834.743 733.774 835.619 731.776C836.495 729.778 835.588 727.447 833.594 726.569ZM828.399 762.834C829.274 760.834 831.6 759.926 833.594 760.804C835.588 761.682 836.495 764.013 835.619 766.011C834.743 768.009 832.417 768.918 830.424 768.04C828.429 767.163 827.523 764.832 828.399 762.834ZM810.529 810.419C808.535 809.542 806.209 810.449 805.334 812.449C804.458 814.447 805.364 816.779 807.359 817.656C809.353 818.534 811.679 817.625 812.554 815.626C813.43 813.628 812.523 811.297 810.529 810.419ZM805.334 709.746C806.209 707.746 808.535 706.838 810.529 707.716C812.523 708.593 813.43 710.924 812.554 712.923C811.679 714.921 809.353 715.83 807.359 714.952C805.364 714.075 804.458 711.744 805.334 709.746ZM810.529 741.95C808.535 741.073 806.209 741.98 805.334 743.98C804.458 745.978 805.364 748.309 807.359 749.187C809.353 750.065 811.679 749.155 812.554 747.157C813.43 745.159 812.523 742.828 810.529 741.95ZM805.334 778.215C806.209 776.215 808.535 775.307 810.529 776.185C812.523 777.063 813.43 779.394 812.554 781.392C811.679 783.39 809.353 784.299 807.359 783.421C805.364 782.544 804.458 780.213 805.334 778.215Z" fill="#0C0C0C"/>
<path fill-rule="evenodd" clip-rule="evenodd" d="M-18.6928 -7.96184C-18.6928 -5.73163 -20.5008 -3.92368 -22.731 -3.92368C-24.9612 -3.92368 -26.7691 -5.73163 -26.7691 -7.96184C-26.7691 -10.1921 -24.9612 -12 -22.731 -12C-20.5008 -12 -18.6928 -10.1921 -18.6928 -7.96184ZM-20.3083 37.2656C-20.3083 39.4958 -22.1162 41.3037 -24.3464 41.3037C-26.5766 41.3037 -28.3846 39.4958 -28.3846 37.2656C-28.3846 35.0354 -26.5766 33.2274 -24.3464 33.2274C-22.1162 33.2274 -20.3083 35.0354 -20.3083 37.2656ZM-25.9618 89.7616C-23.7316 89.7616 -21.9237 87.9536 -21.9237 85.7234C-21.9237 83.4932 -23.7316 81.6853 -25.9618 81.6853C-28.1921 81.6853 -30 83.4932 -30 85.7234C-30 87.9536 -28.1921 89.7616 -25.9618 89.7616ZM52.3782 -7.96184C52.3782 -5.73163 50.5702 -3.92368 48.34 -3.92368C46.1098 -3.92368 44.3019 -5.73163 44.3019 -7.96184C44.3019 -10.1921 46.1098 -12 48.34 -12C50.5702 -12 52.3782 -10.1921 52.3782 -7.96184ZM46.7255 41.3037C48.9557 41.3037 50.7636 39.4958 50.7636 37.2656C50.7636 35.0354 48.9557 33.2274 46.7255 33.2274C44.4953 33.2274 42.6873 35.0354 42.6873 37.2656C42.6873 39.4958 44.4953 41.3037 46.7255 41.3037ZM49.1482 85.7234C49.1482 87.9536 47.3403 89.7616 45.11 89.7616C42.8798 89.7616 41.0719 87.9536 41.0719 85.7234C41.0719 83.4932 42.8798 81.6853 45.11 81.6853C47.3403 81.6853 49.1482 83.4932 49.1482 85.7234ZM30.5721 17.0747C32.8023 17.0747 34.6102 15.2668 34.6102 13.0366C34.6102 10.8063 32.8023 8.99839 30.5721 8.99839C28.3418 8.99839 26.5339 10.8063 26.5339 13.0366C26.5339 15.2668 28.3418 17.0747 30.5721 17.0747ZM34.6102 61.4945C34.6102 63.7247 32.8023 65.5327 30.5721 65.5327C28.3418 65.5327 26.5339 63.7247 26.5339 61.4945C26.5339 59.2643 28.3418 57.4564 30.5721 57.4564C32.8023 57.4564 34.6102 59.2643 34.6102 61.4945ZM30.5721 113.991C32.8023 113.991 34.6102 112.183 34.6102 109.952C34.6102 107.722 32.8023 105.914 30.5721 105.914C28.3418 105.914 26.5339 107.722 26.5339 109.952C26.5339 112.183 28.3418 113.991 30.5721 113.991ZM16.8423 -7.96184C16.8423 -5.73163 15.0343 -3.92368 12.8041 -3.92368C10.5739 -3.92368 8.76593 -5.73163 8.76593 -7.96184C8.76593 -10.1921 10.5739 -12 12.8041 -12C15.0343 -12 16.8423 -10.1921 16.8423 -7.96184ZM11.1895 41.3037C13.4197 41.3037 15.2277 39.4958 15.2277 37.2656C15.2277 35.0354 13.4197 33.2274 11.1895 33.2274C8.95931 33.2274 7.15137 35.0354 7.15137 37.2656C7.15137 39.4958 8.95931 41.3037 11.1895 41.3037ZM13.6123 85.7234C13.6123 87.9536 11.8043 89.7616 9.5741 89.7616C7.34389 89.7616 5.53594 87.9536 5.53594 85.7234C5.53594 83.4932 7.34389 81.6853 9.5741 81.6853C11.8043 81.6853 13.6123 83.4932 13.6123 85.7234ZM-4.96301 17.0747C-2.7328 17.0747 -0.924854 15.2668 -0.924854 13.0366C-0.924854 10.8063 -2.7328 8.99839 -4.96301 8.99839C-7.19323 8.99839 -9.00117 10.8063 -9.00117 13.0366C-9.00117 15.2668 -7.19323 17.0747 -4.96301 17.0747ZM-0.924854 61.4945C-0.924854 63.7247 -2.7328 65.5327 -4.96301 65.5327C-7.19323 65.5327 -9.00117 63.7247 -9.00117 61.4945C-9.00117 59.2643 -7.19323 57.4564 -4.96301 57.4564C-2.7328 57.4564 -0.924854 59.2643 -0.924854 61.4945ZM-4.96301 113.991C-2.7328 113.991 -0.924854 112.183 -0.924854 109.952C-0.924854 107.722 -2.7328 105.914 -4.96301 105.914C-7.19323 105.914 -9.00117 107.722 -9.00117 109.952C-9.00117 112.183 -7.19323 113.991 -4.96301 113.991ZM87.9141 -7.96184C87.9141 -5.73163 86.1062 -3.92368 83.876 -3.92368C81.6458 -3.92368 79.8378 -5.73163 79.8378 -7.96184C79.8378 -10.1921 81.6458 -12 83.876 -12C86.1062 -12 87.9141 -10.1921 87.9141 -7.96184ZM82.2606 41.3037C84.4908 41.3037 86.2987 39.4958 86.2987 37.2656C86.2987 35.0354 84.4908 33.2274 82.2606 33.2274C80.0303 33.2274 78.2224 35.0354 78.2224 37.2656C78.2224 39.4958 80.0303 41.3037 82.2606 41.3037ZM84.6841 85.7234C84.6841 87.9536 82.8762 89.7616 80.646 89.7616C78.4158 89.7616 76.6078 87.9536 76.6078 85.7234C76.6078 83.4932 78.4158 81.6853 80.646 81.6853C82.8762 81.6853 84.6841 83.4932 84.6841 85.7234ZM66.108 17.0747C68.3382 17.0747 70.1462 15.2668 70.1462 13.0366C70.1462 10.8063 68.3382 8.99839 66.108 8.99839C63.8778 8.99839 62.0698 10.8063 62.0698 13.0366C62.0698 15.2668 63.8778 17.0747 66.108 17.0747ZM70.1462 61.4945C70.1462 63.7247 68.3382 65.5327 66.108 65.5327C63.8778 65.5327 62.0698 63.7247 62.0698 61.4945C62.0698 59.2643 63.8778 57.4564 66.108 57.4564C68.3382 57.4564 70.1462 59.2643 70.1462 61.4945ZM66.108 113.991C68.3382 113.991 70.1462 112.183 70.1462 109.952C70.1462 107.722 68.3382 105.914 66.108 105.914C63.8778 105.914 62.0698 107.722 62.0698 109.952C62.0698 112.183 63.8778 113.991 66.108 113.991ZM123.45 -7.96184C123.45 -5.73163 121.642 -3.92368 119.412 -3.92368C117.182 -3.92368 115.374 -5.73163 115.374 -7.96184C115.374 -10.1921 117.182 -12 119.412 -12C121.642 -12 123.45 -10.1921 123.45 -7.96184ZM117.796 41.3037C120.027 41.3037 121.835 39.4958 121.835 37.2656C121.835 35.0354 120.027 33.2274 117.796 33.2274C115.566 33.2274 113.758 35.0354 113.758 37.2656C113.758 39.4958 115.566 41.3037 117.796 41.3037ZM120.219 85.7234C120.219 87.9536 118.411 89.7616 116.181 89.7616C113.951 89.7616 112.143 87.9536 112.143 85.7234C112.143 83.4932 113.951 81.6853 116.181 81.6853C118.411 81.6853 120.219 83.4932 120.219 85.7234ZM101.644 17.0747C103.874 17.0747 105.682 15.2668 105.682 13.0366C105.682 10.8063 103.874 8.99839 101.644 8.99839C99.4137 8.99839 97.6058 10.8063 97.6058 13.0366C97.6058 15.2668 99.4137 17.0747 101.644 17.0747ZM105.682 61.4945C105.682 63.7247 103.874 65.5327 101.644 65.5327C99.4137 65.5327 97.6058 63.7247 97.6058 61.4945C97.6058 59.2643 99.4137 57.4564 101.644 57.4564C103.874 57.4564 105.682 59.2643 105.682 61.4945ZM101.644 113.991C103.874 113.991 105.682 112.183 105.682 109.952C105.682 107.722 103.874 105.914 101.644 105.914C99.4137 105.914 97.6058 107.722 97.6058 109.952C97.6058 112.183 99.4137 113.991 101.644 113.991Z" fill="#0C0C0C"/>
</g>
</svg>
